<?xml version="1.0" encoding="UTF-8"?>
<svg id="Layer_1" data-name="Layer 1" xmlns="http://www.w3.org/2000/svg" xmlns:xlink="http://www.w3.org/1999/xlink" viewBox="0 0 40 40">
  <defs>
    <style>
      .cls-1 {
        fill: none;
      }

      .cls-1, .cls-2, .cls-3 {
        stroke-width: 0px;
      }

      .cls-2 {
        fill: url(#linear-gradient);
      }

      .cls-3 {
        fill: #56bd9a;
      }
    </style>
    <linearGradient id="linear-gradient" x1="-445.89" y1="-157.76" x2="-444.89" y2="-157.76" gradientTransform="translate(7333.31 -2570.19) scale(16.42 -16.42)" gradientUnits="userSpaceOnUse">
      <stop offset="0" stop-color="#c9eaff"/>
      <stop offset="1" stop-color="#cafbea"/>
    </linearGradient>
  </defs>
  <path class="cls-1" d="M8.01,16.67c-.74.74-1.19,1.75-1.19,2.87,0,1.12.45,2.13,1.19,2.87.74.74,1.75,1.19,2.87,1.19h2.24v-8.12h-2.24c-1.12,0-2.13.45-2.87,1.19Z"/>
  <path class="cls-2" d="M29.53,28.64V10.45l-.6.4c-4.4,2.93-9.54,4.52-14.81,4.62v8.16c5.28.1,10.42,1.69,14.81,4.62l.6.4Z"/>
  <path class="cls-3" d="M13.12,24.1v-.5h-2.24c-1.12,0-2.13-.45-2.87-1.19-.74-.74-1.19-1.75-1.19-2.87,0-1.12.45-2.13,1.19-2.87.74-.74,1.75-1.19,2.87-1.19h2.24v-.5c0-.28.22-.5.5-.5h-2.74c-2.79,0-5.06,2.27-5.06,5.06,0,2.79,2.27,5.06,5.06,5.06h2.26c0-.16-.03-.33-.03-.49h0Z"/>
  <path class="cls-3" d="M29.75,29.99c.15.1.35.11.51.02.16-.09.26-.26.26-.44V9.51c0-.18-.1-.35-.26-.44-.16-.09-.36-.08-.51.02l-1.38.92c-4.37,2.91-9.51,4.47-14.76,4.47-.28,0-.5.22-.5.5v9.12c0-.28.22-.5.5-.5s.5.22.5.5h0c0,.18.02.35.03.52,5.07.1,10.01,1.63,14.23,4.45l1.38.92ZM14.12,23.62v-8.16c5.28-.1,10.42-1.69,14.81-4.62l.6-.4v18.2l-.6-.4c-4.4-2.93-9.54-4.52-14.81-4.62Z"/>
  <path class="cls-3" d="M33.18,17.72v3.65c0,.28.22.5.5.5s.5-.22.5-.5v-3.65c0-.28-.22-.5-.5-.5s-.5.22-.5.5Z"/>
  <path class="cls-3" d="M14.12,24.1c0-.28-.22-.5-.5-.5s-.5.22-.5.5h0c0,.17.02.34.03.5.13,2.37,1.14,4.6,2.87,6.25.2.19.52.18.71-.02.19-.2.18-.52-.02-.71-1.52-1.45-2.42-3.42-2.55-5.5-.01-.17-.03-.34-.03-.51h0Z"/>
</svg>