<?xml version="1.0" encoding="UTF-8"?>
<svg width="10px" height="10px" viewBox="0 0 10 10" version="1.1" xmlns="http://www.w3.org/2000/svg" xmlns:xlink="http://www.w3.org/1999/xlink">
    <title>Shape</title>
    <g id="Round-Three-Design" stroke="none" stroke-width="1" fill="none" fill-rule="evenodd">
        <g id="CADO-Blog-R3" transform="translate(-696, -432)" fill="#616973" fill-rule="nonzero">
            <g id="rss_feed_FILL0_wght200_GRAD0_opsz24-Copy" transform="translate(696, 432)">
                <path d="M0.821245942,9.99998944 C0.595400945,9.99998944 0.402062592,9.91957915 0.241230882,9.75875856 C0.0804102941,9.59792685 0,9.4045885 0,9.1787435 C0,8.95290962 0.0804102941,8.75957683 0.241230882,8.59874512 C0.402062592,8.43791341 0.595400945,8.35749756 0.821245942,8.35749756 C1.04707982,8.35749756 1.24041261,8.43791341 1.40124432,8.59874512 C1.56207603,8.75957683 1.64249188,8.95290962 1.64249188,9.1787435 C1.64249188,9.4045885 1.56207603,9.59792685 1.40124432,9.75875856 C1.24041261,9.91957915 1.04707982,9.99998944 0.821245942,9.99998944 Z M9.52354034,9.99998944 C9.37831138,9.99998944 9.25960597,9.94259403 9.16742411,9.8278032 C9.07523113,9.71301238 9.02123318,9.577075 9.00543026,9.41999106 C8.93442276,8.28992088 8.67029932,7.22936243 8.21305996,6.2383157 C7.75582059,5.24726897 7.14737473,4.37191943 6.38772237,3.61226707 C5.62807001,2.85261471 4.75272047,2.24416885 3.76167374,1.78692949 C2.77062701,1.32969012 1.71006856,1.06556668 0.579998378,0.994559185 C0.422914442,0.978433754 0.286977061,0.923357068 0.172186237,0.829329126 C0.0573954122,0.735290062 0,0.618419613 0,0.478717779 C0,0.332821555 0.0551767754,0.213582336 0.165530326,0.121000121 C0.275883877,0.0284067865 0.401634434,-0.0110449137 0.542781996,0.00264502085 C1.82512073,0.0736525207 3.02127181,0.365578421 4.13123525,0.878422721 C5.24119869,1.39127814 6.2221976,2.07372305 7.074232,2.92575744 C7.92626639,3.77779184 8.6087113,4.75879075 9.12156672,5.86875419 C9.63441102,6.97871763 9.92633692,8.17486871 9.99734442,9.45720744 C10.0110344,9.59835501 9.97179395,9.72410556 9.87962322,9.83445911 C9.7874636,9.94481267 9.66876931,9.99998944 9.52354034,9.99998944 Z M5.82568994,9.99998944 C5.68453126,9.99998944 5.56733274,9.94545768 5.47409439,9.83639417 C5.38084492,9.72731953 5.32352735,9.60220287 5.30214169,9.46104418 C5.23627209,8.82202117 5.07180938,8.2311131 4.80875356,7.68831999 C4.54569774,7.14553799 4.19945138,6.65942298 3.77001448,6.22997496 C3.34056646,5.80053806 2.85445145,5.4542917 2.31166945,5.19123588 C1.76887634,4.92818006 1.17796827,4.76371735 0.538945256,4.69784775 C0.397786572,4.67646209 0.272669912,4.61914452 0.163595274,4.52589505 C0.0545317581,4.4326567 0,4.31621441 0,4.17656818 C0,4.03133921 0.0551767754,3.91338447 0.165530326,3.82270394 C0.275883877,3.73202342 0.401634434,3.69609707 0.542781996,3.7149249 C1.31184271,3.78336345 2.03021952,3.97477231 2.69791244,4.28915149 C3.36559424,4.60353066 3.95607415,5.01735925 4.46935217,5.53063727 C4.98263019,6.04391529 5.39645878,6.6343952 5.71083795,7.302077 C6.02521713,7.96976992 6.21662599,8.68814673 6.28506454,9.45720744 C6.30389237,9.59835501 6.26725428,9.72410556 6.17515027,9.83445911 C6.08303514,9.94481267 5.96654836,9.99998944 5.82568994,9.99998944 Z" id="Shape"></path>
            </g>
        </g>
    </g>
</svg>