<?xml version="1.0" encoding="UTF-8"?>
<svg width="144px" height="29px" viewBox="0 0 144 29" version="1.1" xmlns="http://www.w3.org/2000/svg" xmlns:xlink="http://www.w3.org/1999/xlink">
    <title>Group</title>
    <g id="Round-Three-Design" stroke="none" stroke-width="1" fill="none" fill-rule="evenodd">
        <g id="CADO-Homepage-R3" transform="translate(-1256, -6759)">
            <g id="Group" transform="translate(1256, 6759)">
                <polygon id="Fill-12" fill="#56BD9A" points="127.877613 0.700012539 133.251613 0.700012539 124.294613 28.2290125 118.920613 28.2290125"></polygon>
                <polygon id="Fill-13" fill="#56BD9A" points="138.625913 0.700012539 143.999913 0.700012539 135.042913 28.2290125 129.668913 28.2290125"></polygon>
                <path d="M22.5601125,18.3991125 C20.2081125,23.0381125 14.5401125,24.8911125 9.90211254,22.5391125 C5.26311254,20.1861125 3.41011254,14.5191125 5.76211254,9.88111254 C8.11411254,5.24211254 13.7821125,3.38911254 18.4201125,5.74111254 C19.8171125,6.44911254 21.0151125,7.49411254 21.9061125,8.78211254 L25.6031125,5.86711254 C21.0361125,-0.464887461 12.2001125,-1.89488746 5.86711254,2.67311254 C-0.464887461,7.24111254 -1.89488746,16.0771125 2.67311254,22.4091125 C7.24111254,28.7411125 16.0771125,30.1711125 22.4091125,25.6031125 C24.2401125,24.2821125 25.7281125,22.5421125 26.7491125,20.5281125 L22.5601125,18.3991125 Z" id="Fill-14" fill="#0E4271"></path>
                <polygon id="Fill-15" fill="#0E4271" points="44.8963125 0.697112539 39.4023125 0.697112539 29.6483125 28.2251125 34.6283125 28.2251125 37.1813125 20.5561125 38.5123125 16.5431125 42.1253125 5.57111254 42.1643125 5.57111254 45.8143125 16.5441125 47.1453125 20.5571125 49.7013125 28.2261125 54.6703125 28.2261125"></polygon>
                <path d="M95.4112125,23.7135125 C90.6972125,20.8035125 89.2352125,14.6225125 92.1452125,9.90851254 C95.0562125,5.19551254 101.236213,3.73351254 105.950213,6.64351254 C110.664213,9.55351254 112.126213,15.7345125 109.216213,20.4475125 C108.344213,21.8595125 107.136213,23.0325125 105.700213,23.8635125 L108.470213,28.0705125 C115.591213,23.7655125 117.874213,14.5035125 113.570213,7.38251254 C109.265213,0.261512539 100.003213,-2.02148746 92.8822125,2.28251254 C85.7612125,6.58751254 83.4782125,15.8495125 87.7832125,22.9705125 C89.0222125,25.0215125 90.7342125,26.7475125 92.7752125,28.0045125 L95.4112125,23.7135125 Z" id="Fill-16" fill="#0E4271"></path>
                <path d="M67.8650125,0.697112539 L59.3500125,0.697112539 L59.3500125,17.6691125 L64.2260125,17.6691125 L64.2260125,4.94311254 L67.2370125,4.94311254 C74.4980125,4.94311254 76.8150125,9.54511254 76.8150125,14.5451125 C76.8150125,19.5451125 74.5010125,23.9821125 67.2370125,23.9821125 L59.3500125,23.9821125 L59.3500125,28.2251125 L67.8650125,28.2251125 C77.1200125,28.2251125 81.7540125,22.4051125 81.7540125,14.5411125 C81.7540125,6.67811254 77.1210125,0.697112539 67.8650125,0.697112539" id="Fill-17" fill="#0E4271"></path>
            </g>
        </g>
    </g>
</svg>