<svg width="50" height="50" viewBox="0 0 50 50" fill="none" xmlns="http://www.w3.org/2000/svg">
<path d="M32.15 21.9C31.7375 21.9 31.35 21.975 30.9875 22.125C30.825 22.1875 30.625 22.1875 30.475 22.1C30.325 22.0125 30.2 21.875 30.15 21.6875C29.5875 19.375 27.5 17.6625 25.0125 17.6625C22.525 17.6625 20.4375 19.375 19.875 21.6875C19.8375 21.8625 19.7125 22.0125 19.55 22.1C19.3875 22.1875 19.2 22.1875 19.0375 22.125C18.675 21.9875 18.2875 21.9 17.875 21.9C16.125 21.9 14.7 23.325 14.7 25.075C14.7 26.825 16.125 28.25 17.875 28.25H32.1625C33.9125 28.25 35.3375 26.825 35.3375 25.075C35.3375 23.325 33.9125 21.9 32.1625 21.9H32.15Z" fill="url(#paint0_linear_1_723)"/>
<path d="M40.9875 21.1125C41.2875 20.9375 41.3875 20.5625 41.2125 20.2625L37.125 13.1875C36.95 12.8875 36.575 12.7875 36.275 12.9625C35.975 13.1375 35.875 13.5125 36.05 13.8125L40.1375 20.8875C40.3125 21.1875 40.6875 21.2875 40.9875 21.1125Z" fill="#56BD9A"/>
<path d="M41.05 28.775C40.75 28.6 40.375 28.7 40.2 29L36.0625 36.175C35.8875 36.475 35.9875 36.85 36.2875 37.025C36.5875 37.2 36.9625 37.1 37.1375 36.8L41.275 29.625C41.45 29.325 41.35 28.95 41.05 28.775Z" fill="#56BD9A"/>
<path d="M28.8 41.4125C29.15 41.4125 29.425 41.1375 29.425 40.7875C29.425 40.4375 29.15 40.1625 28.8 40.1625H21.2C20.85 40.1625 20.575 40.4375 20.575 40.7875C20.575 41.1375 20.85 41.4125 21.2 41.4125H28.8Z" fill="#56BD9A"/>
<path d="M9.8 29.0125C9.625 28.7125 9.25 28.6125 8.95 28.7875C8.65 28.9625 8.55 29.3375 8.725 29.6375L12.8625 36.8125C13.0375 37.1125 13.4125 37.2125 13.7125 37.0375C14.0125 36.8625 14.1125 36.4875 13.9375 36.1875L9.8 29.0125Z" fill="#56BD9A"/>
<path d="M9.0125 21.1125C9.3125 21.2875 9.6875 21.1875 9.8625 20.8875L13.95 13.8125C14.125 13.5125 14.025 13.1375 13.725 12.9625C13.425 12.7875 13.05 12.8875 12.875 13.1875L8.7875 20.2625C8.6125 20.5625 8.7125 20.9375 9.0125 21.1125Z" fill="#56BD9A"/>
<path d="M28.8 9.83752C29.15 9.83752 29.425 9.56252 29.425 9.21252C29.425 8.86252 29.15 8.58752 28.8 8.58752H21.2C20.85 8.58752 20.575 8.86252 20.575 9.21252C20.575 9.56252 20.85 9.83752 21.2 9.83752H28.8Z" fill="#56BD9A"/>
<path d="M12.3 9.2125C12.3 11.1875 13.9 12.8 15.8875 12.8C17.8625 12.8 19.475 11.2 19.475 9.2125C19.475 7.2375 17.875 5.625 15.8875 5.625C13.9125 5.625 12.3 7.225 12.3 9.2125ZM15.8875 6.875C17.175 6.875 18.225 7.925 18.225 9.2125C18.225 10.5 17.175 11.55 15.8875 11.55C14.6 11.55 13.55 10.5 13.55 9.2125C13.55 7.925 14.6 6.875 15.8875 6.875Z" fill="#56BD9A"/>
<path d="M34.175 12.8C36.15 12.8 37.7625 11.2 37.7625 9.2125C37.7625 7.2375 36.1625 5.625 34.175 5.625C32.2 5.625 30.5875 7.225 30.5875 9.2125C30.5875 11.1875 32.1875 12.8 34.175 12.8ZM34.175 6.875C35.4625 6.875 36.5125 7.925 36.5125 9.2125C36.5125 10.5 35.4625 11.55 34.175 11.55C32.8875 11.55 31.8375 10.5 31.8375 9.2125C31.8375 7.925 32.8875 6.875 34.175 6.875Z" fill="#56BD9A"/>
<path d="M43.2375 21.4125C41.2625 21.4125 39.65 23.0125 39.65 25C39.65 26.975 41.25 28.5875 43.2375 28.5875C45.2125 28.5875 46.825 26.9875 46.825 25C46.825 23.025 45.225 21.4125 43.2375 21.4125ZM43.2375 27.3375C41.95 27.3375 40.9 26.2875 40.9 25C40.9 23.7125 41.95 22.6625 43.2375 22.6625C44.525 22.6625 45.575 23.7125 45.575 25C45.575 26.2875 44.525 27.3375 43.2375 27.3375Z" fill="#56BD9A"/>
<path d="M10.35 25C10.35 23.025 8.75 21.4125 6.7625 21.4125C4.7875 21.4125 3.175 23.0125 3.175 25C3.175 26.975 4.775 28.5875 6.7625 28.5875C8.7375 28.5875 10.35 26.9875 10.35 25ZM6.7625 27.3375C5.475 27.3375 4.425 26.2875 4.425 25C4.425 23.7125 5.475 22.6625 6.7625 22.6625C8.05 22.6625 9.1 23.7125 9.1 25C9.1 26.2875 8.05 27.3375 6.7625 27.3375Z" fill="#56BD9A"/>
<path d="M12.3 40.7875C12.3 42.7625 13.9 44.375 15.8875 44.375C17.8625 44.375 19.475 42.775 19.475 40.7875C19.475 38.8125 17.875 37.2 15.8875 37.2C13.9125 37.2 12.3 38.8 12.3 40.7875ZM15.8875 38.45C17.175 38.45 18.225 39.5 18.225 40.7875C18.225 42.075 17.175 43.125 15.8875 43.125C14.6 43.125 13.55 42.075 13.55 40.7875C13.55 39.5 14.6 38.45 15.8875 38.45Z" fill="#56BD9A"/>
<path d="M34.1375 44.375C36.1125 44.375 37.725 42.775 37.725 40.7875C37.725 38.8125 36.125 37.2 34.1375 37.2C32.1625 37.2 30.55 38.8 30.55 40.7875C30.55 42.7625 32.15 44.375 34.1375 44.375ZM34.1375 38.45C35.425 38.45 36.475 39.5 36.475 40.7875C36.475 42.075 35.425 43.125 34.1375 43.125C32.85 43.125 31.8 42.075 31.8 40.7875C31.8 39.5 32.85 38.45 34.1375 38.45Z" fill="#56BD9A"/>
<path d="M32.15 20.65C31.8 20.65 31.475 20.7 31.15 20.775C30.25 18.2375 27.85 16.4125 25 16.4125C22.15 16.4125 19.75 18.2375 18.85 20.775C18.525 20.7 18.2 20.65 17.85 20.65C15.4 20.65 13.425 22.625 13.425 25.075C13.425 27.525 15.4 29.5 17.85 29.5H32.1375C34.5875 29.5 36.5625 27.5125 36.5625 25.075C36.5625 22.6375 34.5875 20.65 32.1375 20.65H32.15ZM32.15 28.25H17.8625C16.1125 28.25 14.6875 26.825 14.6875 25.075C14.6875 23.325 16.1125 21.9 17.8625 21.9C18.275 21.9 18.675 21.975 19.025 22.125C19.1875 22.1875 19.3875 22.1875 19.5375 22.1C19.7 22.0125 19.8125 21.875 19.8625 21.6875C20.425 19.375 22.5125 17.6625 25 17.6625C27.4875 17.6625 29.575 19.375 30.1375 21.6875C30.175 21.8625 30.3 22.0125 30.4625 22.1C30.625 22.1875 30.8125 22.1875 30.975 22.125C31.3375 21.9875 31.725 21.9 32.1375 21.9C33.8875 21.9 35.3125 23.325 35.3125 25.075C35.3125 26.825 33.8875 28.25 32.1375 28.25H32.15Z" fill="#56BD9A"/>
<defs>
<linearGradient id="paint0_linear_1_723" x1="15.4426" y1="21.3312" x2="37.3301" y2="21.3312" gradientUnits="userSpaceOnUse">
<stop stop-color="#C9EAFF"/>
<stop offset="1" stop-color="#CAFBEA"/>
</linearGradient>
</defs>
</svg>
