<svg width="50" height="50" viewBox="0 0 50 50" fill="none" xmlns="http://www.w3.org/2000/svg">
<path d="M30.8375 20.05C30.8375 18.4375 30.1875 16.975 29.125 15.925C28.0625 14.8625 26.6125 14.2125 25 14.2125C23.3875 14.2125 21.925 14.8625 20.875 15.925C19.8125 16.9875 19.1625 18.4375 19.1625 20.05C19.1625 21.6625 19.8125 23.125 20.875 24.175C21.9375 25.2375 23.3875 25.8875 25 25.8875C26.6125 25.8875 28.075 25.2375 29.125 24.175C30.1875 23.1125 30.8375 21.6625 30.8375 20.05Z" fill="url(#paint0_linear_1_556)"/>
<path d="M25 43.125C35.0125 43.125 43.125 35.0125 43.125 25C43.125 14.9875 35.0125 6.875 25 6.875C14.9875 6.875 6.875 14.9875 6.875 25C6.875 35.0125 14.9875 43.125 25 43.125ZM13.0625 13.0625C16.1125 10.0125 20.3375 8.125 25 8.125C29.6625 8.125 33.875 10.0125 36.9375 13.0625C39.9875 16.1125 41.875 20.3375 41.875 25C41.875 29.6625 39.9875 33.875 36.9375 36.9375C33.8875 39.9875 29.6625 41.875 25 41.875C20.3375 41.875 16.125 39.9875 13.0625 36.9375C10.0125 33.8875 8.125 29.6625 8.125 25C8.125 20.3375 10.0125 16.125 13.0625 13.0625Z" fill="#56BD9A"/>
<path d="M20.875 24.1875C19.8125 23.125 19.1625 21.675 19.1625 20.0625C19.1625 18.45 19.8125 16.9875 20.875 15.9375C21.9375 14.875 23.3875 14.225 25 14.225C26.6125 14.225 28.075 14.875 29.125 15.9375C30.1875 17 30.8375 18.45 30.8375 20.0625C30.8375 21.675 30.1875 23.1375 29.125 24.1875C28.0625 25.25 26.6125 25.9 25 25.9C26.1125 25.9 27.1875 26.0625 28.2125 26.375C30.5125 25.2 32.0875 22.8125 32.0875 20.0625C32.0875 16.15 28.9125 12.975 25 12.975C21.0875 12.975 17.9125 16.15 17.9125 20.0625C17.9125 22.825 19.4875 25.2 21.7875 26.375C22.8125 26.0625 23.9 25.9 25 25.9C23.3875 25.9 21.925 25.25 20.875 24.1875Z" fill="#56BD9A"/>
<path d="M15.125 33.175C15.4375 33.325 15.8125 33.1875 15.9625 32.875C17.6125 29.375 21.1375 27.15 25.0125 27.15C28.8875 27.15 32.4 29.375 34.0625 32.875C34.2125 33.1875 34.5875 33.325 34.9 33.175C35.2125 33.025 35.35 32.65 35.2 32.3375C33.8125 29.4 31.25 27.2625 28.2375 26.3625C27.2125 26.05 26.125 25.8875 25.025 25.8875C23.925 25.8875 22.8375 26.05 21.8125 26.3625C18.8 27.2625 16.2375 29.4 14.85 32.3375C14.7 32.65 14.8375 33.025 15.15 33.175H15.125Z" fill="#56BD9A"/>
<defs>
<linearGradient id="paint0_linear_1_556" x1="17.5081" y1="21.2213" x2="30.4456" y2="21.2213" gradientUnits="userSpaceOnUse">
<stop stop-color="#C9EAFF"/>
<stop offset="1" stop-color="#CAFBEA"/>
</linearGradient>
</defs>
</svg>
