<svg width="50" height="50" viewBox="0 0 50 50" fill="none" xmlns="http://www.w3.org/2000/svg">
<path d="M26.825 14.325L13.8125 9.125C13.7125 9.275 13.6375 9.4375 13.6375 9.625V35.5875C13.6375 35.95 13.85 36.2625 14.1875 36.4L26.175 41.2L26.5 41.2625C26.675 41.2625 26.8375 41.2125 26.9875 41.1125C27.225 40.95 27.375 40.675 27.375 40.3875V15.1375C27.375 14.775 27.1625 14.4625 26.825 14.325Z" fill="url(#paint0_linear_1_703)"/>
<path d="M19.575 8.75H35.4875C35.975 8.75 36.3625 9.1375 36.3625 9.625V35.1C36.3625 35.5875 35.975 35.975 35.4875 35.975H33.1125V37.225H35.4875C36.6625 37.225 37.6125 36.275 37.6125 35.1V9.625C37.6125 8.45 36.6625 7.5 35.4875 7.5H14.5125C14.1625 7.5 13.8375 7.5875 13.55 7.7375C13.675 7.675 13.8125 7.6375 13.9625 7.6625L19.575 8.7375V8.75Z" fill="#56BD9A"/>
<path d="M25.7125 42.35C25.9625 42.45 26.2375 42.5 26.5 42.5C26.9125 42.5 27.3375 42.375 27.6875 42.1375C28.275 41.7375 28.625 41.0875 28.625 40.3875V40.225H28C27.65 40.225 27.375 39.95 27.375 39.6V40.3875C27.375 40.675 27.225 40.95 26.9875 41.1125C26.8375 41.2125 26.675 41.2625 26.5 41.2625L26.175 41.2L14.1875 36.4C13.85 36.2625 13.6375 35.95 13.6375 35.5875V9.62495C13.6375 9.43745 13.7125 9.26245 13.8125 9.12495L26.825 14.325C27.1625 14.4625 27.375 14.775 27.375 15.1375V39.6C27.375 39.25 27.65 38.975 28 38.975H28.625V15.125C28.625 14.2625 28.1 13.475 27.2875 13.15L19.325 9.96245L13.725 8.88745C13.3875 8.82495 13.1625 8.49995 13.225 8.14995C13.25 7.98745 13.35 7.84995 13.475 7.76245C13.4625 7.76245 13.4375 7.78745 13.425 7.78745C13.3625 7.82495 13.3 7.86245 13.25 7.91245C13.25 7.91245 13.2375 7.91245 13.225 7.92495C12.725 8.31245 12.4 8.91245 12.4 9.59995V35.5625C12.4 36.425 12.925 37.2125 13.7375 37.5375L25.725 42.3375L25.7125 42.35Z" fill="#56BD9A"/>
<path d="M13.725 8.90002L19.325 9.97502L31.1625 12.25C31.575 12.325 31.875 12.6875 31.875 13.1125V38.1C31.875 38.5875 31.4875 38.975 31 38.975H28C27.65 38.975 27.375 39.25 27.375 39.6C27.375 39.95 27.65 40.225 28 40.225H31C32.175 40.225 33.125 39.275 33.125 38.1V13.1125C33.125 12.0875 32.4 11.2125 31.4 11.025L19.575 8.75002L13.9625 7.67502C13.8125 7.65002 13.675 7.67502 13.55 7.75002C13.525 7.76252 13.5 7.77502 13.475 7.78752C13.35 7.87502 13.2625 8.01252 13.225 8.17502C13.1625 8.51252 13.3875 8.83752 13.725 8.91252V8.90002Z" fill="#56BD9A"/>
<defs>
<linearGradient id="paint0_linear_1_703" x1="12.5987" y1="25.453" x2="27.5862" y2="25.453" gradientUnits="userSpaceOnUse">
<stop stop-color="#C9EAFF"/>
<stop offset="1" stop-color="#CAFBEA"/>
</linearGradient>
</defs>
</svg>
