<svg width="50" height="50" viewBox="0 0 50 50" fill="none" xmlns="http://www.w3.org/2000/svg">
<path d="M36.9125 35.8V13.0625L36.1625 13.5625C30.6625 17.225 24.2375 19.2125 17.65 19.3375V29.5375C24.25 29.6625 30.675 31.65 36.1625 35.3125L36.9125 35.8125V35.8Z" fill="url(#paint0_linear_1_586)"/>
<path d="M16.4 30.125V29.5H13.6C12.2 29.5 10.9375 28.9375 10.0125 28.0125C9.0875 27.0875 8.525 25.825 8.525 24.425C8.525 23.025 9.0875 21.7625 10.0125 20.8375C10.9375 19.9125 12.2 19.35 13.6 19.35H16.4V18.725C16.4 18.375 16.675 18.1 17.025 18.1H13.6C10.1125 18.1 7.275 20.9375 7.275 24.425C7.275 27.9125 10.1125 30.75 13.6 30.75H16.425C16.425 30.55 16.3875 30.3375 16.3875 30.1375L16.4 30.125Z" fill="#56BD9A"/>
<path d="M37.1875 37.4875C37.375 37.6125 37.625 37.625 37.825 37.5125C38.025 37.4 38.15 37.1875 38.15 36.9625V11.8875C38.15 11.6625 38.025 11.45 37.825 11.3375C37.625 11.225 37.375 11.2375 37.1875 11.3625L35.4625 12.5125C30 16.15 23.575 18.1 17.0125 18.1C16.6625 18.1 16.3875 18.375 16.3875 18.725V30.125C16.3875 29.775 16.6625 29.5 17.0125 29.5C17.3625 29.5 17.6375 29.775 17.6375 30.125C17.6375 30.35 17.6625 30.5625 17.675 30.775C24.0125 30.9 30.1875 32.8125 35.4625 36.3375L37.1875 37.4875ZM17.65 29.525V19.325C24.25 19.2 30.675 17.2125 36.1625 13.55L36.9125 13.05V35.8L36.1625 35.3C30.6625 31.6375 24.2375 29.65 17.65 29.525Z" fill="#56BD9A"/>
<path d="M41.475 22.15V26.7125C41.475 27.0625 41.75 27.3375 42.1 27.3375C42.45 27.3375 42.725 27.0625 42.725 26.7125V22.15C42.725 21.8 42.45 21.525 42.1 21.525C41.75 21.525 41.475 21.8 41.475 22.15Z" fill="#56BD9A"/>
<path d="M17.65 30.125C17.65 29.775 17.375 29.5 17.025 29.5C16.675 29.5 16.4 29.775 16.4 30.125C16.4 30.3375 16.425 30.55 16.4375 30.75C16.6 33.7125 17.8625 36.5 20.025 38.5625C20.275 38.8 20.675 38.7875 20.9125 38.5375C21.15 38.2875 21.1375 37.8875 20.8875 37.65C18.9875 35.8375 17.8625 33.375 17.7 30.775C17.6875 30.5625 17.6625 30.35 17.6625 30.1375L17.65 30.125Z" fill="#56BD9A"/>
<defs>
<linearGradient id="paint0_linear_1_586" x1="14.7453" y1="25.2865" x2="35.2703" y2="25.2865" gradientUnits="userSpaceOnUse">
<stop stop-color="#C9EAFF"/>
<stop offset="1" stop-color="#CAFBEA"/>
</linearGradient>
</defs>
</svg>
