<svg width="50" height="50" viewBox="0 0 50 50" fill="none" xmlns="http://www.w3.org/2000/svg">
<path d="M41.675 31.4125L23.9625 23.3125L23.7625 23.275C23.575 23.275 23.4 23.375 23.325 23.5625L23.2875 23.7625L23.3375 23.975L31.4375 41.6875C31.525 41.8125 31.65 41.8875 31.8 41.8875L32.025 41.825L32.2125 41.6L34.6 35.0375C34.6625 34.8625 34.8 34.725 34.975 34.6625L41.575 32.25H41.6C41.7875 32.1875 41.9125 32 41.9125 31.8125L41.8875 31.675L41.675 31.425V31.4125Z" fill="url(#paint0_linear_1_661)"/>
<path d="M43.15 31.8C43.15 31.625 43.125 31.45 43.0625 31.275C42.925 30.8625 42.65 30.525 42.2625 30.3125L42.225 30.2875L24.4625 22.175C24.2375 22.075 23.9875 22.025 23.75 22.025C23.0875 22.025 22.4625 22.4 22.175 23.0375C22.075 23.2625 22.025 23.5125 22.025 23.75C22.025 24 22.0875 24.2625 22.2 24.5L30.3375 42.2625L30.375 42.325C30.6875 42.8375 31.25 43.125 31.8125 43.125C32.1125 43.125 32.425 43.0375 32.7 42.875C33.025 42.675 33.275 42.3625 33.4 42L35.6875 35.725L42.025 33.4125C42.725 33.1625 43.175 32.5125 43.175 31.8H43.15ZM41.5875 32.225H41.5625L34.9625 34.65C34.7875 34.7125 34.65 34.85 34.5875 35.025L32.2 41.5875L32.0125 41.8125L31.7875 41.875C31.65 41.875 31.5125 41.8 31.425 41.675L23.325 23.975L23.275 23.75L23.3125 23.55C23.3875 23.375 23.5625 23.2625 23.75 23.2625L23.95 23.3L41.6625 31.4L41.875 31.65L41.9 31.7875C41.9 31.975 41.775 32.15 41.5875 32.2125V32.225Z" fill="#56BD9A"/>
<path d="M6.85 23.875C6.85 32.7 13.675 40.15 22.6125 40.8C23.0125 40.825 23.425 40.8375 23.825 40.8375C24.225 40.8375 24.6375 40.825 25.0375 40.8C25.3875 40.775 25.6375 40.475 25.6125 40.1375C25.5875 39.7875 25.2875 39.5375 24.95 39.5625C24.575 39.5875 24.2 39.6 23.825 39.6C23.45 39.6 23.075 39.5875 22.7 39.5625C14.4125 38.9625 8.1 32.0625 8.1 23.8875C8.1 23.5125 8.1125 23.125 8.1375 22.7375C8.7375 14.45 15.6375 8.1375 23.8125 8.1375C24.1875 8.1375 24.575 8.15 24.9625 8.175C33.25 8.775 39.5625 15.675 39.5625 23.85C39.5625 24.225 39.55 24.6125 39.525 25C39.5 25.35 39.7625 25.6375 40.1 25.6625C40.45 25.6875 40.7375 25.425 40.7625 25.0875C40.7875 24.675 40.8125 24.2625 40.8125 23.85C40.8125 15.025 33.9875 7.575 25.05 6.925C24.6375 6.9 24.225 6.875 23.8125 6.875C14.9875 6.875 7.5375 13.7 6.8875 22.6375C6.8625 23.05 6.8375 23.4625 6.8375 23.875H6.85Z" fill="#56BD9A"/>
<path d="M21.6625 15.425C22.4 15.2375 23.125 15.15 23.85 15.15C27.725 15.15 31.275 17.7625 32.2875 21.6875C32.375 22.025 32.7125 22.225 33.05 22.1375C33.3875 22.05 33.5875 21.7125 33.5 21.375C32.3375 16.875 28.2875 13.9 23.85 13.9C23.025 13.9 22.1875 14 21.35 14.225C16.85 15.3875 13.875 19.4375 13.875 23.875C13.875 24.7 13.975 25.5375 14.2 26.375C15.1125 29.8875 17.85 32.625 21.3625 33.5375C21.7 33.625 22.0375 33.425 22.125 33.0875C22.2125 32.75 22.0125 32.4125 21.675 32.325C18.6 31.5375 16.2 29.1375 15.4125 26.0625C15.225 25.325 15.1375 24.6 15.1375 23.875C15.1375 20 17.75 16.45 21.675 15.4375L21.6625 15.425Z" fill="#56BD9A"/>
<defs>
<linearGradient id="paint0_linear_1_661" x1="23.3537" y1="32.11" x2="43.2287" y2="32.11" gradientUnits="userSpaceOnUse">
<stop stop-color="#C9EAFF"/>
<stop offset="1" stop-color="#CAFBEA"/>
</linearGradient>
</defs>
</svg>
