<svg width="50" height="50" viewBox="0 0 50 50" fill="none" xmlns="http://www.w3.org/2000/svg">
<path d="M9.58828 29.05C8.67578 29.05 7.92578 29.7875 7.92578 30.7125C7.92578 31.625 8.66328 32.375 9.58828 32.375C10.5008 32.375 11.2508 31.6375 11.2508 30.7125C11.2508 29.8 10.5133 29.05 9.58828 29.05Z" fill="url(#paint0_linear_74_47)"/>
<path d="M14.725 37.6125C13.8125 37.6125 13.0625 38.35 13.0625 39.275C13.0625 40.1875 13.8 40.9375 14.725 40.9375C15.6375 40.9375 16.3875 40.2 16.3875 39.275C16.3875 38.3625 15.65 37.6125 14.725 37.6125Z" fill="url(#paint1_linear_74_47)"/>
<path d="M23.3359 40.4125C23.3359 41.325 24.0734 42.075 24.9984 42.075C25.9109 42.075 26.6609 41.3375 26.6609 40.4125C26.6609 39.5 25.9234 38.75 24.9984 38.75C24.0859 38.75 23.3359 39.4875 23.3359 40.4125Z" fill="url(#paint2_linear_74_47)"/>
<path d="M33.6133 39.275C33.6133 40.1875 34.3508 40.9375 35.2758 40.9375C36.1883 40.9375 36.9383 40.2 36.9383 39.275C36.9383 38.3625 36.2008 37.6125 35.2758 37.6125C34.3633 37.6125 33.6133 38.35 33.6133 39.275Z" fill="url(#paint3_linear_74_47)"/>
<path d="M40.4125 29.05C39.5 29.05 38.75 29.7875 38.75 30.7125C38.75 31.625 39.4875 32.375 40.4125 32.375C41.325 32.375 42.075 31.6375 42.075 30.7125C42.075 29.8 41.3375 29.05 40.4125 29.05Z" fill="url(#paint4_linear_74_47)"/>
<path d="M37.5742 30.0875H35.3242V25C35.3242 25.35 35.0492 25.625 34.6992 25.625C34.3492 25.625 34.0742 25.35 34.0742 25V30.7125C34.0742 30.875 34.1367 31.0375 34.2617 31.15C34.3742 31.2625 34.5367 31.3375 34.6992 31.3375H37.5742C37.5242 31.1375 37.4992 30.925 37.4992 30.7125C37.4992 30.5 37.5242 30.2875 37.5742 30.0875Z" fill="#56BD9A"/>
<path d="M43.325 30.7125C43.325 29.1 42.025 27.8 40.4125 27.8C39.025 27.8 37.8625 28.775 37.575 30.0875C37.525 30.2875 37.5 30.5 37.5 30.7125C37.5 30.925 37.525 31.1375 37.575 31.3375C37.8625 32.6375 39.025 33.625 40.4125 33.625C42.025 33.625 43.325 32.325 43.325 30.7125ZM40.4125 32.3625C39.5 32.3625 38.75 31.625 38.75 30.7C38.75 29.7875 39.4875 29.0375 40.4125 29.0375C41.325 29.0375 42.075 29.775 42.075 30.7C42.075 31.6125 41.3375 32.3625 40.4125 32.3625Z" fill="#56BD9A"/>
<path d="M11.2508 30.7125C11.2508 31.625 10.5133 32.375 9.58828 32.375C8.67578 32.375 7.92578 31.6375 7.92578 30.7125C7.92578 29.8 8.66328 29.05 9.58828 29.05C10.5008 29.05 11.2508 29.7875 11.2508 30.7125C11.2508 30.3625 11.5258 30.0875 11.8758 30.0875H12.4258C12.1383 28.7875 10.9758 27.8 9.58828 27.8C7.97578 27.8 6.67578 29.1 6.67578 30.7125C6.67578 32.325 7.97578 33.625 9.58828 33.625C10.9758 33.625 12.1383 32.65 12.4258 31.3375H11.8758C11.5258 31.3375 11.2508 31.0625 11.2508 30.7125Z" fill="#56BD9A"/>
<path d="M15.3 25.625C14.95 25.625 14.675 25.35 14.675 25V30.0875H11.875C11.525 30.0875 11.25 30.3625 11.25 30.7125C11.25 31.0625 11.525 31.3375 11.875 31.3375H15.3C15.4625 31.3375 15.625 31.275 15.7375 31.15C15.85 31.0375 15.925 30.875 15.925 30.7125V25C15.925 25.35 15.65 25.625 15.3 25.625Z" fill="#56BD9A"/>
<path d="M24.9984 38.75C25.9109 38.75 26.6609 39.4875 26.6609 40.4125C26.6609 41.325 25.9234 42.075 24.9984 42.075C24.0859 42.075 23.3359 41.3375 23.3359 40.4125C23.3359 39.5 24.0734 38.75 24.9984 38.75C24.6484 38.75 24.3734 38.475 24.3734 38.125V37.575C23.0734 37.8625 22.0859 39.025 22.0859 40.4125C22.0859 42.025 23.3859 43.325 24.9984 43.325C26.6109 43.325 27.9109 42.025 27.9109 40.4125C27.9109 39.025 26.9359 37.8625 25.6234 37.575V38.125C25.6234 38.475 25.3484 38.75 24.9984 38.75Z" fill="#56BD9A"/>
<path d="M25 25.5125C24.65 25.5125 24.375 25.7875 24.375 26.1375V38.125C24.375 38.475 24.65 38.75 25 38.75C25.35 38.75 25.625 38.475 25.625 38.125V26.1375C25.625 25.7875 25.35 25.5125 25 25.5125Z" fill="#56BD9A"/>
<path d="M15.9508 38.1375C15.6883 37.925 15.6383 37.525 15.8508 37.2625L16.2258 36.7875C15.7883 36.525 15.2758 36.35 14.7133 36.35C13.1008 36.35 11.8008 37.65 11.8008 39.2625C11.8008 40.875 13.1008 42.175 14.7133 42.175C16.3258 42.175 17.6258 40.875 17.6258 39.2625C17.6258 38.6625 17.4383 38.1125 17.1383 37.65L16.8258 38.0375C16.6133 38.3 16.2133 38.35 15.9508 38.1375ZM14.7258 40.925C13.8133 40.925 13.0633 40.1875 13.0633 39.2625C13.0633 38.35 13.8008 37.6 14.7258 37.6C15.6383 37.6 16.3883 38.3375 16.3883 39.2625C16.3883 40.175 15.6508 40.925 14.7258 40.925Z" fill="#56BD9A"/>
<path d="M18.1005 31.275V34.475L16.238 36.7875L15.863 37.2625C15.6505 37.525 15.688 37.925 15.963 38.1375C16.2255 38.35 16.6255 38.3125 16.838 38.0375L17.1505 37.65L19.213 35.0875C19.3005 34.975 19.3505 34.8375 19.3505 34.7V31.5L21.5005 28.8125C21.713 28.5375 21.6755 28.15 21.4005 27.9375C21.1255 27.725 20.738 27.7625 20.5255 28.0375L18.238 30.8875C18.1505 31 18.1005 31.1375 18.1005 31.275Z" fill="#56BD9A"/>
<path d="M34.025 38.175C33.75 38.3875 33.3625 38.35 33.15 38.075L32.85 37.6875C32.55 38.15 32.375 38.6875 32.375 39.275C32.375 40.8875 33.675 42.1875 35.2875 42.1875C36.9 42.1875 38.2 40.8875 38.2 39.275C38.2 37.6625 36.9 36.3625 35.2875 36.3625C34.725 36.3625 34.2 36.525 33.7625 36.8125L34.15 37.3C34.3625 37.575 34.325 37.9625 34.05 38.175H34.025ZM36.9375 39.275C36.9375 40.1875 36.2 40.9375 35.275 40.9375C34.3625 40.9375 33.6125 40.2 33.6125 39.275C33.6125 38.3625 34.35 37.6125 35.275 37.6125C36.1875 37.6125 36.9375 38.35 36.9375 39.275Z" fill="#56BD9A"/>
<path d="M31.7622 30.8875L29.4747 28.0375C29.2622 27.7625 28.8622 27.725 28.5997 27.9375C28.3247 28.15 28.2872 28.55 28.4997 28.8125L30.6497 31.5V34.7C30.6497 34.8375 30.6997 34.975 30.7872 35.0875L32.8372 37.675L33.1372 38.0625C33.3497 38.3375 33.7497 38.375 34.0122 38.1625C34.2747 37.95 34.3247 37.55 34.1122 37.2875L33.7247 36.8L31.8872 34.475V31.2625C31.8872 31.125 31.8372 30.9875 31.7497 30.875L31.7622 30.8875Z" fill="#56BD9A"/>
<path d="M43.3234 22.7125C43.3234 21.7375 42.5359 20.95 41.5609 20.95H40.7609C40.5484 20.95 40.3609 20.825 40.2859 20.625L38.8984 17.2875L38.8609 17.0875C38.8609 16.95 38.9109 16.825 39.0109 16.725L39.5734 16.1625C39.9234 15.825 40.0859 15.3625 40.0859 14.9125C40.0859 14.4625 39.9109 14.0125 39.5734 13.6625L36.3484 10.4375C36.0109 10.0875 35.5484 9.925 35.0984 9.925C34.6484 9.925 34.1984 10.1 33.8484 10.4375L33.2859 11C33.1859 11.1 33.0609 11.15 32.9234 11.15L32.7234 11.1125L29.3859 9.725C29.1984 9.65 29.0609 9.4625 29.0609 9.25V8.45C29.0609 7.475 28.2734 6.6875 27.2984 6.6875H22.7359C21.7609 6.6875 20.9734 7.475 20.9734 8.45V9.25C20.9734 9.4625 20.8484 9.65 20.6484 9.725L17.3109 11.1125L17.1109 11.15C16.9734 11.15 16.8484 11.1 16.7484 11L16.1859 10.4375C15.8484 10.0875 15.3859 9.925 14.9359 9.925C14.4859 9.925 14.0359 10.1 13.6859 10.4375L10.4609 13.6625C10.1109 14 9.94844 14.4625 9.94844 14.9125C9.94844 15.3625 10.1234 15.8125 10.4609 16.1625L11.0234 16.725C11.1234 16.825 11.1734 16.95 11.1734 17.0875L11.1359 17.2875L9.74844 20.625C9.67344 20.8125 9.48594 20.95 9.27344 20.95H8.47344C7.49844 20.95 6.71094 21.7375 6.71094 22.7125V25.5625C6.71094 25.9125 6.98594 26.1875 7.33594 26.1875C7.68594 26.1875 7.96094 25.9125 7.96094 25.5625V22.7125C7.96094 22.425 8.19844 22.2 8.47344 22.2H9.27344C9.98594 22.2 10.6359 21.775 10.9109 21.1125L12.2984 17.775C12.3859 17.5625 12.4359 17.325 12.4359 17.1C12.4359 16.6375 12.2609 16.1875 11.9234 15.85L11.3609 15.2875C11.2609 15.1875 11.2109 15.0625 11.2109 14.925C11.2109 14.7875 11.2609 14.6625 11.3609 14.5625L14.5859 11.3375C14.6859 11.2375 14.8109 11.1875 14.9484 11.1875C15.0859 11.1875 15.2109 11.2375 15.3109 11.3375L15.8734 11.9C16.2109 12.2375 16.6609 12.4125 17.1234 12.4125C17.3484 12.4125 17.5859 12.3625 17.7984 12.275L21.1359 10.8875C21.7984 10.6125 22.2234 9.975 22.2234 9.25V8.45C22.2234 8.1625 22.4609 7.9375 22.7359 7.9375H27.2984C27.5859 7.9375 27.8109 8.175 27.8109 8.45V9.25C27.8109 9.9625 28.2359 10.6125 28.8984 10.8875L32.2359 12.275C32.4484 12.3625 32.6859 12.4125 32.9109 12.4125C33.3734 12.4125 33.8234 12.2375 34.1609 11.9L34.7234 11.3375C34.8234 11.2375 34.9484 11.1875 35.0859 11.1875C35.2234 11.1875 35.3484 11.2375 35.4484 11.3375L38.6734 14.5625C38.7734 14.6625 38.8234 14.7875 38.8234 14.925C38.8234 15.0625 38.7734 15.1875 38.6734 15.2875L38.1109 15.85C37.7734 16.1875 37.5984 16.6375 37.5984 17.1C37.5984 17.325 37.6484 17.5625 37.7359 17.775L39.1234 21.1125C39.3984 21.775 40.0359 22.2 40.7609 22.2H41.5609C41.8484 22.2 42.0734 22.4375 42.0734 22.7125V25.5625C42.0734 25.9125 42.3484 26.1875 42.6984 26.1875C43.0484 26.1875 43.3234 25.9125 43.3234 25.5625V22.7125Z" fill="#56BD9A"/>
<path d="M34.7008 25.625C35.0508 25.625 35.3258 25.35 35.3258 25C35.3258 19.3 30.7008 14.675 25.0008 14.675C19.3008 14.675 14.6758 19.3 14.6758 25C14.6758 25.35 14.9508 25.625 15.3008 25.625C15.6508 25.625 15.9258 25.35 15.9258 25C15.9258 22.4875 16.9383 20.225 18.5883 18.575C20.2383 16.925 22.5008 15.9125 25.0133 15.9125C27.5258 15.9125 29.7883 16.925 31.4383 18.575C33.0883 20.225 34.1008 22.4875 34.1008 25C34.1008 25.35 34.3758 25.625 34.7258 25.625H34.7008Z" fill="#56BD9A"/>
<path d="M25 20.375C22.45 20.375 20.375 22.4375 20.375 25C20.375 25.35 20.65 25.625 21 25.625C21.35 25.625 21.625 25.35 21.625 25C21.625 23.1375 23.1375 21.6375 25 21.625C26.8625 21.625 28.3625 23.1375 28.375 25C28.375 25.35 28.65 25.625 29 25.625C29.35 25.625 29.625 25.35 29.625 25C29.625 22.45 27.5625 20.375 25 20.375Z" fill="#56BD9A"/>
<defs>
<linearGradient id="paint0_linear_74_47" x1="7.47291" y1="29.9085" x2="42.8604" y2="29.9085" gradientUnits="userSpaceOnUse">
<stop stop-color="#C9EAFF"/>
<stop offset="1" stop-color="#CAFBEA"/>
</linearGradient>
<linearGradient id="paint1_linear_74_47" x1="3487.12" y1="38.4015" x2="3522.51" y2="38.4015" gradientUnits="userSpaceOnUse">
<stop stop-color="#C9EAFF"/>
<stop offset="1" stop-color="#CAFBEA"/>
</linearGradient>
<linearGradient id="paint2_linear_74_47" x1="3487.12" y1="39.4631" x2="3522.51" y2="39.4631" gradientUnits="userSpaceOnUse">
<stop stop-color="#C9EAFF"/>
<stop offset="1" stop-color="#CAFBEA"/>
</linearGradient>
<linearGradient id="paint3_linear_74_47" x1="3487.13" y1="38.4015" x2="3522.51" y2="38.4015" gradientUnits="userSpaceOnUse">
<stop stop-color="#C9EAFF"/>
<stop offset="1" stop-color="#CAFBEA"/>
</linearGradient>
<linearGradient id="paint4_linear_74_47" x1="7.47213" y1="29.9085" x2="42.8596" y2="29.9085" gradientUnits="userSpaceOnUse">
<stop stop-color="#C9EAFF"/>
<stop offset="1" stop-color="#CAFBEA"/>
</linearGradient>
</defs>
</svg>
