<svg width="50" height="50" viewBox="0 0 50 50" fill="none" xmlns="http://www.w3.org/2000/svg">
<path d="M46.55 22.875C46.55 19.825 44.075 17.35 41.0125 17.35C40.525 17.35 40.0625 17.4375 39.6125 17.55C38.525 14.2625 35.45 11.8875 31.7875 11.875C29.8 11.875 27.975 12.5875 26.55 13.7625C26.875 14.025 27.175 14.3125 27.4625 14.625C28.65 13.6875 30.15 13.125 31.7875 13.125C35.0875 13.125 37.85 15.4 38.6 18.4625C38.6375 18.6375 38.7625 18.7875 38.925 18.875C39.0875 18.9625 39.275 18.9625 39.4375 18.9C39.925 18.7125 40.45 18.6 41.0125 18.6C43.375 18.6 45.2875 20.5125 45.3 22.875C45.3 25.0125 43.725 26.7625 41.675 27.0875C41.8875 27.4625 42.0625 27.8625 42.2 28.275C44.6875 27.725 46.5375 25.525 46.5375 22.875H46.55Z" fill="#56BD9A"/>
<path d="M18.2875 22.875C18.2875 20.5125 20.2 18.6 22.575 18.6C23.1375 18.6 23.6625 18.7 24.15 18.9C24.3125 18.9625 24.5125 18.9625 24.6625 18.875C24.825 18.7875 24.9375 18.65 24.9875 18.4625C25.2625 17.3375 25.8125 16.325 26.5625 15.4875C26.275 15.175 25.975 14.8875 25.65 14.6375C24.9 15.475 24.3375 16.475 23.975 17.5625C23.525 17.4375 23.05 17.3625 22.5625 17.3625C19.5 17.3625 17.025 19.8375 17.025 22.8875C17.025 25.95 19.5 28.425 22.5625 28.425H28.8625C29 27.9875 29.1875 27.575 29.4 27.175H22.5625C20.2 27.175 18.2875 25.2625 18.275 22.8875L18.2875 22.875Z" fill="#56BD9A"/>
<path d="M34.825 20.675C33.9 19.75 32.6375 19.1875 31.2375 19.1875C30.575 19.1875 29.95 19.3125 29.375 19.5375C29.2125 19.6 29.0125 19.5999 28.8625 19.5124C28.7 19.4249 28.5875 19.2874 28.5375 19.0999C28.2 17.7249 27.5125 16.475 26.575 15.475C26.2875 15.1625 25.9875 14.875 25.6625 14.625C24.25 13.5 22.4625 12.825 20.525 12.8375C16.65 12.8375 13.3875 15.5124 12.5125 19.1125C12.475 19.2875 12.35 19.4375 12.1875 19.525C12.025 19.6125 11.8375 19.6125 11.675 19.55C11.1 19.325 10.475 19.1999 9.81249 19.1999C8.41249 19.1999 7.13749 19.7624 6.22499 20.6874C5.29999 21.6124 4.73749 22.875 4.73749 24.275C4.73749 25.675 5.29999 26.95 6.22499 27.8625C7.14999 28.7875 8.41249 29.3499 9.81249 29.3499H28.675C28.725 29.0249 28.8 28.7124 28.9 28.4124C29.0375 27.9749 29.225 27.5624 29.4375 27.1624C30.6375 24.9999 32.9375 23.5249 35.6 23.5249C35.825 23.5249 36.05 23.5375 36.275 23.5625C36.1125 22.45 35.625 21.4499 34.8625 20.6874L34.825 20.675Z" fill="url(#paint0_linear_1_648)"/>
<path d="M28.6375 29.3375H9.77501C8.37501 29.3375 7.10001 28.775 6.18751 27.85C5.26251 26.925 4.70001 25.6625 4.70001 24.2625C4.70001 22.8625 5.26251 21.5875 6.18751 20.675C7.11251 19.75 8.37501 19.1875 9.77501 19.1875C10.4375 19.1875 11.0625 19.3125 11.6375 19.5375C11.8 19.6 12 19.6 12.15 19.5125C12.3125 19.425 12.425 19.2875 12.475 19.1C13.3625 15.5 16.6125 12.825 20.4875 12.825C22.425 12.825 24.2125 13.5 25.625 14.6125C25.95 14.875 26.25 15.1625 26.5375 15.4625C27.475 16.475 28.1625 17.7125 28.5 19.0875C28.5375 19.2625 28.6625 19.4125 28.825 19.5C28.9875 19.5875 29.175 19.5875 29.3375 19.525C29.9125 19.3 30.5375 19.175 31.2 19.175C32.6 19.175 33.875 19.7375 34.7875 20.6625C35.55 21.425 36.05 22.425 36.2 23.5375C36.6375 23.575 37.0625 23.6625 37.475 23.7875C37.2375 20.5125 34.525 17.925 31.1875 17.925C30.6 17.925 30.05 18.025 29.5125 18.175C29.0875 16.825 28.3625 15.6125 27.425 14.6125C27.1375 14.3 26.8375 14.025 26.5125 13.75C24.8625 12.3875 22.7625 11.575 20.4625 11.575C16.225 11.575 12.6375 14.35 11.4125 18.1875C10.875 18.0375 10.325 17.9375 9.73751 17.9375C6.23751 17.9375 3.41251 20.775 3.41251 24.2625C3.41251 27.7625 6.25001 30.5875 9.73751 30.5875H28.4875C28.4875 30.5875 28.4875 30.5625 28.4875 30.5375C28.4875 30.125 28.525 29.725 28.6 29.3375H28.6375Z" fill="#56BD9A"/>
<path d="M37.5125 23.8C37.1 23.6875 36.675 23.6 36.2375 23.55C36.0125 23.525 35.7875 23.5125 35.5625 23.5125C32.9125 23.5125 30.6 24.9875 29.4 27.15C29.1875 27.55 29 27.9625 28.8625 28.4C28.7625 28.7 28.6875 29.0125 28.6375 29.3375C28.575 29.725 28.525 30.125 28.525 30.5375C28.525 30.55 28.525 30.5625 28.525 30.5875C28.55 34.45 31.6875 37.575 35.55 37.575C37.2625 37.575 38.8375 36.9625 40.0625 35.9375L39.675 35.55C39.425 35.3 39.425 34.9125 39.675 34.6625C39.925 34.4125 40.3125 34.4125 40.5625 34.6625L40.95 35.05C41.975 33.825 42.5875 32.2625 42.5875 30.5375C42.5875 29.7375 42.45 28.975 42.2 28.2625C42.0625 27.85 41.8875 27.45 41.675 27.075C40.775 25.5 39.2875 24.3 37.5125 23.7875V23.8ZM39.65 34.6375C38.6 35.6875 37.1625 36.325 35.5625 36.325C33.9625 36.325 32.525 35.675 31.475 34.6375C30.425 33.5875 29.7875 32.15 29.7875 30.55C29.7875 28.95 30.4375 27.5125 31.475 26.4625C32.525 25.4125 33.9625 24.775 35.5625 24.775C37.1625 24.775 38.6 25.425 39.65 26.4625C40.7 27.5125 41.3375 28.95 41.3375 30.55C41.3375 32.15 40.6875 33.5875 39.65 34.6375Z" fill="#56BD9A"/>
<path d="M39.675 34.6625C39.425 34.9125 39.425 35.3 39.675 35.55L40.0625 35.9375L44.2625 40.1375C44.5125 40.3875 44.9 40.3875 45.15 40.1375C45.4 39.8875 45.4 39.5 45.15 39.25L40.95 35.05L40.5625 34.6625C40.3125 34.4125 39.925 34.4125 39.675 34.6625Z" fill="#56BD9A"/>
<defs>
<linearGradient id="paint0_linear_1_648" x1="-28.35" y1="21.0874" x2="55.4375" y2="21.0874" gradientUnits="userSpaceOnUse">
<stop stop-color="#C9EAFF"/>
<stop offset="1" stop-color="#CAFBEA"/>
</linearGradient>
</defs>
</svg>
