<svg width="50" height="50" viewBox="0 0 50 50" fill="none" xmlns="http://www.w3.org/2000/svg">
<path d="M25.525 30.9875L31.2375 28.9625V21.475L26.775 23.05L25.525 23.5V30.9875Z" fill="url(#paint0_linear_1_593)"/>
<path d="M18.7625 28.9625L24.275 30.975V23.4875L18.7625 21.4875V28.9625Z" fill="url(#paint1_linear_1_593)"/>
<path d="M30.075 20.5625L25.1 18.6L19.925 20.575L24.9 22.3875L30.075 20.5625Z" fill="url(#paint2_linear_1_593)"/>
<path d="M17.775 20.0875C17.775 20.0875 17.7125 20.1625 17.675 20.2C17.725 20.1375 17.7875 20.0875 17.8625 20.05C17.8375 20.0625 17.8 20.0625 17.775 20.0875Z" fill="#56BD9A"/>
<path d="M24.275 31.8625V30.975L18.7625 28.975V21.4875L24.275 23.4875L17.925 21.175C17.675 21.0875 17.5125 20.85 17.5125 20.5875V29.4C17.5125 29.6625 17.675 29.9 17.925 29.9875L24.6875 32.45C24.6875 32.45 24.7375 32.45 24.75 32.45C24.675 32.4375 24.6 32.4125 24.5375 32.3625C24.375 32.25 24.275 32.05 24.275 31.85V31.8625Z" fill="#56BD9A"/>
<path d="M24.9 22.3875L19.925 20.575L24.9 22.3875Z" fill="#56BD9A"/>
<path d="M32.225 20.0875C32.225 20.0875 32.1625 20.0625 32.1375 20.05C32.2125 20.0875 32.275 20.1375 32.325 20.2C32.2875 20.1625 32.2625 20.1125 32.225 20.0875Z" fill="#56BD9A"/>
<path d="M32.4875 29.4V20.5875C32.4875 20.475 32.45 20.3625 32.3875 20.275C32.45 20.375 32.4875 20.4875 32.4875 20.6C32.4875 20.8625 32.3125 21.0875 32.075 21.175L26.7875 23.0375L31.25 21.4625V28.95L25.5375 30.9625V23.475L25.125 23.625C24.9875 23.675 24.8375 23.675 24.7 23.625L24.2875 23.475V31.85C24.2875 32.05 24.3875 32.2375 24.55 32.3625C24.6125 32.4125 24.6875 32.425 24.7625 32.45C24.8125 32.45 24.8625 32.4625 24.9125 32.4625C24.9625 32.4625 25.0125 32.4625 25.0625 32.45C25.0875 32.45 25.1 32.45 25.125 32.45L32.0875 29.9875C32.3375 29.9 32.5 29.6625 32.5 29.4H32.4875Z" fill="#56BD9A"/>
<path d="M24.9 22.3875L30.075 20.5625L24.9 22.3875Z" fill="#56BD9A"/>
<path d="M17.925 21.1875L24.275 23.5L24.6875 23.65C24.825 23.7 24.975 23.7 25.1125 23.65L25.525 23.5L26.7875 23.0625L32.075 21.2C32.325 21.1125 32.4875 20.8875 32.4875 20.625C32.4875 20.5 32.45 20.4 32.3875 20.3C32.375 20.275 32.35 20.25 32.325 20.225C32.275 20.1625 32.2125 20.1125 32.1375 20.075C32.125 20.075 32.1125 20.05 32.0875 20.0375L25.325 17.375C25.175 17.3125 25.025 17.3125 24.875 17.375L17.9125 20.0375C17.9125 20.0375 17.8875 20.0625 17.8625 20.075C17.7875 20.1125 17.725 20.1625 17.675 20.225C17.65 20.25 17.625 20.275 17.6125 20.3C17.55 20.4 17.5125 20.5125 17.5125 20.625C17.5125 20.8875 17.675 21.1125 17.925 21.2125V21.1875ZM25.1 18.6L30.075 20.5625L24.9 22.3875L19.925 20.575L25.1 18.6Z" fill="#56BD9A"/>
<path d="M24.9 16.3C25.25 16.3 25.525 16.025 25.525 15.675V11.3125C25.325 11.3625 25.1125 11.3875 24.9 11.3875C24.6875 11.3875 24.475 11.3625 24.275 11.3125V15.675C24.275 16.025 24.55 16.3 24.9 16.3Z" fill="#56BD9A"/>
<path d="M25.525 11.3125C26.8125 11.025 27.775 9.875 27.775 8.5C27.775 6.9125 26.4875 5.625 24.9 5.625C23.3125 5.625 22.025 6.9125 22.025 8.5C22.025 9.875 22.9875 11.025 24.275 11.3125C24.475 11.3625 24.6875 11.3875 24.9 11.3875C25.1125 11.3875 25.325 11.3625 25.525 11.3125ZM23.2625 8.5C23.2625 7.6 23.9875 6.875 24.8875 6.875C25.7875 6.875 26.5125 7.6 26.5125 8.5C26.5125 9.4 25.7875 10.125 24.8875 10.125C23.9875 10.125 23.2625 9.4 23.2625 8.5Z" fill="#56BD9A"/>
<path d="M38.9 24.475H34.5375C34.1875 24.475 33.9125 24.75 33.9125 25.1C33.9125 25.45 34.1875 25.725 34.5375 25.725H38.9C38.85 25.525 38.825 25.3125 38.825 25.1C38.825 24.8875 38.85 24.675 38.9 24.475Z" fill="#56BD9A"/>
<path d="M41.7 22.225C40.325 22.225 39.175 23.1875 38.8875 24.475C38.8375 24.675 38.8125 24.8875 38.8125 25.1C38.8125 25.3125 38.8375 25.525 38.8875 25.725C39.175 27.0125 40.325 27.975 41.7 27.975C43.2875 27.975 44.575 26.6875 44.575 25.1C44.575 23.5125 43.2875 22.225 41.7 22.225ZM41.7 26.7375C40.8 26.7375 40.075 26.0125 40.075 25.1125C40.075 24.2125 40.8 23.4875 41.7 23.4875C42.6 23.4875 43.325 24.2125 43.325 25.1125C43.325 26.0125 42.6 26.7375 41.7 26.7375Z" fill="#56BD9A"/>
<path d="M24.9 33.7C24.55 33.7 24.275 33.975 24.275 34.325V38.6875C24.475 38.6375 24.6875 38.6125 24.9 38.6125C25.1125 38.6125 25.325 38.6375 25.525 38.6875V34.325C25.525 33.975 25.25 33.7 24.9 33.7Z" fill="#56BD9A"/>
<path d="M24.275 38.6876C22.9875 38.9751 22.025 40.1251 22.025 41.5001C22.025 43.0876 23.3125 44.375 24.9 44.375C26.4875 44.375 27.775 43.0876 27.775 41.5001C27.775 40.1251 26.8125 38.9751 25.525 38.6876C25.325 38.6376 25.1125 38.6125 24.9 38.6125C24.6875 38.6125 24.475 38.6376 24.275 38.6876ZM26.525 41.5001C26.525 42.4001 25.8 43.125 24.9 43.125C24 43.125 23.275 42.4001 23.275 41.5001C23.275 40.6001 24 39.875 24.9 39.875C25.8 39.875 26.525 40.6001 26.525 41.5001Z" fill="#56BD9A"/>
<path d="M11.1 25.725H15.4625C15.8125 25.725 16.0875 25.45 16.0875 25.1C16.0875 24.75 15.8125 24.475 15.4625 24.475H11.1C11.15 24.675 11.175 24.8875 11.175 25.1C11.175 25.3125 11.15 25.525 11.1 25.725Z" fill="#56BD9A"/>
<path d="M11.1 25.725C11.15 25.525 11.175 25.3125 11.175 25.1C11.175 24.8875 11.15 24.675 11.1 24.475C10.8125 23.1875 9.6625 22.225 8.2875 22.225C6.7 22.225 5.4125 23.5125 5.4125 25.1C5.4125 26.6875 6.7 27.975 8.2875 27.975C9.6625 27.975 10.8125 27.0125 11.1 25.725ZM6.675 25.1C6.675 24.2 7.4 23.475 8.3 23.475C9.2 23.475 9.925 24.2 9.925 25.1C9.925 26 9.2 26.725 8.3 26.725C7.4 26.725 6.675 26 6.675 25.1Z" fill="#56BD9A"/>
<path d="M16.3125 17.4L17.6875 18.775C17.9375 19.025 18.325 19.025 18.575 18.775C18.825 18.525 18.825 18.1375 18.575 17.8875L17.2 16.5125C16.95 16.85 16.6625 17.15 16.3125 17.4Z" fill="#56BD9A"/>
<path d="M14.0375 10.3375C11.8875 10.3375 10.1375 12.0875 10.1375 14.2375C10.1375 16.3875 11.8875 18.1375 14.0375 18.1375C14.8875 18.1375 15.675 17.8625 16.3125 17.3875C16.65 17.1375 16.95 16.85 17.2 16.5C17.6625 15.8625 17.9375 15.075 17.95 14.225C17.95 12.075 16.2 10.325 14.05 10.325L14.0375 10.3375ZM14.0375 16.9C12.575 16.9 11.3875 15.7125 11.3875 14.25C11.3875 12.7875 12.575 11.6 14.0375 11.6C15.5 11.6 16.6875 12.7875 16.6875 14.25C16.6875 15.7125 15.5 16.9 14.0375 16.9Z" fill="#56BD9A"/>
<path d="M32.8 16.1125L31.425 17.4875C31.175 17.7375 31.175 18.125 31.425 18.375C31.675 18.625 32.0625 18.625 32.3125 18.375L33.6875 17C33.35 16.75 33.05 16.4625 32.8 16.1125Z" fill="#56BD9A"/>
<path d="M39.8625 13.8375C39.8625 11.6875 38.1125 9.9375 35.9625 9.9375C33.8125 9.9375 32.0625 11.6875 32.0625 13.8375C32.0625 14.6875 32.3375 15.475 32.8125 16.1125C33.0625 16.45 33.35 16.75 33.7 17C34.3375 17.4625 35.125 17.7375 35.975 17.75C38.125 17.75 39.875 16 39.875 13.85L39.8625 13.8375ZM33.3125 13.8375C33.3125 12.375 34.5 11.1875 35.9625 11.1875C37.425 11.1875 38.6125 12.375 38.6125 13.8375C38.6125 15.3 37.425 16.4875 35.9625 16.4875C34.5 16.4875 33.3125 15.3 33.3125 13.8375Z" fill="#56BD9A"/>
<path d="M33.6875 33.0125L32.3125 31.6375C32.0625 31.3875 31.675 31.3875 31.425 31.6375C31.175 31.8875 31.175 32.275 31.425 32.525L32.8 33.9C33.05 33.5625 33.3375 33.2625 33.6875 33.0125Z" fill="#56BD9A"/>
<path d="M35.9625 40.075C38.1125 40.075 39.8625 38.325 39.8625 36.175C39.8625 34.025 38.1125 32.275 35.9625 32.275C35.1125 32.275 34.325 32.55 33.6875 33.025C33.35 33.275 33.05 33.5625 32.8 33.9125C32.3375 34.55 32.0625 35.3375 32.05 36.1875C32.05 38.3375 33.8 40.0875 35.95 40.0875L35.9625 40.075ZM35.9625 33.5125C37.425 33.5125 38.6125 34.7 38.6125 36.1625C38.6125 37.625 37.425 38.8125 35.9625 38.8125C34.5 38.8125 33.3125 37.625 33.3125 36.1625C33.3125 34.7 34.5 33.5125 35.9625 33.5125Z" fill="#56BD9A"/>
<path d="M18.575 31.425C18.325 31.175 17.9375 31.175 17.6875 31.425L16.3125 32.8C16.65 33.05 16.95 33.3376 17.2 33.6876L18.575 32.3126C18.825 32.0626 18.825 31.675 18.575 31.425Z" fill="#56BD9A"/>
<path d="M16.3125 32.8C15.675 32.3375 14.8875 32.0625 14.0375 32.05C11.8875 32.05 10.1375 33.8 10.1375 35.95C10.1375 38.1 11.8875 39.85 14.0375 39.85C16.1875 39.85 17.9375 38.1 17.9375 35.95C17.9375 35.1 17.6625 34.3126 17.1875 33.6751C16.9375 33.3376 16.65 33.0375 16.3 32.7875L16.3125 32.8ZM14.0375 38.6125C12.575 38.6125 11.3875 37.4251 11.3875 35.9626C11.3875 34.5001 12.575 33.3125 14.0375 33.3125C15.5 33.3125 16.6875 34.5001 16.6875 35.9626C16.6875 37.4251 15.5 38.6125 14.0375 38.6125Z" fill="#56BD9A"/>
<defs>
<linearGradient id="paint0_linear_1_593" x1="19.6658" y1="24.5852" x2="33.3907" y2="24.5852" gradientUnits="userSpaceOnUse">
<stop stop-color="#C9EAFF"/>
<stop offset="1" stop-color="#CAFBEA"/>
</linearGradient>
<linearGradient id="paint1_linear_1_593" x1="4777.16" y1="24.5853" x2="4790.89" y2="24.5853" gradientUnits="userSpaceOnUse">
<stop stop-color="#C9EAFF"/>
<stop offset="1" stop-color="#CAFBEA"/>
</linearGradient>
<linearGradient id="paint2_linear_1_593" x1="4777.16" y1="18.958" x2="4790.89" y2="18.958" gradientUnits="userSpaceOnUse">
<stop stop-color="#C9EAFF"/>
<stop offset="1" stop-color="#CAFBEA"/>
</linearGradient>
</defs>
</svg>
