<?xml version="1.0" encoding="UTF-8"?>
<svg width="192px" height="50px" viewBox="0 0 192 50" version="1.1" xmlns="http://www.w3.org/2000/svg" xmlns:xlink="http://www.w3.org/1999/xlink">
    <title>Group 17</title>
    <defs>
        <path d="M50.8646051,0 C46.202951,0 42.1827124,2.78785531 40.3040308,6.82092877 L40.3040308,6.82092877 L11.6891854,6.82092877 C5.23296964,6.82092877 0,12.1708876 0,18.7714396 L0,18.7714396 L0,19.5364873 C0,26.1352477 5.23296964,31.4887899 11.6891854,31.4887899 L11.6891854,31.4887899 L62.7623382,31.4887899 C64.840805,34.8016077 68.4719882,37 72.6078919,37 L72.6078919,37 L143.310815,37 C149.76703,37 155,31.6482495 155,25.0494891 L155,25.0494891 L155,24.2826498 C155,17.6838894 149.76703,12.3321389 143.310815,12.3321389 L143.310815,12.3321389 L118.38148,12.3321389 L118.38148,11.9505109 C118.38148,5.34995884 113.14851,0 106.692295,0 L106.692295,0 L50.8646051,0 Z" id="path-1"></path>
        <linearGradient x1="100.000321%" y1="49.9991511%" x2="-0.000170388377%" y2="49.9991511%" id="linearGradient-3">
            <stop stop-color="#56BC9A" offset="0%"></stop>
            <stop stop-color="#0E5DA0" offset="100%"></stop>
        </linearGradient>
    </defs>
    <g id="Round-Three-Design" stroke="none" stroke-width="1" fill="none" fill-rule="evenodd">
        <g id="CADO-Blog-R3" transform="translate(-248, -2540)">
            <g id="Group-17" transform="translate(248, 2540)">
                <g id="Group-49-Copy">
                    <mask id="mask-2" fill="white">
                        <use xlink:href="#path-1"></use>
                    </mask>
                    <g id="Clip-48"></g>
                    <path d="M50.8646051,0 C46.202951,0 42.1827124,2.78785531 40.3040308,6.82092877 L40.3040308,6.82092877 L11.6891854,6.82092877 C5.23296964,6.82092877 0,12.1708876 0,18.7714396 L0,18.7714396 L0,19.5364873 C0,26.1352477 5.23296964,31.4887899 11.6891854,31.4887899 L11.6891854,31.4887899 L62.7623382,31.4887899 C64.840805,34.8016077 68.4719882,37 72.6078919,37 L72.6078919,37 L143.310815,37 C149.76703,37 155,31.6482495 155,25.0494891 L155,25.0494891 L155,24.2826498 C155,17.6838894 149.76703,12.3321389 143.310815,12.3321389 L143.310815,12.3321389 L118.38148,12.3321389 L118.38148,11.9505109 C118.38148,5.34995884 113.14851,0 106.692295,0 L106.692295,0 L50.8646051,0 Z" id="Fill-47" fill="url(#linearGradient-3)" mask="url(#mask-2)"></path>
                </g>
                <g id="Group-54-Copy" transform="translate(12, 12)" stroke-width="1.49999985">
                    <path d="M143.208896,12.3215201 L118.297291,12.3215201 L118.297291,11.9384862 C118.297291,5.34636558 113.068043,0 106.616418,0 L50.8266805,0 C46.1700929,0 42.1527134,2.78505016 40.2753678,6.81406554 L11.6808724,6.81406554 C5.22924811,6.81406554 0,12.1604311 0,18.7525518 L0,19.5186196 C0,26.1107402 5.22924811,31.4571058 11.6808724,31.4571058 L62.7177035,31.4571058 C64.7946922,34.7665902 68.4232931,36.9627705 72.5562554,36.9627705 L143.208896,36.9627705 C149.660521,36.9627705 154.889769,31.6181948 154.889769,25.0242843 L154.889769,24.2600064 C154.889769,17.6660958 149.660521,12.3215201 143.208896,12.3215201 Z" id="Stroke-50" stroke="#A5F8CE"></path>
                    <path d="M179,30.8392399 C179,34.241798 176.301316,37 172.97218,37 C169.643043,37 166.944359,34.241798 166.944359,30.8392399 C166.944359,27.4366819 169.643043,24.6784799 172.97218,24.6784799 C176.301316,24.6784799 179,27.4366819 179,30.8392399 Z" id="Stroke-52" stroke="#CDFEED"></path>
                </g>
            </g>
        </g>
    </g>
</svg>