<?xml version="1.0" encoding="UTF-8"?>
<svg width="274px" height="70px" viewBox="0 0 274 70" version="1.1" xmlns="http://www.w3.org/2000/svg" xmlns:xlink="http://www.w3.org/1999/xlink">
    <title>Group 6 Copy</title>
    <defs>
        <path d="M72.5230821,0 C65.8764656,0 60.1418848,3.91806692 57.4657471,9.58617016 L57.4657471,9.58617016 L16.6665159,9.58617016 C7.46120188,9.58617016 0,17.1050312 0,26.3814827 L0,26.3814827 L0,27.4566849 C0,36.7306184 7.46120188,44.2545155 16.6665159,44.2545155 L16.6665159,44.2545155 L89.4869467,44.2545155 C92.4504381,48.9103675 97.6278026,52 103.524801,52 L103.524801,52 L204.333484,52 C213.538798,52 221,44.4786209 221,35.2046874 L221,35.2046874 L221,34.1269672 C221,24.8530338 213.538798,17.3316546 204.333484,17.3316546 L204.333484,17.3316546 L168.789078,17.3316546 L168.789078,16.7953126 C168.789078,7.51886107 161.327876,0 152.122562,0 L152.122562,0 L72.5230821,0 Z" id="path-1"></path>
        <linearGradient x1="100.000166%" y1="49.9991511%" x2="-0.000325626095%" y2="49.9991511%" id="linearGradient-3">
            <stop stop-color="#C8E9FF" offset="0%"></stop>
            <stop stop-color="#CAFBE9" offset="100%"></stop>
        </linearGradient>
    </defs>
    <g id="Round-Three-Design" stroke="none" stroke-width="1" fill="none" fill-rule="evenodd">
        <g id="CADO-Blog-R3" transform="translate(-1282, -816)">
            <g id="Group-2" transform="translate(1282, 816)">
                <g id="Group-8">
                    <mask id="mask-2" fill="white">
                        <use xlink:href="#path-1"></use>
                    </mask>
                    <g id="Clip-7"></g>
                    <path d="M72.5230821,0 C65.8764656,0 60.1418848,3.91806692 57.4657471,9.58617016 L57.4657471,9.58617016 L16.6665159,9.58617016 C7.46120188,9.58617016 0,17.1050312 0,26.3814827 L0,26.3814827 L0,27.4566849 C0,36.7306184 7.46120188,44.2545155 16.6665159,44.2545155 L16.6665159,44.2545155 L89.4869467,44.2545155 C92.4504381,48.9103675 97.6278026,52 103.524801,52 L103.524801,52 L204.333484,52 C213.538798,52 221,44.4786209 221,35.2046874 L221,35.2046874 L221,34.1269672 C221,24.8530338 213.538798,17.3316546 204.333484,17.3316546 L204.333484,17.3316546 L168.789078,17.3316546 L168.789078,16.7953126 C168.789078,7.51886107 161.327876,0 152.122562,0 L152.122562,0 L72.5230821,0 Z" id="Fill-6" fill="url(#linearGradient-3)" mask="url(#mask-2)"></path>
                </g>
                <g id="Group-13" transform="translate(17, 17)" stroke="#56BD9A" stroke-width="1.875">
                    <path d="M204.812924,17.316731 L169.185118,17.316731 L169.185118,16.7784131 C169.185118,7.51381109 161.706409,0 152.479496,0 L72.6907427,0 C66.0310354,0 60.2855038,3.91412456 57.6005823,9.57652454 L16.7056215,9.57652454 C7.47870853,9.57652454 0,17.0903356 0,26.3549376 L0,27.4315734 C0,36.6961755 7.47870853,44.2099866 16.7056215,44.2099866 L89.6969151,44.2099866 C92.66736,48.8611538 97.8568724,51.9476775 103.767707,51.9476775 L204.812924,51.9476775 C214.039837,51.9476775 221.518545,44.4363819 221.518545,35.1692644 L221.518545,34.0951441 C221.518545,24.8280266 214.039837,17.316731 204.812924,17.316731 Z" id="Stroke-9"></path>
                    <path d="M256,43.3416345 C256,48.123608 252.140425,52 247.379198,52 C242.617971,52 238.758396,48.123608 238.758396,43.3416345 C238.758396,38.559661 242.617971,34.683269 247.379198,34.683269 C252.140425,34.683269 256,38.559661 256,43.3416345 Z" id="Stroke-11"></path>
                </g>
            </g>
        </g>
    </g>
</svg>