<svg width="50" height="50" viewBox="0 0 50 50" fill="none" xmlns="http://www.w3.org/2000/svg">
<path d="M25 14.2125C19.5375 14.3125 15.125 18.725 15.025 24.2V24.375C15.025 28.3125 17.4125 31.8625 21.0625 33.35H24.375V26.9L21.3 23.825C21.05 23.575 21.05 23.1875 21.3 22.9375C21.55 22.6875 21.9375 22.6875 22.1875 22.9375L25.0125 25.7625L27.8375 22.9375C28.0875 22.6875 28.475 22.6875 28.725 22.9375C28.975 23.1875 28.975 23.575 28.725 23.825L25.65 26.9V33.35H28.9625C32.6125 31.8625 35 28.3125 35 24.375V24.2C34.9 18.725 30.4875 14.325 25.025 14.2125H25Z" fill="url(#paint0_linear_1_569)"/>
<path d="M24.375 41.9125V43.75C24.375 44.1 24.65 44.375 25 44.375C25.35 44.375 25.625 44.1 25.625 43.75V41.9C25.4125 41.9 25.2125 41.925 25 41.925C24.7875 41.925 24.575 41.925 24.375 41.9V41.9125Z" fill="#56BD9A"/>
<path d="M29.8875 37.85H29.2625V38.0375C29.2625 38.5375 29.1625 38.9125 28.9875 39.225C28.725 39.6875 28.2875 40.0375 27.6125 40.2875C26.9375 40.5375 26.0375 40.6625 24.9875 40.6625C23.5875 40.6625 22.4625 40.425 21.7625 40C21.4125 39.7875 21.1625 39.525 20.9875 39.2125C20.8125 38.9 20.7125 38.525 20.7125 38.025V37.8375H20.0875C19.7375 37.8375 19.4625 37.5625 19.4625 37.2125V38.025C19.4625 38.6875 19.6 39.3 19.8875 39.8125C20.3125 40.5875 21.05 41.125 21.925 41.45C22.6375 41.7125 23.45 41.85 24.35 41.8875C24.55 41.8875 24.7625 41.9125 24.975 41.9125C25.1875 41.9125 25.3875 41.9 25.6 41.8875C26.8625 41.825 27.975 41.5875 28.85 41.0625C29.35 40.75 29.775 40.3375 30.0625 39.825C30.35 39.3125 30.4875 38.7 30.4875 38.0375V37.225C30.4875 37.575 30.2125 37.85 29.8625 37.85H29.8875Z" fill="#56BD9A"/>
<path d="M20.1125 36.6H20.7375V34.55H20.7C20.275 34.375 19.8875 34.1625 19.4875 33.95V37.225C19.4875 36.875 19.7625 36.6 20.1125 36.6Z" fill="#56BD9A"/>
<path d="M29.2625 34.55V36.6H29.8875C30.2375 36.6 30.5125 36.875 30.5125 37.225V33.95C30.125 34.1625 29.725 34.375 29.3 34.5375H29.2625V34.55Z" fill="#56BD9A"/>
<path d="M25.4375 27.075C25.1875 27.325 24.8 27.325 24.55 27.075C24.3 26.825 24.3 26.4375 24.55 26.1875L24.9875 25.75L22.1625 22.925C21.9125 22.675 21.525 22.675 21.275 22.925C21.025 23.175 21.025 23.5625 21.275 23.8125L24.35 26.8875V33.3375H25.6V26.8875L25.4125 27.075H25.4375Z" fill="#56BD9A"/>
<path d="M25.0125 12.9625H24.9875C18.8375 13.075 13.8875 18.025 13.775 24.175V24.3625C13.775 28.4 16 32.05 19.4875 33.95C19.875 34.1625 20.275 34.375 20.7 34.5375H20.7375L20.925 34.5875H29.075L29.2625 34.5499H29.3C29.725 34.3749 30.1125 34.1625 30.5125 33.95C34 32.05 36.225 28.3875 36.225 24.35V24.1625C36.1125 18.0125 31.1625 13.0625 25.0125 12.95V12.9625ZM28.9375 33.3375H21.0625C17.4125 31.85 15.025 28.3 15.025 24.3625V24.1875C15.125 18.7125 19.5375 14.3125 25 14.2C30.4625 14.3 34.875 18.7125 34.975 24.1875V24.3625C34.975 28.3 32.5875 31.85 28.9375 33.3375Z" fill="#56BD9A"/>
<path d="M29.8875 36.6H20.1C19.75 36.6 19.475 36.875 19.475 37.225C19.475 37.575 19.75 37.85 20.1 37.85H29.8875C30.2375 37.85 30.5125 37.575 30.5125 37.225C30.5125 36.875 30.2375 36.6 29.8875 36.6Z" fill="#56BD9A"/>
<path d="M24.375 6.25V9.5125C24.375 9.8625 24.65 10.1375 25 10.1375C25.35 10.1375 25.625 9.8625 25.625 9.5125V6.25C25.625 5.9 25.35 5.625 25 5.625C24.65 5.625 24.375 5.9 24.375 6.25Z" fill="#56BD9A"/>
<path d="M10.8 23.175C11.15 23.175 11.425 22.9 11.425 22.55C11.425 22.2 11.15 21.925 10.8 21.925H7.0625C6.7125 21.925 6.4375 22.2 6.4375 22.55C6.4375 22.9 6.7125 23.175 7.0625 23.175H10.8Z" fill="#56BD9A"/>
<path d="M13.9625 14.025C14.2125 14.275 14.6 14.275 14.85 14.025C15.1 13.775 15.1 13.3875 14.85 13.1375L11.5875 9.875C11.3375 9.625 10.95 9.625 10.7 9.875C10.45 10.125 10.45 10.5125 10.7 10.7625L13.9625 14.025Z" fill="#56BD9A"/>
<path d="M42.9375 21.925H39.2C38.85 21.925 38.575 22.2 38.575 22.55C38.575 22.9 38.85 23.175 39.2 23.175H42.9375C43.2875 23.175 43.5625 22.9 43.5625 22.55C43.5625 22.2 43.2875 21.925 42.9375 21.925Z" fill="#56BD9A"/>
<path d="M39.3 9.88745C39.05 9.63745 38.6625 9.63745 38.4125 9.88745L35.15 13.15C34.9 13.4 34.9 13.7875 35.15 14.0375C35.4 14.2875 35.7875 14.2875 36.0375 14.0375L39.3 10.775C39.55 10.525 39.55 10.1375 39.3 9.88745Z" fill="#56BD9A"/>
<path d="M24.5625 27.075C24.8125 27.325 25.2 27.325 25.45 27.075L25.6375 26.8875L28.7125 23.8125C28.9625 23.5625 28.9625 23.175 28.7125 22.925C28.4625 22.675 28.075 22.675 27.825 22.925L25 25.75L24.5625 26.1875C24.3125 26.4375 24.3125 26.825 24.5625 27.075Z" fill="#56BD9A"/>
<defs>
<linearGradient id="paint0_linear_1_569" x1="14.4" y1="24.3615" x2="35.6" y2="24.3615" gradientUnits="userSpaceOnUse">
<stop stop-color="#C9EAFF"/>
<stop offset="1" stop-color="#CAFBEA"/>
</linearGradient>
</defs>
</svg>
