<svg width="50" height="50" viewBox="0 0 50 50" fill="none" xmlns="http://www.w3.org/2000/svg">
<path d="M39.4375 20.1125C39.7 19.85 39.825 19.525 39.825 19.1875C39.825 18.85 39.7 18.5125 39.4375 18.2625L38.75 17.575C38.4875 17.3125 38.1625 17.1875 37.825 17.1875C37.4875 17.1875 37.15 17.3125 36.9 17.575L35.2875 19.1875L37.825 21.725L39.4375 20.1125Z" fill="url(#paint0_linear_1_744)"/>
<path d="M34.4028 20.0661L26.8633 27.6056L29.4089 30.1512L36.9484 22.6116L34.4028 20.0661Z" fill="url(#paint1_linear_1_744)"/>
<path d="M23.0875 31.375C21.3125 33.15 20 35.3375 19.275 37.7375C21.675 37.0125 23.85 35.7 25.6375 33.925L28.525 31.0375L25.9875 28.5L23.1 31.3875L23.0875 31.375Z" fill="url(#paint2_linear_1_744)"/>
<path d="M16.075 5.625H9.54999C9.38749 5.625 9.22499 5.6875 9.11249 5.8125C8.99999 5.9375 8.92499 6.0875 8.92499 6.25V16.0375C8.92499 16.2 8.98749 16.3625 9.11249 16.475C9.23749 16.5875 9.38749 16.6625 9.54999 16.6625H19.3375C19.5 16.6625 19.6625 16.6 19.775 16.475C19.8875 16.35 19.9625 16.2 19.9625 16.0375V11.9625C19.9625 11.6125 19.6875 11.3375 19.3375 11.3375C18.9875 11.3375 18.7125 11.6125 18.7125 11.9625V15.4125H10.175V6.875H16.075C16.425 6.875 16.7 6.6 16.7 6.25C16.7 5.9 16.425 5.625 16.075 5.625Z" fill="#56BD9A"/>
<path d="M20.5375 5.76248C20.2625 5.54998 19.875 5.59998 19.6625 5.87498L14.3875 12.65L12.4375 10.7C12.1875 10.45 11.8 10.45 11.55 10.7C11.3 10.95 11.3 11.3375 11.55 11.5875L14 14.0375C14.125 14.1625 14.3 14.225 14.475 14.225C14.65 14.225 14.825 14.125 14.925 13.9875L20.6375 6.64998C20.85 6.37498 20.8 5.98748 20.525 5.77498L20.5375 5.76248Z" fill="#56BD9A"/>
<path d="M8.92499 29.075C8.92499 29.2375 8.98749 29.4 9.11249 29.5125C9.22499 29.625 9.38749 29.7 9.54999 29.7H19.3375C19.5 29.7 19.6625 29.6375 19.775 29.5125C19.8875 29.4 19.9625 29.2375 19.9625 29.075V25C19.9625 24.65 19.6875 24.375 19.3375 24.375C18.9875 24.375 18.7125 24.65 18.7125 25V28.45H10.175V19.9125H16.075C16.425 19.9125 16.7 19.6375 16.7 19.2875C16.7 18.9375 16.425 18.6625 16.075 18.6625H9.54999C9.38749 18.6625 9.22499 18.725 9.11249 18.85C8.99999 18.9625 8.92499 19.125 8.92499 19.2875V29.075Z" fill="#56BD9A"/>
<path d="M19.6625 18.9125L14.3875 25.6875L12.4375 23.7375C12.1875 23.4875 11.8 23.4875 11.55 23.7375C11.3 23.9875 11.3 24.375 11.55 24.625L14 27.075C14.125 27.2 14.3 27.2625 14.475 27.2625C14.65 27.2625 14.825 27.1625 14.925 27.025L20.6375 19.6875C20.85 19.4125 20.8 19.025 20.525 18.8125C20.25 18.6 19.8625 18.65 19.65 18.925L19.6625 18.9125Z" fill="#56BD9A"/>
<path d="M8.92499 43.75C8.92499 43.9125 8.98749 44.075 9.11249 44.1875C9.22499 44.3 9.38749 44.375 9.54999 44.375H19.3375C19.5 44.375 19.6625 44.3125 19.775 44.1875C19.8875 44.075 19.9625 43.9125 19.9625 43.75V42.125C19.9625 41.775 19.6875 41.5 19.3375 41.5C18.9875 41.5 18.7125 41.775 18.7125 42.125V43.125H10.175V34.5875H16.075C16.425 34.5875 16.7 34.3125 16.7 33.9625C16.7 33.6125 16.425 33.3375 16.075 33.3375H9.54999C9.38749 33.3375 9.22499 33.4 9.11249 33.525C8.99999 33.6375 8.92499 33.8 8.92499 33.9625V43.75Z" fill="#56BD9A"/>
<path d="M39.6375 16.6875C39.1375 16.1875 38.475 15.9375 37.825 15.9375C37.175 15.9375 36.5125 16.1875 36.0125 16.6875L25.5375 27.1625C25.7875 26.9125 26.175 26.9125 26.425 27.1625L26.8625 27.6L34.4 20.0625L33.9625 19.625C33.7125 19.375 33.7125 18.9875 33.9625 18.7375C34.2125 18.4875 34.6 18.4875 34.85 18.7375L35.2875 19.175L36.9 17.5625C37.1625 17.3 37.4875 17.175 37.825 17.175C38.1625 17.175 38.5 17.3 38.75 17.5625L39.4375 18.25C39.7 18.5125 39.825 18.8375 39.825 19.175C39.825 19.5125 39.7 19.85 39.4375 20.1L37.825 21.7125L38.7125 22.6L40.325 20.9875C40.825 20.4875 41.075 19.825 41.075 19.175C41.075 18.525 40.825 17.8625 40.325 17.3625L39.6375 16.675V16.6875Z" fill="#56BD9A"/>
<path d="M29.4 30.15L29.8375 30.5875C30.0875 30.8375 30.0875 31.225 29.8375 31.475C29.5875 31.725 29.2 31.725 28.95 31.475L28.5125 31.0375L25.625 33.925C23.85 35.7 21.6625 37.0125 19.2625 37.7375C19.9875 35.3375 21.3 33.1625 23.075 31.375L25.9625 28.4875L25.525 28.05C25.275 27.8 25.275 27.4125 25.525 27.1625L22.2 30.4875C20 32.6875 18.475 35.45 17.775 38.475C17.725 38.6875 17.7875 38.9 17.9375 39.0625C18.0875 39.225 18.3125 39.275 18.525 39.225C21.55 38.525 24.3125 36.9875 26.5125 34.8L37.8125 23.5L36.925 22.6125L29.3875 30.15H29.4Z" fill="#56BD9A"/>
<path d="M35.275 19.1875L34.8375 18.75C34.5875 18.5 34.2 18.5 33.95 18.75C33.7 19 33.7 19.3875 33.95 19.6375L34.3875 20.075L36.925 22.6125L37.8125 23.5L38.05 23.7375C38.3125 24 38.4375 24.325 38.4375 24.6625C38.4375 25 38.3125 25.3375 38.05 25.5875L33.9375 29.7C33.6875 29.95 33.6875 30.3375 33.9375 30.5875C34.1875 30.8375 34.575 30.8375 34.825 30.5875L38.9375 26.475C39.4375 25.975 39.6875 25.3125 39.6875 24.6625C39.6875 24.0125 39.4375 23.35 38.9375 22.85L38.7 22.6125L37.8125 21.725L35.275 19.1875Z" fill="#56BD9A"/>
<path d="M25.5375 28.05L25.975 28.4875L28.5125 31.025L28.95 31.4625C29.2 31.7125 29.5875 31.7125 29.8375 31.4625C30.0875 31.2125 30.0875 30.825 29.8375 30.575L29.4 30.1375L26.8625 27.6L26.425 27.1625C26.175 26.9125 25.7875 26.9125 25.5375 27.1625C25.2875 27.4125 25.2875 27.8 25.5375 28.05Z" fill="#56BD9A"/>
<defs>
<linearGradient id="paint0_linear_1_744" x1="19.7305" y1="18.8025" x2="41.7805" y2="18.8025" gradientUnits="userSpaceOnUse">
<stop stop-color="#C9EAFF"/>
<stop offset="1" stop-color="#CAFBEA"/>
</linearGradient>
<linearGradient id="paint1_linear_1_744" x1="9854.91" y1="24.3189" x2="9876.96" y2="24.3189" gradientUnits="userSpaceOnUse">
<stop stop-color="#C9EAFF"/>
<stop offset="1" stop-color="#CAFBEA"/>
</linearGradient>
<linearGradient id="paint2_linear_1_744" x1="9854.91" y1="32.4735" x2="9876.96" y2="32.4735" gradientUnits="userSpaceOnUse">
<stop stop-color="#C9EAFF"/>
<stop offset="1" stop-color="#CAFBEA"/>
</linearGradient>
</defs>
</svg>
