<svg width="50" height="50" viewBox="0 0 50 50" fill="none" xmlns="http://www.w3.org/2000/svg">
<path d="M19.8125 32.0625C19.925 32.175 20 32.3375 20 32.5V35.9876L23.9375 32.05C24.05 31.9375 24.2125 31.8625 24.375 31.8625H38.125C38.475 31.8625 38.75 31.5875 38.75 31.2375V13.7375C38.75 13.3875 38.475 13.1125 38.125 13.1125H11.875C11.525 13.1125 11.25 13.3875 11.25 13.7375V31.2375C11.25 31.5875 11.525 31.8625 11.875 31.8625H19.375C19.5375 31.8625 19.7 31.925 19.8125 32.05V32.0625ZM21.875 18.825H33.125C33.475 18.825 33.75 19.1 33.75 19.45C33.75 19.8 33.475 20.075 33.125 20.075H21.875C21.525 20.075 21.25 19.8 21.25 19.45C21.25 19.1 21.525 18.825 21.875 18.825ZM21.875 25.075H33.125C33.475 25.075 33.75 25.35 33.75 25.7C33.75 26.05 33.475 26.325 33.125 26.325H21.875C21.525 26.325 21.25 26.05 21.25 25.7C21.25 25.35 21.525 25.075 21.875 25.075ZM18.125 26.325H16.875C16.525 26.325 16.25 26.05 16.25 25.7C16.25 25.35 16.525 25.075 16.875 25.075H18.125C18.475 25.075 18.75 25.35 18.75 25.7C18.75 26.05 18.475 26.325 18.125 26.325ZM18.125 20.075H16.875C16.525 20.075 16.25 19.8 16.25 19.45C16.25 19.1 16.525 18.825 16.875 18.825H18.125C18.475 18.825 18.75 19.1 18.75 19.45C18.75 19.8 18.475 20.075 18.125 20.075Z" fill="url(#paint0_linear_1_562)"/>
<path d="M19.1375 38.075C19.375 38.175 19.6375 38.1125 19.8125 37.9375L24.625 33.125H38.1125C39.15 33.125 39.9875 32.2875 39.9875 31.25V13.75C39.9875 12.7125 39.15 11.875 38.1125 11.875H11.875C10.8375 11.875 10 12.7125 10 13.75V31.25C10 32.2875 10.8375 33.125 11.875 33.125H18.75V37.5C18.75 37.75 18.9 37.975 19.1375 38.075ZM11.875 31.875C11.525 31.875 11.25 31.6 11.25 31.25V13.75C11.25 13.4 11.525 13.125 11.875 13.125H38.125C38.475 13.125 38.75 13.4 38.75 13.75V31.25C38.75 31.6 38.475 31.875 38.125 31.875H24.375C24.2125 31.875 24.05 31.9375 23.9375 32.0625L20 36V32.5125C20 32.35 19.9375 32.1875 19.8125 32.075C19.7 31.9625 19.5375 31.8875 19.375 31.8875H11.875V31.875Z" fill="#56BD9A"/>
<path d="M21.875 20.0749H33.125C33.475 20.0749 33.75 19.8 33.75 19.45C33.75 19.1 33.475 18.825 33.125 18.825H21.875C21.525 18.825 21.25 19.1 21.25 19.45C21.25 19.8 21.525 20.0749 21.875 20.0749Z" fill="#56BD9A"/>
<path d="M21.875 26.325H33.125C33.475 26.325 33.75 26.05 33.75 25.7C33.75 25.35 33.475 25.075 33.125 25.075H21.875C21.525 25.075 21.25 25.35 21.25 25.7C21.25 26.05 21.525 26.325 21.875 26.325Z" fill="#56BD9A"/>
<path d="M18.125 18.825H16.875C16.525 18.825 16.25 19.1 16.25 19.45C16.25 19.8 16.525 20.0749 16.875 20.0749H18.125C18.475 20.0749 18.75 19.8 18.75 19.45C18.75 19.1 18.475 18.825 18.125 18.825Z" fill="#56BD9A"/>
<path d="M18.125 25.075H16.875C16.525 25.075 16.25 25.35 16.25 25.7C16.25 26.05 16.525 26.325 16.875 26.325H18.125C18.475 26.325 18.75 26.05 18.75 25.7C18.75 25.35 18.475 25.075 18.125 25.075Z" fill="#56BD9A"/>
<defs>
<linearGradient id="paint0_linear_1_562" x1="10.5875" y1="24.6001" x2="39.3375" y2="24.6001" gradientUnits="userSpaceOnUse">
<stop stop-color="#C9EAFF"/>
<stop offset="1" stop-color="#CAFBEA"/>
</linearGradient>
</defs>
</svg>
