<svg width="50" height="50" viewBox="0 0 50 50" fill="none" xmlns="http://www.w3.org/2000/svg">
<path d="M33.2617 25.8625C31.2992 25.8625 29.6992 27.4625 29.6992 29.425V31.4625H36.8242V29.425C36.8242 27.4625 35.2242 25.875 33.2617 25.8625Z" fill="url(#paint0_linear_74_34)"/>
<path d="M36.4867 22.8V13.9125C36.4867 13.7 36.3992 13.5 36.2617 13.35L31.0242 8.11245C30.8742 7.96245 30.6742 7.88745 30.4617 7.88745H11.6742C11.2367 7.88745 10.8867 8.23745 10.8867 8.67495V38.35C10.8867 38.7875 11.2367 39.1375 11.6742 39.1375H23.4617C23.8117 39.1375 24.0867 39.4125 24.0867 39.7625H26.1617V32.85C26.1617 32.0875 26.7867 31.4625 27.5492 31.4625H28.4492V29.425C28.4492 26.7625 30.5992 24.6125 33.2617 24.6125C34.8367 24.6125 36.2367 25.3875 37.1117 26.5625V23.425C36.7617 23.425 36.4867 23.15 36.4867 22.8ZM16.1617 13.7H26.0492C26.3992 13.7 26.6742 13.975 26.6742 14.325C26.6742 14.675 26.3992 14.95 26.0492 14.95H16.1617C15.8117 14.95 15.5367 14.675 15.5367 14.325C15.5367 13.975 15.8117 13.7 16.1617 13.7ZM21.8242 31.9H16.1742C15.8242 31.9 15.5492 31.625 15.5492 31.275C15.5492 30.925 15.8242 30.65 16.1742 30.65H21.8242C22.1742 30.65 22.4492 30.925 22.4492 31.275C22.4492 31.625 22.1742 31.9 21.8242 31.9ZM21.8242 27.6625H16.1742C15.8242 27.6625 15.5492 27.3875 15.5492 27.0375C15.5492 26.6875 15.8242 26.4125 16.1742 26.4125H21.8242C22.1742 26.4125 22.4492 26.6875 22.4492 27.0375C22.4492 27.3875 22.1742 27.6625 21.8242 27.6625ZM27.1492 23.425H16.1742C15.8242 23.425 15.5492 23.15 15.5492 22.8C15.5492 22.45 15.8242 22.175 16.1742 22.175H27.1492C27.4992 22.175 27.7742 22.45 27.7742 22.8C27.7742 23.15 27.4992 23.425 27.1492 23.425ZM29.5867 19.1875H16.1617C15.8117 19.1875 15.5367 18.9125 15.5367 18.5625C15.5367 18.2125 15.8117 17.9375 16.1617 17.9375H29.5867C29.9367 17.9375 30.2117 18.2125 30.2117 18.5625C30.2117 18.9125 29.9367 19.1875 29.5867 19.1875Z" fill="url(#paint1_linear_74_34)"/>
<path d="M29.5891 17.9375H16.1641C15.8141 17.9375 15.5391 18.2125 15.5391 18.5625C15.5391 18.9125 15.8141 19.1875 16.1641 19.1875H29.5891C29.9391 19.1875 30.2141 18.9125 30.2141 18.5625C30.2141 18.2125 29.9391 17.9375 29.5891 17.9375Z" fill="#56BD9A"/>
<path d="M27.1508 22.175H16.1758C15.8258 22.175 15.5508 22.45 15.5508 22.8C15.5508 23.15 15.8258 23.425 16.1758 23.425H27.1508C27.5008 23.425 27.7758 23.15 27.7758 22.8C27.7758 22.45 27.5008 22.175 27.1508 22.175Z" fill="#56BD9A"/>
<path d="M16.1641 14.95H26.0516C26.4016 14.95 26.6766 14.675 26.6766 14.325C26.6766 13.975 26.4016 13.7 26.0516 13.7H16.1641C15.8141 13.7 15.5391 13.975 15.5391 14.325C15.5391 14.675 15.8141 14.95 16.1641 14.95Z" fill="#56BD9A"/>
<path d="M21.8258 26.4125H16.1758C15.8258 26.4125 15.5508 26.6875 15.5508 27.0375C15.5508 27.3875 15.8258 27.6625 16.1758 27.6625H21.8258C22.1758 27.6625 22.4508 27.3875 22.4508 27.0375C22.4508 26.6875 22.1758 26.4125 21.8258 26.4125Z" fill="#56BD9A"/>
<path d="M21.8258 30.65H16.1758C15.8258 30.65 15.5508 30.925 15.5508 31.275C15.5508 31.625 15.8258 31.9 16.1758 31.9H21.8258C22.1758 31.9 22.4508 31.625 22.4508 31.275C22.4508 30.925 22.1758 30.65 21.8258 30.65Z" fill="#56BD9A"/>
<path d="M23.4734 39.1375H11.6859C11.2484 39.1375 10.8984 38.7875 10.8984 38.35V8.67495C10.8984 8.23745 11.2484 7.88745 11.6859 7.88745H30.4734C30.6859 7.88745 30.8859 7.97495 31.0359 8.11245L36.2734 13.35C36.4234 13.5 36.4984 13.7 36.4984 13.9125V22.8C36.4984 23.15 36.7734 23.425 37.1234 23.425C37.4734 23.425 37.7484 23.15 37.7484 22.8V13.9125C37.7484 13.375 37.5359 12.85 37.1484 12.475L31.9109 7.23745C31.5234 6.84995 31.0109 6.63745 30.4734 6.63745H11.6859C10.5609 6.63745 9.64844 7.54995 9.64844 8.67495V38.35C9.64844 39.475 10.5609 40.3875 11.6859 40.3875H23.4734C23.8234 40.3875 24.0984 40.1125 24.0984 39.7625C24.0984 39.4125 23.8234 39.1375 23.4734 39.1375Z" fill="#56BD9A"/>
<path d="M32.6367 37.3375V37.0375C32.6367 36.6875 32.9117 36.4125 33.2617 36.4125C33.6117 36.4125 33.8867 36.6875 33.8867 37.0375V37.3375C34.2492 37.125 34.5117 36.7375 34.5117 36.275C34.5117 35.5875 33.9492 35.025 33.2617 35.025C32.5742 35.025 32.0117 35.5875 32.0117 36.275C32.0117 36.7375 32.2742 37.1125 32.6367 37.3375Z" fill="#56BD9A"/>
<path d="M33.2617 36.4125C32.9117 36.4125 32.6367 36.6875 32.6367 37.0375V39.325C32.6367 39.675 32.9117 39.95 33.2617 39.95C33.6117 39.95 33.8867 39.675 33.8867 39.325V37.0375C33.8867 36.6875 33.6117 36.4125 33.2617 36.4125Z" fill="#56BD9A"/>
<path d="M37.8883 32.525C37.7758 32.6375 37.6133 32.7125 37.4508 32.7125H38.9758L39.1133 32.85V41.975L38.9758 42.1125H27.5633L27.4258 41.975V32.85L27.5633 32.7125H29.0883C28.9258 32.7125 28.7633 32.65 28.6508 32.525C28.5383 32.4125 28.4633 32.25 28.4633 32.0875V31.4625H27.5633C26.8008 31.4625 26.1758 32.0875 26.1758 32.85V41.975C26.1758 42.7375 26.8008 43.3625 27.5633 43.3625H38.9758C39.7383 43.3625 40.3633 42.7375 40.3633 41.975V32.85C40.3633 32.0875 39.7383 31.4625 38.9758 31.4625H38.0758V32.0875C38.0758 32.25 38.0133 32.4125 37.8883 32.525Z" fill="#56BD9A"/>
<path d="M33.2617 24.6125C30.5992 24.6125 28.4492 26.7625 28.4492 29.425V32.0875C28.4492 32.25 28.5117 32.4125 28.6367 32.525C28.7492 32.6375 28.9117 32.7125 29.0742 32.7125H37.4492C37.6117 32.7125 37.7742 32.65 37.8867 32.525C37.9992 32.4125 38.0742 32.25 38.0742 32.0875V29.425C38.0742 28.35 37.7117 27.3625 37.1117 26.5625C36.2367 25.3875 34.8492 24.6125 33.2617 24.6125ZM36.8242 31.4625H29.6992V29.425C29.6992 27.4625 31.2992 25.875 33.2617 25.8625C35.2242 25.8625 36.8117 27.4625 36.8242 29.425V31.4625Z" fill="#56BD9A"/>
<defs>
<linearGradient id="paint0_linear_74_34" x1="10.1752" y1="29.291" x2="37.0252" y2="29.291" gradientUnits="userSpaceOnUse">
<stop stop-color="#C9EAFF"/>
<stop offset="1" stop-color="#CAFBEA"/>
</linearGradient>
<linearGradient id="paint1_linear_74_34" x1="1313.47" y1="24.4579" x2="1340.32" y2="24.4579" gradientUnits="userSpaceOnUse">
<stop stop-color="#C9EAFF"/>
<stop offset="1" stop-color="#CAFBEA"/>
</linearGradient>
</defs>
</svg>
