<svg width="50" height="50" viewBox="0 0 50 50" fill="none" xmlns="http://www.w3.org/2000/svg">
<path d="M21.9 21.2625V21.3375H36.9375C38.275 21.3375 39.375 22.425 39.375 23.775V25.2501C40.25 25.0251 41.0375 24.575 41.65 23.9625C42.5625 23.05 43.125 21.8 43.125 20.4C43.125 19.0125 42.5625 17.75 41.65 16.8375C40.7375 15.925 39.4875 15.3625 38.0875 15.3625C37.425 15.3625 36.8125 15.4875 36.2375 15.7125C36.075 15.775 35.875 15.775 35.725 15.6875C35.5625 15.6 35.45 15.4625 35.4 15.275C34.525 11.7 31.3 9.05005 27.45 9.05005C23.6 9.05005 20.375 11.7 19.5 15.275C19.4625 15.45 19.3375 15.6 19.175 15.6875C19.0125 15.775 18.825 15.775 18.6625 15.7125C18.0875 15.4875 17.4625 15.3625 16.8125 15.3625C15.425 15.3625 14.1625 15.925 13.25 16.8375C12.7875 17.3 12.4125 17.8625 12.1625 18.4875H19.125C20.6625 18.4875 21.9 19.725 21.9 21.2625Z" fill="url(#paint0_linear_1_710)"/>
<path d="M38.0875 14.1125C37.5125 14.1125 36.9625 14.2125 36.4375 14.3625C35.225 10.5625 31.6625 7.8125 27.45 7.8125C23.25 7.8125 19.6875 10.5625 18.4625 14.3625C17.925 14.2125 17.375 14.1125 16.8 14.1125C14 14.1125 11.6625 15.95 10.8375 18.4875H12.1375C12.3875 17.875 12.7625 17.3125 13.225 16.8375C14.1375 15.925 15.3875 15.3625 16.7875 15.3625C17.45 15.3625 18.0625 15.4875 18.6375 15.7125C18.8 15.775 19 15.775 19.15 15.6875C19.3125 15.6 19.425 15.4625 19.475 15.275C20.35 11.7 23.575 9.05 27.425 9.05C31.275 9.05 34.5 11.7 35.375 15.275C35.4125 15.45 35.5375 15.6 35.7 15.6875C35.8625 15.775 36.05 15.775 36.2125 15.7125C36.7875 15.4875 37.4 15.3625 38.0625 15.3625C39.45 15.3625 40.7125 15.925 41.625 16.8375C42.5375 17.75 43.1 19 43.1 20.4C43.1 21.7875 42.5375 23.05 41.625 23.9625C41 24.5875 40.225 25.025 39.35 25.25V26.55C42.2 25.9625 44.35 23.425 44.35 20.4C44.35 16.925 41.5375 14.1125 38.0625 14.1125H38.0875Z" fill="#56BD9A"/>
<path d="M39.375 23.775C39.375 22.4375 38.2875 21.3375 36.9375 21.3375H21.9V22.5875H36.9375C37.5875 22.5875 38.125 23.125 38.125 23.775V36.825C38.125 37.175 38.4 37.45 38.75 37.45C39.1 37.45 39.375 37.175 39.375 36.825V23.775Z" fill="#56BD9A"/>
<path d="M14.575 36.825V31.025H13.325V36.825C13.325 37.175 13.6 37.45 13.95 37.45C14.3 37.45 14.575 37.175 14.575 36.825Z" fill="#56BD9A"/>
<path d="M11.5 38.4875C11.125 38.4875 10.8625 38.7125 10.725 38.925C10.5875 39.1375 10.525 39.375 10.525 39.6375C10.525 39.7625 10.5375 39.875 10.575 40C10.75 40.6125 11.0375 41.15 11.4375 41.5375C11.825 41.925 12.35 42.1875 12.925 42.1875H39.7625C40.3375 42.1875 40.8625 41.925 41.2625 41.5375C41.6625 41.1375 41.95 40.6125 42.125 40C42.1625 39.875 42.175 39.75 42.175 39.6375C42.175 39.3875 42.1125 39.15 41.975 38.925C41.8375 38.7125 41.575 38.4875 41.2 38.4875H11.5ZM40.8875 39.7375C40.7625 40.1375 40.5875 40.45 40.3875 40.65C40.175 40.8625 39.9625 40.9375 39.775 40.9375H12.925C12.7375 40.9375 12.525 40.8625 12.3125 40.65C12.1125 40.45 11.925 40.1375 11.8125 39.7375H40.8875Z" fill="#56BD9A"/>
<path d="M15.9125 31.025L18.6 34.8625C18.75 35.0875 19.0375 35.175 19.3 35.1C19.5625 35.0125 19.7375 34.775 19.7375 34.5V30.95C20.9625 30.6625 21.8875 29.575 21.8875 28.25V21.25C21.8875 19.7125 20.65 18.475 19.1125 18.475H8.4C6.8625 18.475 5.625 19.7125 5.625 21.25V28.25C5.625 29.7875 6.8625 31.025 8.4 31.025H15.925H15.9125ZM8.4 29.775C7.5625 29.775 6.875 29.0875 6.875 28.25V21.25C6.875 20.4125 7.5625 19.725 8.4 19.725H19.125C19.9625 19.725 20.65 20.4125 20.65 21.25V28.25C20.65 29.0875 19.9625 29.775 19.125 29.775C18.9625 29.775 18.8 29.8375 18.6875 29.9625C18.575 30.0875 18.5 30.2375 18.5 30.4V32.525L16.7625 30.05C16.65 29.8875 16.45 29.7875 16.25 29.7875H8.4V29.775Z" fill="#56BD9A"/>
<path d="M10.05 23.65H17.4875C17.8375 23.65 18.1125 23.375 18.1125 23.025C18.1125 22.675 17.8375 22.4 17.4875 22.4H10.05C9.7 22.4 9.425 22.675 9.425 23.025C9.425 23.375 9.7 23.65 10.05 23.65Z" fill="#56BD9A"/>
<path d="M18.1 26.6C18.1 26.25 17.825 25.975 17.475 25.975H10.0375C9.6875 25.975 9.4125 26.25 9.4125 26.6C9.4125 26.95 9.6875 27.225 10.0375 27.225H17.475C17.825 27.225 18.1 26.95 18.1 26.6Z" fill="#56BD9A"/>
<path d="M30.95 25.575C30.65 25.0625 30.1125 24.7875 29.5875 24.7875C29.0625 24.7875 28.525 25.05 28.225 25.575L23.4625 33.825C23.325 34.075 23.25 34.35 23.25 34.6125C23.25 35.025 23.4125 35.4125 23.6875 35.7C23.9625 35.9875 24.375 36.1875 24.8125 36.175H34.3375C34.7875 36.175 35.1875 35.9875 35.4625 35.7C35.7375 35.4125 35.9 35.025 35.9 34.6125C35.9 34.35 35.8375 34.075 35.6875 33.825L30.925 25.575H30.95ZM34.5875 34.8375L34.3625 34.9375H24.8375L24.6125 34.8375L24.525 34.6125L24.575 34.45L29.3375 26.2C29.4 26.0875 29.5 26.05 29.6125 26.0375C29.725 26.0375 29.825 26.0875 29.8875 26.2L34.65 34.45L34.7 34.6125L34.6125 34.8375H34.5875Z" fill="#56BD9A"/>
<path d="M29.6 28.1125C29.25 28.1125 28.975 28.3875 28.975 28.7375V31.5001C28.975 31.8501 29.25 32.1251 29.6 32.1251C29.95 32.1251 30.225 31.8501 30.225 31.5001V28.7375C30.225 28.3875 29.95 28.1125 29.6 28.1125Z" fill="#56BD9A"/>
<path d="M29.6 32.7375C29.4375 32.7375 29.275 32.8 29.1625 32.925C29.05 33.0375 28.975 33.2 28.975 33.3625C28.975 33.525 29.0375 33.6875 29.1625 33.8C29.2875 33.9125 29.4375 33.9875 29.6 33.9875C29.7625 33.9875 29.925 33.925 30.0375 33.8C30.15 33.6875 30.225 33.525 30.225 33.3625C30.225 33.2 30.1625 33.0375 30.0375 32.925C29.925 32.8125 29.7625 32.7375 29.6 32.7375Z" fill="#56BD9A"/>
<defs>
<linearGradient id="paint0_linear_1_710" x1="11.15" y1="17.126" x2="43.75" y2="17.126" gradientUnits="userSpaceOnUse">
<stop stop-color="#C9EAFF"/>
<stop offset="1" stop-color="#CAFBEA"/>
</linearGradient>
</defs>
</svg>
