<svg width="50" height="50" viewBox="0 0 50 50" fill="none" xmlns="http://www.w3.org/2000/svg">
<g clip-path="url(#clip0_1_628)">
<path d="M31.125 27.6625H37.2375C38.8625 27.6625 40.3375 27 41.4 25.9375C42.4625 24.875 43.125 23.4 43.125 21.775C43.125 20.15 42.4625 18.6875 41.4 17.6125C40.3375 16.55 38.8625 15.8875 37.2375 15.8875C36.475 15.8875 35.75 16.0375 35.075 16.3C34.9125 16.3625 34.7125 16.3625 34.5625 16.275C34.4 16.1875 34.2875 16.05 34.2375 15.8625C33.2125 11.7125 29.475 8.625 25 8.625C20.5375 8.625 16.7875 11.7125 15.7625 15.8625C15.725 16.0375 15.6 16.1875 15.4375 16.275C15.275 16.3625 15.0875 16.3625 14.925 16.3C14.2625 16.0375 13.525 15.8875 12.7625 15.8875C11.1375 15.8875 9.6625 16.55 8.6 17.6125C7.5375 18.675 6.875 20.15 6.875 21.775C6.875 23.4 7.5375 24.875 8.6 25.9375C9.6625 27 11.1375 27.6625 12.7625 27.6625H18.7625C19.1125 27.6625 19.3875 27.9375 19.3875 28.2875H24.375V27.3625C24.375 27.0125 24.65 26.7375 25 26.7375C25.35 26.7375 25.625 27.0125 25.625 27.3625V28.2875H30.5C30.5 27.9375 30.775 27.6625 31.125 27.6625ZM28.975 22.225C28.85 22.225 28.7125 22.2125 28.5875 22.1875L27.3375 21.9H27.2875L27.075 22.05L26.7 23.2875C26.475 24.0375 25.7875 24.5375 25.0125 24.5375C24.2375 24.5375 23.55 24.025 23.325 23.2875L22.9375 22.05L22.725 21.8875H22.675L21.4125 22.1875C21.2875 22.2125 21.15 22.2375 21.025 22.2375C20.4 22.2375 19.8125 21.9125 19.4875 21.35C19.325 21.075 19.25 20.775 19.25 20.475C19.25 20.0375 19.4125 19.6 19.725 19.275L20.6 18.325L20.6625 18.175L20.6 18.025L19.725 17.075C19.4125 16.7375 19.25 16.3125 19.25 15.875C19.25 15.575 19.325 15.2625 19.4875 15C19.8125 14.4375 20.4 14.1125 21.025 14.1125C21.15 14.1125 21.2875 14.125 21.4125 14.15L22.675 14.4375H22.725L22.9375 14.275L23.3125 13.0375C23.5375 12.2875 24.225 11.7875 25 11.775C25.775 11.775 26.4625 12.2875 26.6875 13.025L27.0625 14.2625L27.275 14.425H27.325L28.5875 14.125C28.7125 14.1 28.85 14.075 28.975 14.075C29.6 14.075 30.1875 14.4 30.5125 14.9625C30.675 15.2375 30.75 15.5375 30.75 15.8375C30.75 16.275 30.5875 16.7125 30.275 17.0375L29.4 17.9875L29.3375 18.1375L29.4 18.2875L30.275 19.2375C30.5875 19.575 30.75 20 30.75 20.4375C30.75 20.7375 30.675 21.05 30.5125 21.3125C30.1875 21.875 29.6 22.2 28.975 22.2V22.225Z" fill="url(#paint0_linear_1_628)"/>
<path d="M25 17.4875C24.6375 17.4875 24.35 17.7875 24.3375 18.15C24.3375 18.5125 24.6375 18.8 25 18.8125C25.3625 18.8125 25.65 18.5125 25.6625 18.15C25.6625 17.7875 25.3625 17.5 25 17.4875Z" fill="url(#paint1_linear_1_628)"/>
<path d="M12.7625 28.9125H18.7625C19.1125 28.9125 19.3875 28.6375 19.3875 28.2875C19.3875 27.9375 19.1125 27.6625 18.7625 27.6625H12.7625C11.1375 27.6625 9.6625 27 8.6 25.9375C7.5375 24.875 6.875 23.4 6.875 21.775C6.875 20.15 7.5375 18.6875 8.6 17.6125C9.6625 16.55 11.1375 15.8875 12.7625 15.8875C13.525 15.8875 14.2625 16.0375 14.925 16.3C15.0875 16.3625 15.2875 16.3625 15.4375 16.275C15.6 16.1875 15.7125 16.05 15.7625 15.8625C16.7875 11.7125 20.525 8.62495 25 8.62495C29.475 8.62495 33.225 11.7125 34.2375 15.8625C34.275 16.0375 34.4 16.1875 34.5625 16.275C34.725 16.3625 34.9125 16.3625 35.075 16.3C35.7375 16.0375 36.475 15.8875 37.2375 15.8875C38.8625 15.8875 40.3375 16.55 41.4 17.6125C42.4625 18.675 43.125 20.15 43.125 21.775C43.125 23.4 42.4625 24.875 41.4 25.9375C40.3375 27 38.8625 27.6625 37.2375 27.6625H31.125C30.775 27.6625 30.5 27.9375 30.5 28.2875C30.5 28.6375 30.775 28.9125 31.125 28.9125H37.2375C41.175 28.9125 44.375 25.7125 44.375 21.775C44.375 17.8375 41.175 14.6375 37.2375 14.6375C36.55 14.6375 35.9 14.7625 35.275 14.95C33.9125 10.575 29.8375 7.38745 25 7.38745C20.175 7.38745 16.1 10.5625 14.7375 14.95C14.1125 14.7625 13.45 14.6375 12.7625 14.6375C8.825 14.6375 5.625 17.8375 5.625 21.775C5.625 25.7125 8.825 28.9125 12.7625 28.9125Z" fill="#56BD9A"/>
<path d="M17 38.15C17.8875 38.15 18.6125 38.875 18.6125 39.7625C18.6125 40.65 17.8875 41.375 17 41.375C16.1125 41.375 15.3875 40.65 15.3875 39.7625C15.3875 38.875 16.1125 38.15 17 38.15C16.65 38.15 16.375 37.875 16.375 37.525V36.975C15.1 37.2625 14.1375 38.4 14.1375 39.7625C14.1375 41.3375 15.4125 42.625 17 42.625C18.575 42.625 19.8625 41.35 19.8625 39.7625C19.8625 38.4 18.9125 37.2625 17.625 36.975V37.525C17.625 37.875 17.35 38.15 17 38.15Z" fill="#56BD9A"/>
<path d="M25 38.15C25.8875 38.15 26.6125 38.875 26.6125 39.7625C26.6125 40.65 25.8875 41.375 25 41.375C24.1125 41.375 23.3875 40.65 23.3875 39.7625C23.3875 38.875 24.1125 38.15 25 38.15C24.65 38.15 24.375 37.875 24.375 37.525V36.975C23.1 37.2625 22.1375 38.4 22.1375 39.7625C22.1375 41.3375 23.4125 42.625 25 42.625C26.575 42.625 27.8625 41.35 27.8625 39.7625C27.8625 38.4 26.9125 37.2625 25.625 36.975V37.525C25.625 37.875 25.35 38.15 25 38.15Z" fill="#56BD9A"/>
<path d="M33 38.15C33.8875 38.15 34.6125 38.875 34.6125 39.7625C34.6125 40.65 33.8875 41.375 33 41.375C32.1125 41.375 31.3875 40.65 31.3875 39.7625C31.3875 38.875 32.1125 38.15 33 38.15C32.65 38.15 32.375 37.875 32.375 37.525V36.975C31.1 37.2625 30.1375 38.4 30.1375 39.7625C30.1375 41.3375 31.4125 42.625 33 42.625C34.575 42.625 35.8625 41.35 35.8625 39.7625C35.8625 38.4 34.9125 37.2625 33.625 36.975V37.525C33.625 37.875 33.35 38.15 33 38.15Z" fill="#56BD9A"/>
<path d="M24.375 36.975V37.525C24.375 37.875 24.65 38.15 25 38.15C25.35 38.15 25.625 37.875 25.625 37.525V34.6H24.375V36.975Z" fill="#56BD9A"/>
<path d="M25 26.725C24.65 26.725 24.375 27 24.375 27.35V33.3375H25.625V27.35C25.625 27 25.35 26.725 25 26.725Z" fill="#56BD9A"/>
<path d="M18.9875 33.35C17.55 33.35 16.375 34.5125 16.375 35.9625V37.525C16.375 37.875 16.65 38.15 17 38.15C17.35 38.15 17.625 37.875 17.625 37.525V35.9625C17.625 35.2125 18.2375 34.6 18.9875 34.6H31.0125C31.7625 34.6 32.375 35.2125 32.375 35.9625V37.525C32.375 37.875 32.65 38.15 33 38.15C33.35 38.15 33.625 37.875 33.625 37.525V35.9625C33.625 34.525 32.4625 33.35 31.0125 33.35H18.9875Z" fill="#56BD9A"/>
<path d="M25 16.2375C23.95 16.2375 23.0875 17.0875 23.0875 18.15C23.0875 19.2 23.9375 20.0625 25 20.0625C26.05 20.0625 26.9 19.2125 26.9125 18.15C26.9125 17.1 26.0625 16.25 25 16.2375ZM25 18.8C24.6375 18.8 24.35 18.5 24.3375 18.1375C24.3375 17.775 24.6375 17.4875 25 17.475C25.3625 17.475 25.65 17.775 25.6625 18.1375C25.6625 18.5 25.3625 18.7875 25 18.8Z" fill="#56BD9A"/>
<path d="M30.275 19.25L29.4 18.3L29.3375 18.15L29.4 18L30.275 17.05C30.5875 16.7125 30.75 16.275 30.75 15.85C30.75 15.55 30.675 15.2375 30.5125 14.975C30.1875 14.4125 29.6 14.0875 28.975 14.0875C28.85 14.0875 28.7125 14.1 28.5875 14.125L27.325 14.4125H27.275L27.0625 14.2625L26.6875 13.025C26.4625 12.2875 25.775 11.775 25 11.775C24.225 11.775 23.5375 12.2875 23.3125 13.0375L22.9375 14.275L22.725 14.4375H22.675L21.4125 14.15C21.2875 14.125 21.15 14.1 21.025 14.1C20.4 14.1 19.8125 14.425 19.4875 14.9875C19.325 15.2625 19.25 15.5625 19.25 15.8625C19.25 16.3 19.4125 16.7375 19.725 17.0625L20.6 18.0125L20.6625 18.1625L20.6 18.3125L19.725 19.2625C19.4125 19.6 19.25 20.025 19.25 20.4625C19.25 20.7625 19.325 21.075 19.4875 21.3375C19.8125 21.9 20.4 22.225 21.025 22.225C21.15 22.225 21.2875 22.2125 21.4125 22.1875L22.675 21.9H22.725L22.9375 22.05L23.325 23.3C23.55 24.0375 24.2375 24.55 25.0125 24.55C25.7875 24.55 26.475 24.0375 26.7 23.3L27.075 22.0625L27.2875 21.9H27.3375L28.5875 22.2C28.7125 22.225 28.85 22.25 28.975 22.25C29.6 22.25 30.1875 21.925 30.5125 21.3625C30.675 21.0875 30.75 20.7875 30.75 20.4875C30.75 20.05 30.5875 19.6125 30.275 19.2875V19.25ZM29.425 20.7125C29.3375 20.875 29.1625 20.975 28.975 20.975H28.8625L27.6125 20.675L27.2875 20.6375C26.65 20.6375 26.0625 21.05 25.875 21.6875L25.5 22.925C25.4375 23.1375 25.2375 23.2875 25.0125 23.2875C24.7875 23.2875 24.5875 23.1375 24.525 22.925L24.1375 21.675C23.95 21.05 23.3625 20.625 22.725 20.625L22.3875 20.6625L21.1375 20.95H21.025C20.8375 20.9625 20.675 20.8625 20.575 20.7L20.5 20.4375C20.5 20.3125 20.55 20.1875 20.6375 20.0875L21.5125 19.1375C21.775 18.85 21.9 18.4875 21.9 18.1375C21.9 17.775 21.775 17.4125 21.5125 17.1375L20.6375 16.1875C20.55 16.0875 20.5 15.9625 20.5 15.8375L20.575 15.575C20.6625 15.4125 20.8375 15.3125 21.025 15.3125H21.1375L22.3875 15.6125L22.7125 15.65C23.35 15.65 23.925 15.2375 24.125 14.6L24.5 13.3625C24.5625 13.1375 24.7625 13 24.9875 13C25.2125 13 25.4125 13.15 25.475 13.3625L25.85 14.6C26.0375 15.2375 26.625 15.65 27.2625 15.65L27.6 15.6125L28.85 15.325H28.9625C29.15 15.3125 29.3125 15.4125 29.4125 15.575L29.4875 15.8375C29.4875 15.9625 29.4375 16.0875 29.35 16.1875L28.475 17.1375C28.2125 17.425 28.0875 17.7875 28.0875 18.1375C28.0875 18.5 28.2125 18.8625 28.475 19.1375L29.35 20.0875C29.4375 20.1875 29.4875 20.3125 29.4875 20.4375L29.4125 20.7L29.425 20.7125Z" fill="#56BD9A"/>
</g>
<defs>
<linearGradient id="paint0_linear_1_628" x1="6.0875" y1="18.475" x2="43.5875" y2="18.475" gradientUnits="userSpaceOnUse">
<stop stop-color="#C9EAFF"/>
<stop offset="1" stop-color="#CAFBEA"/>
</linearGradient>
<linearGradient id="paint1_linear_1_628" x1="3693.47" y1="18.1" x2="3730.97" y2="18.1" gradientUnits="userSpaceOnUse">
<stop stop-color="#C9EAFF"/>
<stop offset="1" stop-color="#CAFBEA"/>
</linearGradient>
<clipPath id="clip0_1_628">
<rect width="50" height="50" fill="white"/>
</clipPath>
</defs>
</svg>
