<?xml version="1.0" encoding="UTF-8"?>
<svg width="25px" height="24px" viewBox="0 0 25 24" version="1.1" xmlns="http://www.w3.org/2000/svg" xmlns:xlink="http://www.w3.org/1999/xlink">
    <title>LinkedIn_Logo</title>
    <g id="Round-Three-Design" stroke="none" stroke-width="1" fill="none" fill-rule="evenodd">
        <g id="CADO-Homepage-R3" transform="translate(-238, -6761)">
            <g id="Group-4" transform="translate(200, 6761)">
                <g id="LinkedIn_Logo" transform="translate(38.4185, 0)">
                    <g id="g3019" transform="translate(11.8911, 12) scale(-1, 1) rotate(-180) translate(-11.8911, -12)">
                        <path d="M0,22.2807894 C0,23.2300271 0.786824664,24 1.75746774,24 L22.0248226,24 C22.9954337,24 23.7822904,23.2300271 23.7822904,22.2807894 L23.7822904,1.71921057 C23.7822904,0.769652187 22.9954337,0 22.0248226,0 L1.75746774,0 C0.786824664,0 0,0.769652187 0,1.71921057 L0,22.2807894 L0,22.2807894 Z" id="path14" fill="#006699" fill-rule="nonzero"></path>
                        <path d="M7.20914827,3.90951242 L7.20914827,14.7468566 L3.61704616,14.7468566 L3.61704616,3.90951242 L7.20914827,3.90951242 L7.20914827,3.90951242 Z M5.41308123,16.2265129 C6.66571991,16.2265129 7.44538115,17.0586993 7.44538115,18.0986919 C7.42203609,19.1620946 6.66571991,19.9711915 5.43684203,19.9711915 C4.20809206,19.9711915 3.404702,19.1620946 3.404702,18.0986919 C3.404702,17.0586993 4.18420334,16.2265129 5.3896722,16.2265129 L5.41301727,16.2265129 L5.41308123,16.2265129 Z" id="path28" fill="#FFFFFF"></path>
                        <path d="M9.19677278,3.90951242 L12.7888429,3.90951242 L12.7888429,9.96154411 C12.7888429,10.2854394 12.812188,10.609014 12.9070393,10.840551 C13.1667132,11.4877003 13.7577591,12.157939 14.7500843,12.157939 C16.0498928,12.157939 16.5698482,11.1641257 16.5698482,9.7072382 L16.5698482,3.90951242 L20.1616305,3.90951242 L20.1616305,10.1234918 C20.1616305,13.4522375 18.3894842,15.0011625 16.026164,15.0011625 C14.0883316,15.0011625 13.2376118,13.9149908 12.7649542,13.1751627 L12.7889389,13.1751627 L12.7889389,14.7468566 L9.19677278,14.7468566 C9.24400656,13.7299536 9.19677278,3.90951242 9.19677278,3.90951242 L9.19677278,3.90951242 Z" id="path30" fill="#FFFFFF"></path>
                    </g>
                </g>
            </g>
        </g>
    </g>
</svg>