<?xml version="1.0" encoding="UTF-8"?><svg id="Layer_2" xmlns="http://www.w3.org/2000/svg" xmlns:xlink="http://www.w3.org/1999/xlink" viewBox="0 0 509.64 404"><defs><style>.cls-1,.cls-2,.cls-3,.cls-4,.cls-5,.cls-6,.cls-7,.cls-8,.cls-9,.cls-10{fill:none;}.cls-11{clip-path:url(#clippath);}.cls-2{stroke-width:3.11px;}.cls-2,.cls-3,.cls-4,.cls-5,.cls-6,.cls-7,.cls-8,.cls-9,.cls-10{stroke-linecap:round;stroke-linejoin:round;}.cls-2,.cls-4,.cls-5,.cls-6,.cls-7,.cls-8,.cls-9,.cls-10{stroke:#303030;}.cls-3{stroke:#fff;stroke-width:6.19px;}.cls-12{fill:#00bdff;}.cls-13,.cls-14,.cls-15,.cls-16{fill:#fff;}.cls-17{fill:#8edaef;}.cls-18,.cls-19{fill:#303030;}.cls-20{fill:#d1d5db;}.cls-21{fill:#1f2937;}.cls-22{fill:#428e11;}.cls-23{fill:#6366f1;}.cls-24{fill:#5834ba;}.cls-25{fill:#77e236;}.cls-26{fill:#4f46e5;}.cls-4{stroke-width:1.83px;}.cls-27{clip-path:url(#clippath-1);}.cls-14{opacity:.7;}.cls-14,.cls-15,.cls-19,.cls-16{isolation:isolate;}.cls-15{opacity:.5;}.cls-19{opacity:.35;}.cls-5{stroke-width:2.41px;}.cls-6{stroke-width:2.73px;}.cls-7{stroke-width:1.94px;}.cls-8{stroke-width:2.21px;}.cls-16{opacity:.05;}.cls-9{stroke-width:1.61px;}.cls-10{stroke-width:1.53px;}</style><clipPath id="clippath"><path class="cls-1" d="M293.12,22.57C127.29-17.79-5.4,100.37,52.49,257.41c25.77,69.75,80.8,79.98,119.8,76.91,40.84-3.2,82.16,9.21,117.55,33.55,74.66,51.21,184.78,14.25,212.6-81.96,34.84-120.62-60.62-227.13-209.33-263.33Z"/></clipPath><clipPath id="clippath-1"><path class="cls-1" d="M232.3,1.13c0,1.02,0,2.11-.07,3.14-1.64,55.98-47.53,100.85-103.92,100.85S26.03,60.24,24.4,4.26c0-1.02-.07-2.11-.07-3.14,0-13.16,2.45-25.71,6.89-37.3,14.8-38.53,51.89-66,95.46-66.62h3.27c43.57,.68,80.66,28.16,95.46,66.62,4.43,11.59,6.89,24.21,6.89,37.3Z"/></clipPath></defs><g id="Layer_1-2"><g><path class="cls-21" d="M293.12,22.57C127.29-17.79-5.4,100.37,52.49,257.41c25.77,69.75,80.8,79.98,119.8,76.91,40.84-3.2,82.16,9.21,117.55,33.55,74.66,51.21,184.78,14.25,212.6-81.96,34.84-120.62-60.62-227.13-209.33-263.33Z"/><path class="cls-13" d="M91.56,160.98c0-.07-.07-.07-.27-.14-2.18-.54-3.82-2.18-4.36-4.36-.07-.14-.07-.27-.14-.27s-.07,.07-.14,.27c-.55,2.18-2.18,3.82-4.36,4.36-.14,.07-.27,.07-.27,.14s.07,.07,.27,.14c2.18,.55,3.82,2.18,4.36,4.36,.07,.14,.07,.27,.14,.27s.07-.07,.14-.27c.55-2.18,2.18-3.82,4.36-4.36,.14,0,.27-.07,.27-.14Z"/><path class="cls-13" d="M152.45,283.04c0-.07-.07-.07-.27-.14-2.18-.55-3.82-2.18-4.36-4.36-.07-.14-.07-.27-.14-.27s-.07,.07-.14,.27c-.55,2.18-2.18,3.82-4.36,4.36-.14,.07-.27,.07-.27,.14s.07,.07,.27,.14c2.18,.54,3.82,2.18,4.36,4.36,.07,.14,.07,.27,.14,.27s.07-.07,.14-.27c.55-2.18,2.18-3.82,4.36-4.36,.2,0,.27-.07,.27-.14Z"/><path class="cls-13" d="M31.87,256.19c0-.07-.07-.07-.27-.14-2.18-.55-3.82-2.18-4.36-4.36-.07-.14-.07-.27-.14-.27s-.07,.07-.14,.27c-.55,2.18-2.18,3.82-4.36,4.36-.14,.07-.27,.07-.27,.14s.07,.07,.27,.14c2.18,.54,3.82,2.18,4.36,4.36,.07,.14,.07,.27,.14,.27s.07-.07,.14-.27c.55-2.18,2.18-3.82,4.36-4.36,.2,0,.27-.07,.27-.14Z"/><path class="cls-13" d="M492.43,285.02c0-.07-.07-.07-.27-.14-2.18-.55-3.82-2.18-4.36-4.36-.07-.14-.07-.27-.14-.27s-.07,.07-.14,.27c-.55,2.18-2.18,3.82-4.36,4.36-.14,.07-.27,.07-.27,.14s.07,.07,.27,.14c2.18,.54,3.82,2.18,4.36,4.36,.07,.14,.07,.27,.14,.27s.07-.07,.14-.27c.54-2.18,2.18-3.82,4.36-4.36,.2-.07,.27-.07,.27-.14Z"/><path class="cls-13" d="M472.36,383.3c0-.07-.07-.07-.27-.14-2.18-.55-3.82-2.18-4.36-4.36-.07-.14-.07-.27-.14-.27s-.07,.07-.14,.27c-.55,2.18-2.18,3.82-4.36,4.36-.14,.07-.27,.07-.27,.14s.07,.07,.27,.14c2.18,.54,3.82,2.18,4.36,4.36,.07,.14,.07,.27,.14,.27s.07-.07,.14-.27c.54-2.18,2.18-3.82,4.36-4.36,.2-.07,.27-.07,.27-.14Z"/><path class="cls-13" d="M443.13,195.63c0-.07-.07-.07-.27-.14-2.18-.55-3.82-2.18-4.36-4.36-.07-.14-.07-.27-.14-.27s-.07,.07-.14,.27c-.55,2.18-2.18,3.82-4.36,4.36-.14,.07-.27,.07-.27,.14s.07,.07,.27,.14c2.18,.54,3.82,2.18,4.36,4.36,.07,.14,.07,.27,.14,.27s.07-.07,.14-.27c.54-2.18,2.18-3.82,4.36-4.36,.2-.07,.27-.07,.27-.14Z"/><path class="cls-13" d="M462.82,75.28c0-.07-.07-.07-.27-.14-2.18-.55-3.82-2.18-4.36-4.36-.07-.14-.07-.27-.14-.27s-.07,.07-.14,.27c-.55,2.18-2.18,3.82-4.36,4.36-.14,.07-.27,.07-.27,.14s.07,.07,.27,.14c2.18,.54,3.82,2.18,4.36,4.36,.07,.14,.07,.27,.14,.27s.07-.07,.14-.27c.54-2.18,2.18-3.82,4.36-4.36,.2-.07,.27-.07,.27-.14Z"/><path class="cls-13" d="M379.02,30.62c0-.07-.07-.07-.27-.14-2.18-.55-3.82-2.18-4.36-4.36-.07-.14-.07-.27-.14-.27s-.07,.07-.14,.27c-.55,2.18-2.18,3.82-4.36,4.36-.14,.07-.27,.07-.27,.14s.07,.07,.27,.14c2.18,.54,3.82,2.18,4.36,4.36,.07,.14,.07,.27,.14,.27s.07-.07,.14-.27c.54-2.18,2.18-3.82,4.36-4.36,.2-.07,.27-.07,.27-.14Z"/><path class="cls-13" d="M168.51,241.57c.64,0,1.16-.52,1.16-1.16s-.52-1.16-1.16-1.16-1.16,.52-1.16,1.16,.52,1.16,1.16,1.16Z"/><path class="cls-13" d="M179.73,310.62c.64,0,1.16-.52,1.16-1.16s-.52-1.16-1.16-1.16-1.16,.52-1.16,1.16,.52,1.16,1.16,1.16Z"/><path class="cls-13" d="M278.67,320.34c.64,0,1.16-.52,1.16-1.16s-.52-1.16-1.16-1.16-1.16,.52-1.16,1.16,.52,1.16,1.16,1.16Z"/><path class="cls-13" d="M228.89,367.6c.64,0,1.16-.52,1.16-1.16s-.52-1.16-1.16-1.16-1.16,.52-1.16,1.16,.52,1.16,1.16,1.16Z"/><path class="cls-13" d="M98.65,292.14c.64,0,1.16-.52,1.16-1.16s-.52-1.16-1.16-1.16-1.16,.52-1.16,1.16,.52,1.16,1.16,1.16Z"/><path class="cls-13" d="M86.79,246.66c.64,0,1.16-.52,1.16-1.16s-.52-1.16-1.16-1.16-1.16,.52-1.16,1.16,.52,1.16,1.16,1.16Z"/><path class="cls-13" d="M403.59,276.77c.64,0,1.16-.52,1.16-1.16s-.52-1.16-1.16-1.16-1.16,.52-1.16,1.16,.52,1.16,1.16,1.16Z"/><path class="cls-13" d="M221.8,285.36c.64,0,1.16-.52,1.16-1.16s-.52-1.16-1.16-1.16-1.16,.52-1.16,1.16,.52,1.16,1.16,1.16Z"/><path class="cls-13" d="M185.15,348.57c.64,0,1.16-.52,1.16-1.16s-.52-1.16-1.16-1.16-1.16,.52-1.16,1.16,.52,1.16,1.16,1.16Z"/><path class="cls-13" d="M391.72,355.66c.64,0,1.16-.52,1.16-1.16s-.52-1.16-1.16-1.16-1.16,.52-1.16,1.16,.52,1.16,1.16,1.16Z"/><path class="cls-13" d="M374.25,404c.64,0,1.16-.52,1.16-1.16s-.52-1.16-1.16-1.16-1.16,.52-1.16,1.16,.52,1.16,1.16,1.16Z"/><path class="cls-13" d="M483.02,220.99c.64,0,1.16-.52,1.16-1.16s-.52-1.16-1.16-1.16-1.16,.52-1.16,1.16,.52,1.16,1.16,1.16Z"/><path class="cls-13" d="M114.96,205.22c1.36,0,2.45-1.1,2.45-2.46s-1.1-2.45-2.45-2.45-2.45,1.1-2.45,2.45,1.1,2.46,2.45,2.46Z"/><path class="cls-13" d="M191.63,202.86c1.36,0,2.45-1.1,2.45-2.46s-1.1-2.45-2.45-2.45-2.45,1.1-2.45,2.45,1.1,2.46,2.45,2.46Z"/><path class="cls-13" d="M18.4,176.36c1.36,0,2.45-1.1,2.45-2.46s-1.1-2.45-2.45-2.45-2.45,1.1-2.45,2.45,1.1,2.46,2.45,2.46Z"/><path class="cls-13" d="M110.05,343.59c1.36,0,2.45-1.1,2.45-2.46s-1.1-2.45-2.45-2.45-2.45,1.1-2.45,2.45,1.1,2.46,2.45,2.46Z"/><path class="cls-13" d="M228.89,321.64c1.35,0,2.45-1.1,2.45-2.46s-1.1-2.45-2.45-2.45-2.46,1.1-2.46,2.45,1.1,2.46,2.46,2.46Z"/><path class="cls-13" d="M438.36,261.09c1.35,0,2.45-1.1,2.45-2.46s-1.1-2.45-2.45-2.45-2.46,1.1-2.46,2.45,1.1,2.46,2.46,2.46Z"/><path class="cls-13" d="M215.18,236.81c1.36,0,2.46-1.1,2.46-2.45s-1.1-2.46-2.46-2.46-2.45,1.1-2.45,2.46,1.1,2.45,2.45,2.45Z"/><path class="cls-13" d="M295.44,356.96c1.35,0,2.45-1.1,2.45-2.45s-1.1-2.46-2.45-2.46-2.46,1.1-2.46,2.46,1.1,2.45,2.46,2.45Z"/><path class="cls-13" d="M355.51,334.11c1.36,0,2.46-1.1,2.46-2.45s-1.1-2.46-2.46-2.46-2.46,1.1-2.46,2.46,1.1,2.45,2.46,2.45Z"/><path class="cls-13" d="M448.24,332.68c1.36,0,2.46-1.1,2.46-2.46s-1.1-2.45-2.46-2.45-2.46,1.1-2.46,2.45,1.1,2.46,2.46,2.46Z"/><path class="cls-13" d="M410.82,402.84c1.36,0,2.46-1.1,2.46-2.46s-1.1-2.45-2.46-2.45-2.46,1.1-2.46,2.45,1.1,2.46,2.46,2.46Z"/><path class="cls-13" d="M403.59,148.58c0-.07,.07-.07,.27-.14,2.18-.55,3.82-2.18,4.36-4.36,.07-.14,.07-.27,.14-.27s.07,.07,.14,.27c.55,2.18,2.18,3.82,4.36,4.36,.14,.07,.27,.07,.27,.14s-.07,.07-.27,.14c-2.18,.55-3.82,2.18-4.36,4.36-.07,.14-.07,.27-.14,.27s-.07-.07-.14-.27c-.55-2.18-2.18-3.82-4.36-4.36-.2-.07-.27-.14-.27-.14Z"/><path class="cls-13" d="M286.85,45.69c0-.07,.07-.07,.27-.14,2.18-.55,3.82-2.18,4.36-4.36,.07-.14,.07-.27,.14-.27s.07,.07,.14,.27c.54,2.18,2.18,3.82,4.36,4.36,.14,.07,.27,.07,.27,.14s-.07,.07-.27,.14c-2.18,.55-3.82,2.18-4.36,4.36-.07,.14-.07,.27-.14,.27s-.07-.07-.14-.27c-.55-2.18-2.18-3.82-4.36-4.36-.2-.07-.27-.14-.27-.14Z"/><path class="cls-13" d="M86.79,70.51c0-.07,.07-.07,.27-.14,2.18-.55,3.82-2.18,4.36-4.36,.07-.14,.07-.27,.14-.27s.07,.07,.14,.27c.55,2.18,2.18,3.82,4.36,4.36,.14,.07,.27,.07,.27,.14s-.07,.07-.27,.14c-2.18,.55-3.82,2.18-4.36,4.36-.07,.14-.07,.27-.14,.27s-.07-.07-.14-.27c-.55-2.18-2.18-3.82-4.36-4.36-.14-.07-.27-.07-.27-.14Z"/><path class="cls-13" d="M394.03,111.21c.64,0,1.16-.52,1.16-1.16s-.52-1.16-1.16-1.16-1.16,.52-1.16,1.16,.52,1.16,1.16,1.16Z"/><path class="cls-13" d="M413.27,59.39c.64,0,1.16-.52,1.16-1.16s-.52-1.16-1.16-1.16-1.16,.52-1.16,1.16,.52,1.16,1.16,1.16Z"/><path class="cls-13" d="M231.68,99.01c.64,0,1.16-.52,1.16-1.16s-.52-1.16-1.16-1.16-1.16,.52-1.16,1.16,.52,1.16,1.16,1.16Z"/><path class="cls-13" d="M136.43,82.99c.64,0,1.16-.52,1.16-1.16s-.52-1.16-1.16-1.16-1.16,.52-1.16,1.16,.52,1.16,1.16,1.16Z"/><path class="cls-13" d="M205.64,130.17c.64,0,1.16-.52,1.16-1.16s-.52-1.16-1.16-1.16-1.16,.52-1.16,1.16,.52,1.16,1.16,1.16Z"/><path class="cls-13" d="M163.43,171.15c.64,0,1.16-.52,1.16-1.16s-.52-1.16-1.16-1.16-1.16,.52-1.16,1.16,.52,1.16,1.16,1.16Z"/><path class="cls-13" d="M64.15,199.11c.64,0,1.16-.52,1.16-1.16s-.52-1.16-1.16-1.16-1.16,.52-1.16,1.16,.52,1.16,1.16,1.16Z"/><path class="cls-13" d="M1.16,220.53c.64,0,1.16-.52,1.16-1.16s-.52-1.16-1.16-1.16-1.16,.52-1.16,1.16,.52,1.16,1.16,1.16Z"/><path class="cls-13" d="M392.88,206.74c.64,0,1.16-.52,1.16-1.16s-.52-1.16-1.16-1.16-1.16,.52-1.16,1.16,.52,1.16,1.16,1.16Z"/><path class="cls-13" d="M339.45,58.23c.64,0,1.16-.52,1.16-1.16s-.52-1.16-1.16-1.16-1.16,.52-1.16,1.16,.52,1.16,1.16,1.16Z"/><path class="cls-13" d="M316.63,16.84c.64,0,1.16-.52,1.16-1.16s-.52-1.16-1.16-1.16-1.16,.52-1.16,1.16,.52,1.16,1.16,1.16Z"/><path class="cls-13" d="M271.59,2.32c.64,0,1.16-.52,1.16-1.16s-.52-1.16-1.16-1.16-1.16,.52-1.16,1.16,.52,1.16,1.16,1.16Z"/><path class="cls-13" d="M212.73,48.01c.64,0,1.16-.52,1.16-1.16s-.52-1.16-1.16-1.16-1.16,.52-1.16,1.16,.52,1.16,1.16,1.16Z"/><path class="cls-13" d="M257.66,24.75c.64,0,1.16-.52,1.16-1.16s-.52-1.16-1.16-1.16-1.16,.52-1.16,1.16,.52,1.16,1.16,1.16Z"/><path class="cls-13" d="M177.41,23.6c.64,0,1.16-.52,1.16-1.16s-.52-1.16-1.16-1.16-1.16,.52-1.16,1.16,.52,1.16,1.16,1.16Z"/><path class="cls-13" d="M65.31,112.37c.64,0,1.16-.52,1.16-1.16s-.52-1.16-1.16-1.16-1.16,.52-1.16,1.16,.52,1.16,1.16,1.16Z"/><path class="cls-13" d="M365.81,97.99c1.36,0,2.45-1.1,2.45-2.45s-1.1-2.45-2.45-2.45-2.46,1.1-2.46,2.45,1.1,2.45,2.46,2.45Z"/><path class="cls-13" d="M443.26,135.08c1.36,0,2.46-1.1,2.46-2.45s-1.1-2.45-2.46-2.45-2.45,1.1-2.45,2.45,1.1,2.45,2.45,2.45Z"/><path class="cls-13" d="M483.02,118.38c1.36,0,2.46-1.1,2.46-2.45s-1.1-2.45-2.46-2.45-2.45,1.1-2.45,2.45,1.1,2.45,2.45,2.45Z"/><path class="cls-13" d="M213.89,100.3c1.36,0,2.45-1.1,2.45-2.45s-1.1-2.45-2.45-2.45-2.46,1.1-2.46,2.45,1.1,2.45,2.46,2.45Z"/><path class="cls-13" d="M138.13,132.63c1.36,0,2.45-1.1,2.45-2.45s-1.1-2.45-2.45-2.45-2.45,1.1-2.45,2.45,1.1,2.45,2.45,2.45Z"/><path class="cls-25" d="M208.91,34.95c-.75-3.95-1.09-9.07,2.66-11.59,2.8-1.84,3.2,2.25,3.75,4.5,.95,3.89,1.36,9.07-2.52,11.59-3.14,2.05-2.8-2.45-3.89-4.5Z"/><path class="cls-22" d="M211.43,41.01c-.27,0-.54-.07-.82-.14-1.29-.48-1.64-2.05-2.04-3.55-.2-.68-.34-1.43-.61-1.91l-.07-.14v-.14c-.41-2.32-1.77-9.34,3.14-12.61,.95-.68,1.91-.82,2.73-.48,1.57,.61,2.05,2.8,2.46,4.7,.07,.34,.14,.68,.2,.95,1.91,7.7-.61,11.18-3,12.68-.75,.41-1.36,.61-1.98,.61Zm-1.5-6.41c.34,.68,.54,1.5,.68,2.25,.14,.61,.48,1.91,.75,2.05,0,0,.2,.07,.82-.34,2.66-1.7,3.34-5.25,2.11-10.43-.07-.34-.14-.61-.2-1.02-.2-.95-.61-2.93-1.16-3.2-.07-.07-.34,0-.75,.27-2.52,1.7-3.2,5.11-2.25,10.43Z"/><g><path class="cls-3" d="M374.13,297.52c.02-.19,.04-.37,.05-.56,.02-.25,.04-.5,.05-.74,0-.06,0-.11,0-.16,0-.24,.01-.47,0-.7,0-.02,0-.05,0-.07,0-.05,0-.09,0-.14,0-.21-.01-.42-.02-.63,0-.06,0-.12,0-.17-.03-.52-.09-1.03-.16-1.51,0-.05-.02-.1-.02-.15-.03-.19-.06-.39-.1-.57-.01-.05-.02-.11-.03-.16-.01-.06-.02-.11-.03-.17,0-.04-.02-.08-.03-.12-1.05-4.76-3.74-7.42-3.74-7.47l-3.61-3.55c-.78-.78-1.57-1.54-2.32-2.28l-9.21-9.04-7.28-7.14c.72-.14,1.43-.36,2.12-.68l8.54-4.02c.27-.13,.54-.27,.79-.43,3.81-2.31,5.32-7.17,3.37-11.28l-4.16-8.82c.79-3.12,.97-6.34,.56-9.51-.71-5.49-3.19-10.8-7.31-15.05-.93-1-2.01-2.01-3.23-3.02-1.15-.93-2.37-1.79-3.66-2.66-.29-.17-.58-.34-.87-.51l-1.93-4.08c-.79-1.66-2.04-2.96-3.51-3.82-.52-.31-1.08-.57-1.65-.78,0,.01,.02,.03,.03,.04-1.67-.56-3.51-.62-5.28-.09,.08-.06,.15-.12,.23-.18,.02-.02,.05-.03,.07-.05,.14-.11,.28-.22,.41-.32,.64-.49,1.27-1,1.89-1.52,.03-.03,.07-.05,.1-.08,.31-.26,.61-.52,.92-.79,.11-.09,.21-.19,.32-.28,.31-.27,.62-.55,.92-.83,.04-.04,.09-.08,.13-.12,.04-.03,.07-.07,.11-.11,.33-.31,.67-.62,.99-.94,0,0,0,0,.01-.01,.73-.71,1.46-1.44,2.15-2.18,.03-.04,.06-.08,.1-.12,.3-.32,.6-.65,.9-.98,.24,.15,.48,.3,.73,.44,1.33,.77,2.77,1.31,4.31,1.59,7.98,1.46,16.06-4.61,20.17-14.28,1.08-2.15,1.9-4.57,2.38-7.19,0,0,0-.02,0-.02,0,0,0-.02,0-.03,0-.05,.01-.1,.02-.16,.02-.14,.04-.28,.07-.42,.19-1.2,.3-2.38,.33-3.54,0-.09,0-.17,0-.26,0-.22,0-.43,0-.64,0-.2,0-.4-.01-.6,0-.09,0-.17,0-.26-.03-.79-.09-1.57-.2-2.32,0,.01,0,.02,0,.04-.03-.24-.07-.47-.11-.71-.79-9.57-5.81-17.27-13.11-18.97-1.94-14.23-9.04-27.18-19.63-36.93,.06,.05,.12,.1,.18,.15-7.3-6.79-16.33-12.04-26.46-15.1-.13-.04-.26-.08-.39-.11-.81-.24-1.62-.46-2.44-.67-.3-.08-.61-.15-.91-.23-.56-.13-1.12-.26-1.68-.39-.48-.1-.96-.2-1.44-.3-.34-.07-.68-.13-1.02-.19-.7-.13-1.4-.24-2.11-.35-.24-.04-.48-.07-.72-.1-.81-.11-1.63-.22-2.46-.3-29.67-3.06-56.69,12.83-67.46,37.4-.07,.15-.13,.31-.2,.46-.19,.44-.37,.89-.55,1.34-.09,.23-.18,.46-.27,.69-.18,.46-.35,.92-.51,1.38-.12,.34-.24,.68-.35,1.02-.07,.21-.14,.43-.21,.64-.42,1.3-.8,2.63-1.13,3.97-.02,.1-.05,.2-.07,.3-.1,.4-.19,.8-.28,1.2-1.27,.56-2.47,1.25-3.59,2.05,.1-.69,.21-1.38,.32-2.06,.43-2.3,.93-4.52,1.51-6.75,1.15-4.45,2.58-8.83,4.45-12.99l.65-1.58,.72-1.51c.5-1.08,.93-2.08,1.51-3.09,1.15-2.01,2.15-4.02,3.45-5.89,2.37-3.88,5.24-7.39,8.11-10.84l.14-.14c.07,0,.07-.07,.14-.14,1.15-1.58,.79-3.66-.72-4.81-1.58-1.15-3.66-.79-4.81,.72-2.87,3.95-5.67,7.97-7.9,12.28-1.22,2.15-2.23,4.38-3.23,6.53-.5,1.15-.93,2.23-1.36,3.37l-.65,1.65-.57,1.72c-1.65,4.52-2.87,9.19-3.8,13.93-.77,4.21-1.36,8.37-1.48,12.72-2.23,2.57-3.84,5.73-4.48,9.32-.08,.46-.14,.93-.19,1.39,0,.08-.02,.15-.02,.23-.09,.95-.12,1.9-.07,2.83,0,.02,0,.04,0,.05,.09,1.95,.48,3.85,1.11,5.64,0,0,0,0,0,0,.32,.89,.69,1.75,1.13,2.58,.01,.02,.02,.04,.03,.06,.43,.82,.92,1.6,1.46,2.35,.02,.03,.04,.05,.06,.08,2.33,3.21,5.62,5.72,9.54,7.07,.04,.14,.09,.28,.13,.42,.03,.1,.07,.21,.1,.31,.16,.5,.33,1,.51,1.49,.03,.09,.06,.17,.1,.26,.19,.52,.39,1.03,.59,1.54,.02,.05,.04,.1,.06,.15,.21,.51,.42,1.01,.65,1.51,.02,.05,.04,.1,.07,.15,.23,.51,.47,1.01,.72,1.51,.04,.08,.08,.16,.12,.24,.25,.48,.5,.96,.77,1.44,.05,.09,.1,.18,.15,.27,.27,.47,.54,.93,.83,1.39,.06,.09,.11,.18,.17,.27,.29,.46,.6,.92,.91,1.37,.06,.08,.11,.16,.17,.24,.33,.46,.66,.91,1.01,1.36,.04,.05,.09,.11,.13,.16,.37,.46,.74,.92,1.13,1.37,0,0,.01,.02,.02,.03,.01,.01,.03,.03,.04,.04,.42,.48,.85,.94,1.29,1.4,.2,.21,.4,.42,.6,.63,.31,.32,.62,.63,.93,.93,.4,.39,.8,.77,1.2,1.14,.64,.6,1.3,1.18,1.96,1.74h0c-1.72,.57-2.8,2.15-2.73,3.88v.04s0,.02,0,.03h0s.17,4.5,.17,4.5l.47,12.37h0v.33s-.04-.01-.06-.02c-.16-.05-.32-.09-.48-.12-.13-.03-.26-.04-.39-.06-.21-.03-.42-.05-.63-.06-.11,0-.23,0-.34,0-.22,0-.43,0-.65,.03-.13,.01-.27,.03-.4,.05-.18,.03-.35,.06-.53,.1-.19,.04-.37,.09-.55,.15-.05,.02-.1,.02-.14,.04,0,0,0,0,.01,0-.2,.07-.4,.12-.59,.21-2.83,1.35-5.98,4.22-6,10.56,0,.44,0,.89,.04,1.36,.36,6.96,3.66,9.98,6.68,11.27,.12,.05,.24,.1,.36,.14h0s0,0,.01,0c.11,.04,.22,.08,.33,.11,.08,.03,.17,.05,.25,.07,.03,0,.05,.01,.08,.02,1.31,.34,2.68,.25,3.93-.2l.21,5.31v.14c.05,1.22,.64,2.3,1.57,2.98,.27,.21,.56,.39,.88,.53,0,0,0,0,.01,0,.07,.03,.14,.04,.2,.07,.14,.05,.28,.11,.42,.14l.7,.16,31.89,7.24c.65,.14,1.29,.14,1.94-.07l7.32-2.12c-3.67,4.83-6.64,11.03-5.27,17.6-.13,.18-.26,.36-.39,.53-.72,.93-.5,2.3,.43,3.02,.39,.3,.86,.43,1.33,.42,.44,.9,.96,1.8,1.59,2.7,0,.01,.02,.03,.03,.04,.36,.52,.73,1.02,1.12,1.51,.04,.06,.09,.11,.13,.17,.36,.46,.74,.92,1.12,1.36,.01,.01,.02,.03,.04,.04,4.55,5.24,10.43,9.15,16.11,11.99,1.15,.57,2.29,1.1,3.4,1.6,.09,.04,.17,.08,.26,.12,.36,.16,.73,.31,1.08,.46,2.48,1.04,4.82,1.88,6.89,2.55,.17,.07,.34,.13,.52,.18,6.09,1.92,5.09,8.86,9.99,12.97,1.18,.99,2.82,1.71,5.06,1.97,.1,.01,.21,.02,.31,.03,.26,.03,.52,.05,.8,.06,.24,.01,.5,.01,.75,.02,.17,0,.33,0,.5,0,.49,0,.99-.03,1.53-.08,6.9-.6,13.12-6.34,15.19-13.68,2.18,2.86,3.4,6.43,4.85,9.82,3.74,10.07,16.15,5.56,20.31-4.97,.78-2,1.22-3.86,1.43-5.57,0-.07,.02-.13,.02-.2Z"/><g><path class="cls-23" d="M358.33,257.49l-8.54,4.02c-4.38,2.08-9.62,.22-11.7-4.16l-20.6-43.65c-2.08-4.38-.22-9.62,4.16-11.7l8.54-4.02c4.38-2.08,9.62-.21,11.7,4.16l20.6,43.65c2.08,4.38,.21,9.62-4.16,11.7Z"/><path class="cls-19" d="M362.49,245.79l-20.6-43.65c-1.08-2.23-2.94-3.81-5.17-4.59,.21,.29,.36,.65,.57,1.01l20.6,43.65c2.08,4.38,.21,9.62-4.16,11.7l-8.54,4.02c-2.15,1-4.45,1.08-6.53,.36,2.37,3.66,7.11,5.1,11.13,3.23l8.54-4.02c4.38-2.08,6.25-7.32,4.16-11.7Z"/><path class="cls-6" d="M358.33,257.49l-8.54,4.02c-4.38,2.08-9.62,.22-11.7-4.16l-20.6-43.65c-2.08-4.38-.22-9.62,4.16-11.7l8.54-4.02c4.38-2.08,9.62-.21,11.7,4.16l20.6,43.65c2.08,4.38,.21,9.62-4.16,11.7Z"/><path class="cls-13" d="M372.68,303.22c-1.29,3.23-3.37,5.89-5.67,7.75-6.61,5.17-15.51,3.95-15.72-9.33l-15.08-14-13.93-12.92,17.09-12.71,4.59-3.37,10.91,10.7,15.15,14.86c.07,.07,7.32,7.18,2.66,19.03Z"/><path class="cls-23" d="M372.69,303.22c-4.07,10.29-16,14.84-20.04,5.66-1.91-4.33-3.31-9.06-6.78-12.28-5.7-5.3-7.46-14.07-1.99-19.61,.37-.37,.74-.73,1.1-1.07,5.38-5.03,13.3-3.32,18.56,1.83l.45,.44c3.91,3.84,8.74,8.22,9.88,13.58,.64,3.02,.61,6.88-1.18,11.44Z"/><path class="cls-19" d="M372.68,303.22c-1.29,3.23-3.37,5.89-5.67,7.75-4.02,1.58-7.68,1.08-9.05-4.31-1.51-5.89,.86-9.84,3.66-12.35,2.87-2.58,3.02-7.04,.29-9.76l-18.95-19.02s-1.65-1.58-3.52-3.52l4.59-3.37,10.91,10.7,15.15,14.86c0,.07,7.25,7.18,2.58,19.03Z"/><path class="cls-18" d="M349.78,301.79c0-.5,0-.86,.07-1.29s.22-.79,.36-1.15c.36-.79,.79-1.51,1.44-2.01,.22-.14,.5-.14,.72,.07,.07,.07,.07,.14,.14,.29l.07,1.08,.14,1,.14,.93c.07,.29,.07,.65,.07,.86v.07c0,.86-.65,1.58-1.51,1.58-.93,0-1.58-.57-1.65-1.44Z"/><path class="cls-5" d="M354.95,269.34s-11.27,3.95-18.74,18.31"/><path class="cls-5" d="M344.04,258.64l26.06,25.63s7.25,7.11,2.58,19.02c-4.88,12.35-21.11,16.44-21.39-1.58l-29-26.92,21.75-16.15Z"/><path class="cls-13" d="M341.02,308.39c-2.51,2.08-5.53,3.45-8.69,3.73-15.15,1.29-11.34-12.99-11.34-12.99,0,0-9.55-1.8-19.74-6.89-6.75-3.37-13.78-8.26-18.52-15.08-11.92-17.09,12.28-34.03,12.28-34.03l44.51,2.3,9.62,.5c3.59,19.74-16.8,25.99-16.8,25.99,21.03,10.63,18.16,28.72,8.69,36.47Z"/><path class="cls-23" d="M332.27,312.13c-4.33,.37-7.11-.53-8.88-2.01-4.89-4.1-3.9-11.04-9.99-12.97-5.05-1.59-11.34-8.73-8.77-13.36,5-9.02,12.17-12.41,17.09-13.69,3.56-.92,7.22,.11,10.49,1.8l.06,.03c26.71,13.5,14.93,38.91,0,40.2Z"/><path class="cls-19" d="M341.02,308.39v-.65s-13.07,5.46-12.49-3.09c.43-6.89,3.02-11.92,8.54-15.36,2.37-1.51,2.66-4.88,.57-6.75-4.52-4.02-13.78-10.91-32.74-21.18-1.15-.65-.79-2.37,.57-2.44,1.44-.07,3.3,.36,5.74,2.01,0,0,28.43,7.54,28.43-15.22v-.21l9.62,.5c3.59,19.74-16.8,25.99-16.8,25.99,20.89,10.55,18.02,28.64,8.54,36.4Z"/><path class="cls-18" d="M331.55,273.36c-1.79-.93-3.52-1.87-5.24-2.8-1.72-.93-3.52-1.94-5.24-2.87-1.72-1.01-3.45-1.94-5.17-2.94s-3.45-2.08-5.1-3.23c-.29-.21-.36-.57-.14-.86,.14-.21,.43-.36,.72-.21,1.87,.72,3.73,1.51,5.53,2.3,1.79,.79,3.59,1.72,5.38,2.58,1.8,.86,3.59,1.72,5.38,2.58,1.79,.86,3.59,1.79,5.31,2.73,.79,.43,1.08,1.36,.65,2.08-.36,.72-1.29,1-2.08,.65Z"/><path class="cls-5" d="M327.31,269.34s-19.24-.79-26.06,22.83"/><path class="cls-18" d="M313.6,263.16c-2.87-.21-5.82-.14-8.76,.07-2.87,.29-5.74,.79-8.47,1.51-1.36,.43-2.66,.86-3.95,1.44-1.29,.57-2.44,1.22-3.59,1.94-2.3,1.44-4.24,3.3-5.89,5.38l-.07,.07c-.72,.93-2.15,1.15-3.09,.43-.93-.72-1.15-2.08-.43-3.02,.5-.65,.93-1.36,1.51-1.94,.5-.65,1.08-1.22,1.72-1.79,1.22-1.15,2.51-2.15,3.95-2.94,2.8-1.65,5.89-2.73,8.97-3.37,3.09-.65,6.25-.86,9.33-.72,3.09,.07,6.1,.5,9.12,1.22,.5,.14,.79,.57,.65,1.08-.14,.43-.57,.72-1,.65Z"/><path class="cls-18" d="M319.49,298.7c.14-.43,.29-.65,.43-.93,.14-.29,.29-.57,.5-.79,.36-.5,.72-1.01,1.15-1.44,.43-.43,.86-.86,1.36-1.22,.5-.36,1-.72,1.58-.93,.29-.14,.65,.07,.79,.36,.07,.14,.07,.36-.07,.5v.07c-.29,.5-.57,.93-.86,1.36s-.57,.86-.79,1.29c-.21,.43-.43,.93-.65,1.36l-.22,.72c-.07,.22-.14,.5-.14,.65-.14,.86-1.01,1.36-1.87,1.22-.86-.14-1.36-1.01-1.22-1.87-.07-.21-.07-.29,0-.36Z"/><path class="cls-5" d="M295.01,243.13s-24.27,16.94-12.28,34.03c11.92,17.09,38.26,21.97,38.26,21.97,0,0-3.81,14.29,11.34,12.99,14.93-1.29,26.71-26.71,0-40.13,0,0,20.39-6.25,16.8-25.99l-54.13-2.87Z"/><path class="cls-18" d="M218.05,142.34c0-4.95,.65-9.62,1.51-14.36,.93-4.74,2.15-9.4,3.8-13.93l.57-1.72,.65-1.65c.43-1.15,.86-2.23,1.36-3.37,1.01-2.15,2.01-4.38,3.23-6.53,2.23-4.31,5.03-8.33,7.9-12.28,1.15-1.51,3.23-1.87,4.81-.72,1.51,1.15,1.87,3.23,.72,4.81-.07,.07-.07,.14-.14,.14l-.14,.14c-2.87,3.45-5.74,6.96-8.11,10.84-1.29,1.87-2.3,3.88-3.45,5.89-.57,1.01-1.01,2.01-1.51,3.09l-.72,1.51-.65,1.58c-1.87,4.16-3.3,8.54-4.45,12.99-.57,2.23-1.08,4.45-1.51,6.75-.36,2.23-.72,4.59-.86,6.75v.07c-.07,.86-.79,1.51-1.65,1.44-.72,.07-1.36-.65-1.36-1.44Z"/><path class="cls-23" d="M233.12,173.35c10.9,0,19.74-8.84,19.74-19.74s-8.84-19.74-19.74-19.74-19.74,8.84-19.74,19.74,8.84,19.74,19.74,19.74Z"/><path class="cls-13" d="M222.21,170.12c-6.46-4.24-10.05-12.06-8.62-20.1,.86-4.88,3.52-8.97,7.11-11.85-.43,1.22-5.46,16.01,1.51,31.95Z"/><path class="cls-19" d="M252.22,148.58c-2.08,10.55-12.28,17.52-22.97,15.58-7.83-1.44-13.64-7.25-15.58-14.43,0,.07-.07,.22-.07,.29-1.94,10.77,5.17,21.04,15.87,23.05,10.77,1.94,21.04-5.17,23.05-15.87,.57-2.94,.43-5.89-.29-8.62Z"/><path class="cls-4" d="M220.77,138.1s-5.74,15.36,1.51,32.02"/><path class="cls-5" d="M233.12,173.35c10.9,0,19.74-8.84,19.74-19.74s-8.84-19.74-19.74-19.74-19.74,8.84-19.74,19.74,8.84,19.74,19.74,19.74Z"/><path class="cls-24" d="M283.45,210.54c36.26,3.73,68.56-20.82,72.08-54.92,3.52-34.1-23.05-64.76-59.3-68.49-36.25-3.73-68.56,20.82-72.08,54.92,0,0-4.09,28.72,10.84,45.73,18.59,21.04,48.46,22.76,48.46,22.76Z"/><path class="cls-13" d="M276.77,205.66c33.6,5.46,64.83-14.65,69.78-45.01,4.95-30.3-18.24-59.37-51.83-64.83-33.6-5.46-64.83,14.65-69.78,45.01,0,0-3.16,23.76,9.84,42,15.72,22.04,42,22.83,42,22.83Z"/><path class="cls-8" d="M276.77,205.66c33.6,5.46,64.83-14.65,69.78-45.01,4.95-30.3-18.24-59.37-51.83-64.83-33.6-5.46-64.83,14.65-69.78,45.01,0,0-3.16,23.76,9.84,42,15.72,22.04,42,22.83,42,22.83Z"/><path class="cls-23" d="M353.16,158.35c3.52-34.1-23.05-64.76-59.3-68.49-22.11-2.3-42.72,5.96-56.28,20.46-7.22,8.71-12.07,19.37-13.37,31.22-.04,.34-.08,.66-.12,1-.45,3.85-2.88,29.53,10.9,45.24,17.04,19.35,43.73,22.36,47.9,22.72,.38,.03,.75,.06,1.13,.1,21.89,2.1,42.26-6.14,55.71-20.52,7.39-8.83,12.2-19.67,13.42-31.73Zm-74.38,43.2c-.38-.04-.74-.07-1.12-.1-3.88-.35-27.26-3.11-42.16-20.06-12.09-13.74-10.01-36.31-9.61-39.81,.04-.32,.07-.63,.11-.95,3.34-29.83,31.71-51.19,63.48-47.91,32.02,3.3,55.42,30.37,52.26,60.38-3.07,29.9-31.18,51.51-62.97,48.44Z"/><path class="cls-14" d="M237.79,190.15c-15-17.01-10.91-45.73-10.91-45.73,3.52-34.1,35.82-58.65,72.08-54.92,14.21,1.44,26.92,7.04,36.9,15.36-10.34-9.62-24.12-16.15-39.63-17.73-36.25-3.73-68.56,20.82-72.08,54.92,0,0-4.09,28.72,10.84,45.73,2.08,2.3,4.24,4.45,6.53,6.32-1.29-1.22-2.51-2.51-3.73-3.95Z"/><path class="cls-17" d="M275.48,199.41c30.08,4.88,57.94-12.42,62.17-38.7,4.31-26.28-16.58-51.55-46.66-56.5-16.66-2.73-32.67,1.36-44.37,10.12-12.99,9.69-19.46,25.63-17.73,41.78,.79,7.39,3.02,16.44,8.83,23.33,15.44,18.24,37.76,19.96,37.76,19.96Z"/><path class="cls-15" d="M272.54,189.5c23.05,3.73,44.37-9.55,47.67-29.65,3.3-20.17-12.71-39.56-35.75-43.29-12.78-2.08-25.06,1.08-33.96,7.75-9.91,7.39-14.93,19.67-13.57,32.02,.57,5.67,2.3,12.56,6.75,17.88,11.77,14,28.86,15.29,28.86,15.29Z"/><path class="cls-18" d="M257.32,135.59c-1.01-.14-2.01,0-2.94,.29,1.15,1.01,1.72,2.87,1.44,4.81-.36,2.87-2.44,4.95-4.67,4.67-1.51-.22-2.66-1.44-3.16-3.16-.5,1.15-.79,2.37-1.01,3.73-.86,6.32,2.44,11.99,7.25,12.64,4.81,.65,9.48-3.95,10.27-10.34,.93-6.32-2.3-11.99-7.18-12.64Z"/><path class="cls-18" d="M299.31,138.6c-1-.14-2.01,0-2.94,.29,1.15,1.01,1.72,2.87,1.44,4.81-.36,2.87-2.44,4.95-4.67,4.67-1.51-.22-2.66-1.44-3.16-3.16-.5,1.15-.79,2.37-1.01,3.73-.86,6.32,2.44,11.99,7.25,12.64,4.81,.65,9.48-3.95,10.27-10.34,.86-6.32-2.37-11.99-7.18-12.64Z"/><path class="cls-2" d="M275.69,198.12c29.22,4.74,56.28-12.06,60.45-37.62,4.16-25.56-16.15-50.11-45.3-54.92-16.23-2.66-31.73,1.36-43.08,9.84-12.64,9.4-18.88,24.91-17.23,40.56,.79,7.18,2.94,15.94,8.62,22.61,14.86,17.8,36.54,19.53,36.54,19.53Z"/><path class="cls-7" d="M275.48,199.41c30.08,4.88,57.94-12.42,62.17-38.7,4.31-26.28-16.58-51.55-46.66-56.5-16.66-2.73-32.67,1.36-44.37,10.12-12.99,9.69-19.46,25.63-17.73,41.78,.79,7.39,3.02,16.44,8.83,23.33,15.44,18.24,37.76,19.96,37.76,19.96Z"/><path class="cls-5" d="M283.45,210.54c36.26,3.73,68.56-20.82,72.08-54.92,3.52-34.1-23.05-64.76-59.3-68.49-36.25-3.73-68.56,20.82-72.08,54.92,0,0-4.09,28.72,10.84,45.73,18.59,21.04,48.46,22.76,48.46,22.76Z"/><path class="cls-13" d="M345.64,190.94c9.83,1.8,19.82-7.81,22.31-21.46,2.5-13.65-3.45-26.17-13.28-27.97-9.83-1.8-19.82,7.81-22.31,21.46-2.5,13.65,3.45,26.17,13.28,27.97Z"/><path class="cls-19" d="M368.52,162.65c-3.02,12.71-12.56,21.39-21.9,19.67-8.19-1.51-13.64-10.41-13.78-21.18-.14,.57-.29,1.22-.36,1.87-2.51,13.64,3.45,26.2,13.28,28,9.84,1.79,19.81-7.83,22.33-21.54,.29-2.3,.43-4.59,.43-6.82Z"/><path class="cls-5" d="M345.64,190.94c9.83,1.8,19.82-7.81,22.31-21.46,2.5-13.65-3.45-26.17-13.28-27.97-9.83-1.8-19.82,7.81-22.31,21.46-2.5,13.65,3.45,26.17,13.28,27.97Z"/><path class="cls-23" d="M350.94,186.3c7.64,1.4,15.42-6.1,17.37-16.75,1.95-10.65-2.67-20.41-10.32-21.81-7.65-1.4-15.42,6.1-17.37,16.75-1.95,10.65,2.67,20.41,10.32,21.81Z"/><path class="cls-19" d="M368.52,161.29c-.07,.43-.14,.86-.21,1.29-1.94,10.7-9.76,18.16-17.37,16.8-5.6-1-9.55-6.53-10.55-13.57-1.36,10.12,3.23,19.17,10.55,20.53,7.68,1.44,15.44-6.1,17.37-16.8,.5-2.87,.57-5.67,.21-8.26Z"/><path class="cls-14" d="M343.04,164.95c1.87-10.12,8.9-17.37,16.15-16.94-.36-.14-.79-.22-1.22-.29-7.68-1.44-15.44,6.1-17.37,16.8-1.94,10.7,2.66,20.46,10.34,21.82,.43,.07,.79,.14,1.22,.14-6.96-2.15-10.98-11.49-9.12-21.54Z"/><path class="cls-10" d="M350.94,186.3c7.64,1.4,15.42-6.1,17.37-16.75,1.95-10.65-2.67-20.41-10.32-21.81-7.65-1.4-15.42,6.1-17.37,16.75-1.95,10.65,2.67,20.41,10.32,21.81Z"/><path class="cls-13" d="M356.7,180.73c5.11,.93,10.31-4.1,11.61-11.23,1.3-7.14-1.78-13.68-6.89-14.61-5.11-.93-10.31,4.1-11.61,11.23-1.3,7.14,1.78,13.68,6.89,14.62Z"/><path class="cls-19" d="M368.31,162.87c0,.07,0,.22-.07,.29-1.29,7.11-6.53,12.13-11.63,11.2-3.45-.65-5.96-3.81-6.89-7.97-1.15,7.04,1.94,13.35,6.96,14.29,5.1,.93,10.34-4.09,11.63-11.2,.43-2.3,.43-4.52,0-6.6Z"/><path class="cls-9" d="M356.7,180.73c5.11,.93,10.31-4.1,11.61-11.23,1.3-7.14-1.78-13.68-6.89-14.61-5.11-.93-10.31,4.1-11.61,11.23-1.3,7.14,1.78,13.68,6.89,14.62Z"/><path class="cls-20" d="M323.15,241.84l-45.44,13.14c-.65,.21-1.29,.21-1.94,.07l-32.59-7.4c-1.72-.43-3.02-1.94-3.09-3.73l-1.15-29.43-.65-16.94c-.07-1.72,1.01-3.3,2.73-3.88l30.94-10.34c.57-.22,1.15-.22,1.72-.14l46.81,5.38c.5,.07,1,.21,1.44,.43,1.22,.65,2.01,1.87,2.08,3.3l2.08,45.52c0,1.87-1.15,3.52-2.94,4.02Z"/><path class="cls-26" d="M295.3,199.8c1.19-.79,2.69-.93,3.95-.37l12.36,5.51c1.26,.56,2.07,1.74,2.14,3.09l.68,13.27c.07,1.35-.62,2.67-1.81,3.46l-11.68,7.76c-1.19,.79-2.69,.93-3.95,.37l-12.36-5.51c-1.26-.56-2.08-1.74-2.14-3.09l-.68-13.27c-.07-1.35,.62-2.67,1.81-3.46l11.68-7.76Z"/><path class="cls-13" d="M287.08,218.39c0-.86-.09-1.72,.02-2.58,.21-1.71,1.56-2.88,3.24-2.96,1.67-.06,3.03,1.06,3.27,2.71,.04,.24-.01,.56,.13,.71,.13,.13,.47,.06,.7,.1,1.92,.25,3.2,1.82,3.02,3.69-.03,.24,.04,.34,.29,.39,1.69,.39,2.64,1.86,2.27,3.45-.19,.79-.67,1.34-1.48,1.65-.5,.19-.98,.18-1.45-.03-2.98-1.33-5.96-2.67-8.94-3.99-.64-.28-.98-.73-.98-1.42,0-.57-.06-1.14-.09-1.72,0,0-.01-.01-.03-.01Z"/><path class="cls-13" d="M292.2,211.49c.21-.27,.37-.53,.59-.76,1.52-1.55,4.16-1.26,5.12,.57,.24,.47,.33,1.04,.45,1.57,.05,.23,.1,.34,.37,.36,2.14,.05,3.6,1.61,3.45,3.66-.03,.29,.06,.39,.34,.45,1.77,.41,2.72,2.08,2.14,3.72-.38,1.06-1.66,1.7-2.64,1.31-.15-.06-.31-.25-.36-.4-.36-1.12-1.06-1.97-2.09-2.55-.25-.15-.36-.31-.43-.59-.41-1.93-1.6-3.22-3.54-3.85-.26-.08-.39-.21-.47-.45-.44-1.32-1.31-2.28-2.61-2.87-.1-.04-.17-.09-.31-.17Z"/><path class="cls-13" d="M296.87,208.38c.21-.27,.37-.53,.59-.76,1.52-1.55,4.16-1.27,5.12,.57,.24,.47,.33,1.04,.45,1.57,.05,.23,.1,.34,.37,.36,2.14,.05,3.6,1.61,3.45,3.66-.03,.29,.06,.39,.34,.45,1.77,.41,2.72,2.08,2.14,3.72-.38,1.06-1.66,1.7-2.64,1.31-.15-.06-.31-.25-.36-.4-.36-1.12-1.06-1.97-2.09-2.55-.25-.15-.36-.31-.43-.59-.41-1.93-1.6-3.22-3.54-3.85-.26-.08-.39-.21-.47-.45-.44-1.32-1.31-2.28-2.61-2.87-.1-.04-.17-.09-.31-.17Z"/><path class="cls-19" d="M323.15,241.84l-45.44,13.14c-.65,.21-1.29,.21-1.94,.07l-32.59-7.39c-1.72-.43-3.02-1.94-3.09-3.73l-1.15-29.43s15.08,.43,9.05,22.9c0,0,1.08,11.63,28.43,11.63,0,0,9.55-2.01,17.45-4.67,2.58-.86,4.24-3.37,3.95-6.1-.57-5.96,.36-16.08,13.28-16.08,0,0,1.08-5.6,6.96-5.6,3.73,0,5.1-16.37,3.81-27.64,1.22,.65,2.01,1.87,2.08,3.3l2.08,45.52c.07,1.94-1.08,3.59-2.87,4.09Z"/><path class="cls-14" d="M241.52,204.8c-.14-3.59,2.08-6.82,5.53-7.97l28-9.33c.57-.21,1.15-.21,1.72-.14l46.81,5.38c.14,0,.29,.07,.43,.07v-.43c-.07-1.94-1.58-3.52-3.52-3.73l-46.81-5.38c-.57-.07-1.15,0-1.72,.14l-30.94,10.34c-1.65,.57-2.73,2.15-2.73,3.88l1.79,46.31c.07,1.79,1.29,3.3,3.09,3.66l-1.65-42.79Z"/><path class="cls-5" d="M272.75,183.19l4.02,72.01"/><path class="cls-5" d="M238.29,197.62l1.79,46.31c.07,1.79,1.36,3.3,3.09,3.66l32.67,7.32c.65,.14,1.29,.14,1.94-.07l45.44-13.14c1.72-.5,2.94-2.15,2.87-3.95l-2.08-45.52c-.07-1.94-1.58-3.52-3.52-3.73l-46.81-5.38c-.57-.07-1.15,0-1.72,.14l-30.94,10.48c-1.72,.57-2.8,2.15-2.73,3.88Z"/><path class="cls-23" d="M241.81,216.57c-1.87-2.08-5.03-2.58-7.61-1.44-3.02,1.44-6.39,4.59-5.96,11.85,.36,6.96,3.66,9.98,6.68,11.27,2.73,1.15,5.89,.36,7.83-1.87,3.37-3.88,6.03-12.13-.93-19.81Z"/><path class="cls-19" d="M241.81,216.57c-1.79-1.94-4.59-2.51-7.04-1.65,.93,.36,1.79,.86,2.44,1.65,6.96,7.61,4.31,15.94,.93,19.89-.79,.93-1.79,1.58-2.87,2.01,2.66,1.01,5.67,.14,7.54-2.01,3.3-3.95,5.96-12.2-1.01-19.89Z"/><path class="cls-14" d="M237.5,238.32c-3.02-1.29-6.25-4.24-6.68-11.27-.43-7.25,2.94-10.48,5.96-11.85,.5-.22,1.01-.43,1.58-.5-1.36-.29-2.8-.07-4.16,.5-3.02,1.44-6.39,4.59-5.96,11.85,.36,6.96,3.66,9.98,6.68,11.27,1.29,.57,2.66,.65,3.95,.43-.5-.14-.93-.29-1.36-.43Z"/><path class="cls-5" d="M241.81,216.57c-1.87-2.08-5.03-2.58-7.61-1.44-3.02,1.44-6.39,4.59-5.96,11.85,.36,6.96,3.66,9.98,6.68,11.27,2.73,1.15,5.89,.36,7.83-1.87,3.37-3.88,6.03-12.13-.93-19.81Z"/><path class="cls-13" d="M354.31,245.43c-1.08,1.44-2.23,2.73-3.3,3.8-2.51,2.44-5.6,4.24-8.97,5.17-1.36,.36-2.73,.65-4.16,.79-17.73,1.44-29.79-5.31-34.53-12.78-1.94-3.09-2.66-6.32-1.87-9.12,2.73-10.27,13.86-6.03,13.86-6.03-2.3-12.2,10.05-3.02,10.05-3.02l-1.08-22.83c5.24-.21,9.91,.65,13.86,2.08,2.37,.86,4.52,2.01,6.53,3.23,1.29,.86,2.51,1.72,3.66,2.66,1.22,1,2.3,2.01,3.23,3.02,8.76,9.05,10.12,22.9,2.73,33.02Z"/><path class="cls-23" d="M343,252.71c-.55,1.14-1.57,2-2.82,2.24-.74,.14-1.48,.24-2.25,.31-16.15,1.36-27.57-4.16-33.02-10.77-3.09-3.66-4.24-7.75-3.3-11.13,.67-2.51,1.84-4.16,3.23-5.21,3.86-2.92,11.7-8.3,16.16-6.42,2.03,.86,3.9,2.14,4.4,2.49,.09,.06,.05,.02,.13,.09,1.87,1.79,19.89,10.75,20.32,13.3,.65,3.91,.15,8.9-2.83,15.09Z"/><path class="cls-19" d="M354.31,245.43c-1.08,1.44-2.23,2.73-3.3,3.81-2.51,2.44-5.6,4.23-8.97,5.17-1.36,.36-2.73,.65-4.16,.79-17.73,1.44-29.79-5.31-34.53-12.78,0,0,22.83,13.57,41.21,6.25,15.29-6.1,14-29.51,3.81-39.27,1.22,1,2.3,2.01,3.23,3.02,8.76,9.05,10.12,22.9,2.73,33.02Z"/><path class="cls-19" d="M324.94,212.69s14.79-2.66,22.26,8.83c0,0-8.97,9.48-21.83,2.8l-.43-11.63Z"/><path class="cls-14" d="M316.4,230.57c-14.36-3.52-11.99,11.34-11.49,13.93-3.09-3.66-4.24-7.75-3.3-11.13,2.73-10.27,13.86-6.03,13.86-6.03-1.36-7.11,2.3-6.96,5.53-5.6-2.73,.5-2.94,4.88-2.8,7.47-.07,.86-.93,1.58-1.79,1.36Z"/><path class="cls-18" d="M326.38,223.1c.29,.14,.72,.36,1.08,.57,.36,.22,.79,.36,1.22,.5,.86,.29,1.65,.57,2.51,.72,1.72,.36,3.45,.43,5.24,.22,.86-.14,1.8-.29,2.66-.57l.65-.21c.22-.07,.43-.14,.65-.22,.43-.14,.86-.29,1.29-.5,.86-.29,1.72-.79,2.66-1.08,.86-.43,1.72-.86,2.66-1.29,.14-.07,.36,0,.43,.21,.07,.14,0,.22-.07,.36-.65,.79-1.29,1.58-2.01,2.3-.36,.36-.79,.65-1.22,1.01-.43,.36-.79,.65-1.29,.93-1.72,1.15-3.81,1.94-5.89,2.44-2.15,.43-4.38,.43-6.53-.07-1.08-.22-2.15-.57-3.16-1.01-.5-.21-1.01-.5-1.44-.79-.21-.14-.5-.29-.72-.43-.14-.07-.22-.14-.36-.29l-.36-.29c-.65-.5-.79-1.51-.21-2.15,.5-.57,1.29-.72,1.94-.43l.29,.07Z"/><path class="cls-5" d="M338.58,226.33s14.22,8.4,3.52,28.14"/><path class="cls-5" d="M325.37,224.32s-12.35-9.19-10.05,3.02c0,0-11.13-4.24-13.86,6.03-2.51,9.48,11.27,23.98,36.4,21.9,4.95-.43,9.55-2.51,13.14-5.96,1.08-1.08,2.23-2.37,3.3-3.81,7.4-10.12,6.03-23.98-2.66-32.95-5.67-5.89-14.57-11.56-27.28-11.06l1,22.83Z"/></g></g><g class="cls-11"><path class="cls-16" d="M241.84,1.16c0,1.16,0,2.32-.07,3.41-1.84,61.09-51.89,110.05-113.46,110.05S16.69,65.66,14.85,4.57c0-1.16-.07-2.32-.07-3.41,0-14.39,2.66-28.09,7.5-40.71,16.23-42.07,56.73-72,104.26-72.75h3.55c47.59,.75,88.03,30.75,104.19,72.75,4.84,12.68,7.57,26.39,7.57,40.71Z"/><path class="cls-12" d="M232.3,1.13c0,1.02,0,2.11-.07,3.14-1.64,55.98-47.53,100.85-103.92,100.85S26.03,60.24,24.4,4.26c0-1.02-.07-2.11-.07-3.14,0-13.16,2.45-25.71,6.89-37.3,14.8-38.53,51.89-66,95.46-66.62h3.27c43.57,.68,80.66,28.16,95.46,66.62,4.43,11.59,6.89,24.21,6.89,37.3Z"/><g class="cls-27"><path class="cls-25" d="M183.07,58.88c-.48-5.11-3.34-9.96-7.64-12.75-5.45-3.61-6.68-11.59-7.5-17.32-.61-4.64-3.55-8.18-8.05-5.05-10.36,7.3-25.37-3.82-28.3-14.46-2.59-11.39,.14-21.41,5.93-31.09,4.02-6.75,12.48-8.8,19.3-5.45,7.98,3.95,20.52-8.18,21.82-16.16,.14-.89,.27-2.11-.07-2.86-3.27-7.3-14.32-7.77-18.07-1.02-2.39,4.36-7.36,6-11.8,3.61-8.18-4.36-10.71-.75-13.5,7.3-.89,2.59-.89,7.23-4.09,5.25-3.14-1.98-5.86-5.86-4.23-9.55,3.95-9,7.7-18.61,10.09-28.37,.14-.61,.82-1.5,1.23-1.57,10.16-1.09,9.07-14.11,11.05-21.41,.68-2.59,.14-3.75-1.5-4.77-1.7-1.02-2.45,.14-3.14,1.98-1.09,3-2.18,6.07-3.27,9.07-.55,1.57-.75,3.89-2.52,3.61-2.05-.27-3.07-2.73-2.93-4.98,.34-6.41,2.05-13.5,5.93-18.68,2.93-3.89,8.66-6.75,13.16-3.75,5.59,3.75,9.96,3.34,16.09,.2,2.59-1.3,5.39-2.73,8.11-3.61,4.64-1.36,7.91-5.11,9.07-9.82,1.23-4.7,4.98-8.05,9.68-8.93,2.93-.55,4.84-2.18,5.73-5.73,1.57-6.34,6.55-11.11,12.55-13.16,9-3,16.36-2.52,22.91,4.16,1.77,1.84,3.61,1.09,5.39,.75,4.57-.95,9.41-1.71,13.71-2.8,3.27-.82,7.98,.75,10.09,3.34,1.43,1.77,3.07,1.98,4.7,1.71,2.25-.34,4.64-.34,6.75-.61,5.12-.61,7.3,.48,9.96,5.05,1.09,4.5-1.91,10.57-6.2,11.66-1.23,.34-2.73,.55-4.16,.55-3.95,.07-4.64,2.52-3.27,7.57,2.86,10.71-.68,26.52-12.14,30.55-2.8,.95-4.3,2.05-3,6.48,.68,2.32,1.09,5.05-.07,7.43-2.59,5.45-4.02,11.66-2.32,17.52,1.3,4.64-3.14,8.11-7.3,5.66-4.5-2.66-8.93-5.66-13.16-8.86-3.27-2.45-5.11-1.7-6.48,2.66-1.16,3.75-3.14,7.57-4.09,11.18-1.16,4.64-5.05,7.77-9.27,4.23-4.84-3.07-7.43-4.23-12.41-3-1.77,.48-3.75-.27-5.45-1.57-1.71-1.3-3.75-2.8-4.64,.82-.89,3.34,1.91,3.14,3.14,4.16,2.25,1.84,4.77,3.34,7.09,4.84,4.16,2.66,4.64,6.89,1.91,10.77-2.66,3.82-7.64,7.02-12.2,3.82-3.14-1.98-6.14-4.02-9.27-6-1.43-.95-2.86-2.59-4.16,.75-1.43,3.61,.61,3.82,1.98,4.77,5.39,3.68,10.84,7.23,16.36,10.71,4.77,3,6.34,9,3.82,13.98-5.18,10.16-4.23,21.21-.55,32.59,1.5,4.7,2.66,9.27,3.68,14.11,2.11,9.61-2.39,23.87-13.02,26.46-4.23,.95-7.7-1.98-8.93-5.86-.82-3.07-1.64-6.61-2.52-10.09Z"/><path class="cls-25" d="M-16.38-6.78c-4.43-9.07-3.75-16.23,6.41-20.11,15-6.48,29.73-13.43,44.32-20.8,2.45-1.23,4.98-2.73,7.16,0,1.84,2.32,1.7,5.18,.75,8.25-1.64,5.39,2.32,6.75,6.14,8.59,3.2,1.57,6.68-.41,9.27-3.07,2.32-2.32-.07-5.18-.55-7.77-.34-1.77-1.36-3.68,0-5.25,1.43-1.64,2.86-.07,4.09,.75,2.45,1.7,4.7,1.91,7.43,.41,2.39-1.36,4.91-1.3,6.68,1.43,1.77,2.66,1.5,6,.41,9-4.36,12.21-9.34,24.55-13.64,36.41-1.84,5.11-7.5,6.82-12,8.73-4.5,1.91-4.64,6.95-2.66,10.71,.82,1.57,1.7,2.73,3.14,2.11,5.73-2.32,10.5,1.84,14.73,4.77,3.27,2.25,7.7,3.68,11.59,1.64,4.64-2.45,8.46-2.18,13.02,.61,3.61,2.18,8.66,5.39,13.16,4.16,5.86-1.64,8.86,15.27,7.71,19.64-3.2,11.93-7.64,24.68-12.14,36.48-2.45,6.41-2.86,12.82-.75,19.09,1.02,3.14,1.91,6.82,2.66,10.3,.48,2.18,2.05,4.77,.89,6.41-1.43,2.11-3.61-.07-5.25-1.09-5.66-3.41-9.14-9.68-10.77-15.82-1.23-4.57-2.66-9.21-3.61-13.84-1.84-9.14-5.11-18.75-13.5-24.07-7.64-5.25-10.36-21.27-8.11-29.32,.61-2.11,3.34-4.36,1.23-6.75-2.18-2.45-5.11-5.66-8.05-4.5-6.07,2.39-12.68-1.36-17.39-4.98-4.57-3.55-9.14-7.02-14.25-9.82C14.31,11.49,12.19,2.69,9.6-4.47,7.49-10.67-1.38-17.49-7.92-16.67c-4.77,.61-6.34,6.07-8.46,9.89Z"/><path class="cls-22" d="M193.16,76.33c-4.09,0-7.23-3.2-8.32-6.75-.89-2.73-1.57-5.66-2.32-8.52-.14-.61-.34-1.3-.48-1.91v-.14c-.48-4.84-3.14-9.34-7.16-12-5.59-3.75-7.02-11.32-7.91-18.07-.34-2.59-1.43-4.5-2.8-5.11-1.02-.41-2.25-.14-3.61,.82-3.95,2.8-8.8,3.34-14.05,1.43-7.3-2.59-13.98-9.55-15.89-16.5-2.45-10.84-.48-20.93,6.07-31.91,4.23-7.02,13.09-9.55,20.66-5.86,2.86,1.36,6.14,.27,8.32-.82,5.66-2.93,11.18-9.55,12-14.52,.2-1.23,.14-1.98,0-2.25-1.36-3-4.43-4.98-8.05-5.11-3.55-.14-6.61,1.5-8.18,4.23-2.73,4.98-8.25,6.68-13.23,4.02-3-1.64-5.32-2.11-6.89-1.43-2.18,.89-3.61,3.89-5.11,8.18-.2,.55-.34,1.16-.48,1.84-.41,1.84-.89,3.82-2.32,4.43-.82,.34-1.77,.2-2.8-.48-3.68-2.25-6.41-6.75-4.64-10.84,4.77-10.84,7.98-19.77,10.02-28.16,.2-.75,1.02-2.18,2.11-2.32,6.95-.75,8.05-7.84,9.07-14.73,.34-2.11,.61-4.16,1.09-5.86,.61-2.18,.2-2.86-1.02-3.61-.34-.2-.55-.27-.68-.2-.14,.07-.48,.27-.95,1.64-.41,1.02-.75,2.05-1.09,3.14-.75,1.98-1.43,4.02-2.18,6-.14,.27-.2,.61-.27,.95-.41,1.36-1.09,3.68-3.34,3.34-2.66-.41-3.95-3.41-3.82-6.07,.2-4.5,1.36-12.89,6.14-19.3,3.34-4.43,9.55-7.3,14.59-3.95,4.91,3.27,8.86,3.34,15.07,.14l.14-.07c2.66-1.36,5.39-2.73,8.11-3.61,4.16-1.23,7.23-4.64,8.39-9.07,1.3-5.05,5.32-8.73,10.5-9.68,2.73-.55,4.16-1.98,4.91-4.98,1.57-6.41,6.55-11.66,13.23-13.91,10.23-3.48,17.66-2.11,24,4.43,1.09,1.16,2.11,.95,3.82,.61,.2-.07,.41-.07,.61-.14,1.84-.41,3.75-.75,5.59-1.09,2.73-.55,5.52-1.02,8.05-1.71,3.68-.89,8.8,.75,11.11,3.68,.95,1.23,2.05,1.57,3.75,1.36,1.29-.2,2.66-.27,3.95-.34,1.02-.07,1.98-.14,2.86-.27,5.59-.61,8.11,.68,10.98,5.59l.07,.14,.07,.14c1.23,5.18-2.25,11.73-6.95,12.89-1.36,.34-2.93,.55-4.36,.61-1.23,0-2.04,.27-2.45,.82-.61,.89-.61,2.66,.14,5.39,1.5,5.73,1.23,12.61-.75,18.41-2.25,6.68-6.55,11.46-12.07,13.36-2.32,.82-3.48,1.43-2.39,5.18,.95,3.27,.95,5.93-.14,8.18-2.93,6.14-3.68,11.8-2.25,16.77,.75,2.59,0,5.11-1.98,6.61-1.91,1.5-4.57,1.57-6.82,.27-4.3-2.52-8.73-5.52-13.23-8.93-1.23-.95-2.18-1.3-2.8-1.16-.75,.2-1.43,1.3-2.04,3.27-.55,1.64-1.23,3.34-1.84,4.98-.89,2.11-1.7,4.16-2.18,6.14-.82,3.2-2.66,5.52-5.05,6.27-1.36,.41-3.48,.55-5.86-1.43-4.57-2.93-6.95-3.95-11.52-2.8-1.98,.48-4.23-.14-6.34-1.7-.61-.48-1.84-1.36-2.25-1.23-.2,.07-.48,.48-.75,1.43-.41,1.57,.07,1.77,1.29,2.32,.55,.2,1.02,.41,1.5,.82,1.84,1.5,3.82,2.8,5.8,3.95,.41,.27,.82,.55,1.23,.75,2.18,1.36,3.55,3.2,3.95,5.32,.48,2.25-.14,4.64-1.71,6.95-1.98,2.93-4.84,4.98-7.64,5.45-2.11,.41-4.23-.07-6.07-1.36-1.57-1.02-3.27-2.11-4.84-3.14-1.43-.95-2.93-1.91-4.36-2.86-.2-.14-.41-.27-.61-.41-.34-.27-.95-.68-1.16-.61,0,0-.34,.14-.89,1.36-.82,2.11-.34,2.39,.82,3.07,.27,.14,.54,.27,.82,.48,4.43,3,10.3,6.95,16.36,10.71,5.18,3.27,7.02,9.82,4.23,15.34-4.5,8.8-4.64,18.89-.48,31.84,1.36,4.23,2.52,8.73,3.68,14.25,2.11,9.68-2.11,24.89-13.77,27.68-.75-.14-1.36-.07-1.98-.07Zm-9.07-17.59c.14,.61,.27,1.23,.48,1.84,.68,2.8,1.43,5.73,2.25,8.39,.95,3.07,3.82,6,7.71,5.18,10.23-2.52,14.11-16.64,12.2-25.23-1.16-5.52-2.32-9.82-3.68-14.05-4.36-13.43-4.16-24.07,.61-33.41,2.32-4.5,.82-9.89-3.48-12.61-6.07-3.82-11.93-7.71-16.43-10.77-.2-.14-.41-.27-.61-.34-1.23-.68-3.27-1.77-1.77-5.66,.41-.95,1.02-2.25,2.18-2.59,1.16-.34,2.18,.34,3,.95,.2,.14,.34,.27,.55,.41,1.5,.95,2.93,1.91,4.43,2.86,1.57,1.02,3.2,2.11,4.84,3.14,1.43,1.02,2.93,1.36,4.5,1.02,2.25-.41,4.64-2.11,6.27-4.57,1.23-1.84,1.77-3.68,1.43-5.32-.34-1.57-1.36-2.93-3-3.95-.41-.27-.82-.55-1.23-.75-1.98-1.23-4.09-2.59-6-4.16-.21-.2-.61-.34-.95-.48-1.3-.55-3.41-1.43-2.52-4.77,.41-1.57,1.09-2.52,2.04-2.86,1.5-.55,3,.61,4.23,1.5,1.57,1.23,3.27,1.7,4.57,1.36,5.39-1.36,8.32,0,13.23,3.14l.14,.07c1.36,1.16,2.66,1.5,3.95,1.09,1.64-.55,3-2.39,3.61-4.84,.55-2.11,1.43-4.3,2.25-6.41,.61-1.57,1.3-3.2,1.84-4.84,.89-2.66,1.91-4.16,3.41-4.64,1.77-.55,3.55,.55,4.7,1.43,4.43,3.34,8.8,6.34,13.02,8.8,1.57,.89,3.27,.89,4.5-.07,1.23-.95,1.7-2.66,1.23-4.36-1.57-5.52-.75-11.66,2.39-18.27,.82-1.7,.82-3.89,0-6.68-1.43-4.91,.34-6.61,3.68-7.77,10.36-3.61,14.39-18.34,11.52-29.25-.95-3.55-.89-5.8,.2-7.23,.82-1.09,2.18-1.64,4.09-1.64,1.3,0,2.73-.2,3.89-.55,3.55-.95,6.34-6.14,5.45-10.23-2.39-4.09-4.16-4.98-8.86-4.43-.95,.14-1.98,.2-2.93,.27-1.29,.07-2.59,.2-3.82,.34-1.5,.2-3.75,.2-5.66-2.11-1.84-2.25-6.14-3.68-9-3-2.59,.68-5.45,1.16-8.18,1.71-1.84,.34-3.75,.68-5.52,1.09-.2,.07-.34,.07-.55,.14-1.57,.34-3.75,.89-5.8-1.16-5.73-5.86-12.41-7.09-21.82-3.89-6.07,2.05-10.5,6.68-11.93,12.41-.89,3.82-3,5.86-6.55,6.55-4.36,.82-7.77,3.96-8.86,8.18-1.29,5.11-4.91,9.07-9.75,10.5-2.59,.75-5.25,2.11-7.77,3.48l-.14,.07c-5.86,3-10.77,4.02-17.18-.27-3.95-2.59-9-.14-11.73,3.48-4.43,5.93-5.52,13.91-5.73,18.14-.07,1.7,.68,3.68,2.05,3.89,.34,.07,.61-.34,1.02-1.84,.14-.34,.2-.75,.34-1.09,.75-1.98,1.43-3.95,2.18-5.93,.34-1.02,.75-2.11,1.09-3.14,.41-1.23,1.02-2.45,2.18-2.86,.75-.27,1.57-.14,2.45,.41,2.18,1.36,2.73,3.07,1.98,5.93-.41,1.64-.75,3.55-1.02,5.66-1.02,6.95-2.32,15.55-10.77,16.5-.14,.14-.41,.48-.48,.75-2.11,8.52-5.32,17.59-10.16,28.5-1.36,3,.89,6.41,3.82,8.25,.48,.27,.82,.34,.89,.27,.48-.2,.89-1.91,1.09-2.93,.14-.68,.34-1.43,.55-2.05,1.7-4.98,3.41-8.25,6.34-9.41,2.25-.89,4.98-.41,8.66,1.57,3.89,2.05,8.25,.75,10.43-3.2,1.91-3.48,5.73-5.52,10.09-5.32,4.43,.2,8.18,2.66,9.89,6.41,.34,.75,.41,1.91,.14,3.41-.89,5.59-6.82,12.82-13.09,16.02-3.82,1.98-7.36,2.25-10.23,.89-6.61-3.2-14.32-1.02-17.93,5.05-6.27,10.5-8.11,20.11-5.8,30.34,1.77,6.34,7.84,12.68,14.52,15.07,3.14,1.16,7.84,1.84,12.14-1.16,2.52-1.77,4.43-1.57,5.66-1.02,2.05,.89,3.55,3.41,4.02,6.75,.82,6.34,2.11,13.36,7.02,16.64,4.43,2.8,7.43,7.84,7.98,13.3Z"/><path class="cls-22" d="M100.02,127.54c-1.23,0-2.39-.82-3.41-1.5-.34-.2-.61-.41-.89-.61-5.18-3.14-9.27-9.14-11.25-16.5-.34-1.23-.68-2.45-1.02-3.68-.95-3.34-1.91-6.82-2.59-10.16-1.64-8.11-4.64-18.14-13.02-23.39-8.25-5.66-10.84-22.43-8.52-30.55,.2-.75,.61-1.43,1.02-2.11,1.02-1.77,1.36-2.59,.48-3.61-2.32-2.59-4.7-5.05-6.89-4.23-5.11,2.05-11.32,.34-18.41-5.11-4.43-3.41-9-6.96-14.11-9.75C14.51,12.58,11.99,5.15,9.81-1.4c-.34-.95-.61-1.91-.95-2.8C6.81-9.85-1.51-16.4-7.65-15.58c-3.27,.41-4.91,3.75-6.41,6.96-.41,.82-.82,1.64-1.23,2.45l-.95,1.77-.89-1.84c-2.73-5.66-3.41-10.23-1.91-13.91,1.3-3.27,4.3-5.86,8.93-7.64,14.66-6.34,29.52-13.36,44.25-20.73l.41-.2c2.32-1.16,5.45-2.8,8.05,.48,1.84,2.32,2.18,5.32,.95,9.21-1.23,3.89,.89,5.11,4.64,6.89,.34,.14,.61,.27,.95,.41,3.07,1.5,6.41-1.16,8.11-2.86,1.09-1.09,.68-2.39-.07-4.36-.27-.82-.61-1.57-.75-2.45-.07-.34-.14-.75-.27-1.16-.41-1.5-.89-3.34,.55-5.05,1.84-2.11,3.95-.55,4.98,.2,.2,.14,.34,.27,.48,.34,2.18,1.5,4.09,1.64,6.34,.34,3.14-1.77,6.14-1.09,8.05,1.77,1.77,2.59,1.91,6.07,.55,9.89-2.25,6.27-4.7,12.68-7.09,18.89-2.18,5.8-4.5,11.8-6.55,17.52-1.77,4.98-6.75,6.95-11.11,8.73-.55,.2-1.02,.41-1.5,.61-1.43,.61-2.39,1.57-2.86,2.93-.68,1.84-.41,4.16,.75,6.34,1.02,1.98,1.5,1.77,1.84,1.64,5.66-2.32,10.5,1.16,14.39,3.95,.48,.34,.89,.61,1.36,.95,1.36,.95,6.14,3.82,10.5,1.57,4.91-2.52,9.07-2.39,14.05,.61l.48,.27c3.34,2.05,7.98,4.84,11.86,3.75,1.02-.27,2.59-.34,4.23,1.3,4.09,4.09,5.8,15.96,4.77,19.64-2.93,10.77-7.09,23.46-12.14,36.55-2.45,6.34-2.66,12.55-.75,18.41,1.09,3.27,1.98,7.23,2.66,10.36,.14,.55,.34,1.16,.55,1.77,.61,1.84,1.3,3.89,.2,5.52-.48,.75-1.09,1.16-1.84,1.3h-.89ZM54.74,28.94c3,0,5.66,3,7.5,5.11,1.98,2.25,.75,4.43-.2,6-.34,.61-.68,1.16-.82,1.64-2.18,7.57,.41,23.18,7.71,28.23,9,5.66,12.21,16.16,13.98,24.68,.68,3.34,1.64,6.75,2.59,10.02,.34,1.23,.68,2.45,1.02,3.68,1.84,6.82,5.59,12.41,10.36,15.21,.34,.2,.68,.41,1.02,.68,.82,.55,1.77,1.23,2.32,1.16,.07,0,.27-.07,.48-.41,.55-.75,.07-2.25-.41-3.68-.2-.68-.48-1.3-.61-1.98-.68-3.14-1.57-7.02-2.59-10.16-2.11-6.27-1.84-12.96,.75-19.77,4.98-13.09,9.21-25.64,12.07-36.34,.82-3.14-.89-14.25-4.23-17.59-.95-.95-1.7-.89-2.18-.75-4.7,1.36-9.75-1.7-13.5-3.95l-.48-.27c-4.36-2.66-7.77-2.8-12-.55-3.68,1.91-8.39,1.3-12.68-1.7-.48-.34-.89-.61-1.36-.95-3.82-2.73-7.77-5.59-12.41-3.75-2.59,1.02-3.95-1.64-4.43-2.59-1.36-2.66-1.7-5.66-.82-8.05,.68-1.91,2.11-3.34,4.02-4.16,.48-.2,1.02-.41,1.57-.61,4.16-1.64,8.39-3.41,9.89-7.5,2.11-5.73,4.36-11.73,6.55-17.52,2.39-6.2,4.77-12.55,7.02-18.82,.82-2.25,1.43-5.45-.34-8.05-1.3-1.98-3.14-2.39-5.32-1.09-2.93,1.7-5.66,1.5-8.52-.48-.2-.14-.34-.27-.55-.41-1.36-1.02-1.64-1.02-2.11-.48-.68,.75-.48,1.7-.07,3.14,.14,.41,.2,.89,.34,1.3,.14,.61,.41,1.3,.68,2.05,.75,1.98,1.7,4.5-.41,6.61-3.55,3.61-7.43,4.77-10.5,3.27-.27-.14-.61-.27-.89-.41-3.34-1.57-7.57-3.55-5.8-9.41,1.02-3.2,.82-5.52-.61-7.23-1.5-1.84-3-1.16-5.52,.07l-.41,.2c-14.73,7.43-29.66,14.39-44.39,20.8-4.16,1.57-6.68,3.68-7.77,6.48-1.09,2.73-.75,6.07,1.02,10.3,.07-.14,.14-.27,.2-.41,1.7-3.55,3.61-7.5,8.05-8.11C-.9-18.51,8.37-11.28,10.69-4.88c.34,.95,.68,1.91,.95,2.86,2.18,6.55,4.5,13.3,10.64,16.57,5.25,2.86,9.89,6.48,14.39,9.96,6.41,4.98,11.93,6.61,16.36,4.84,.55-.27,1.16-.41,1.7-.41Z"/></g></g></g></g></svg>
