<?xml version="1.0" encoding="UTF-8"?><svg xmlns="http://www.w3.org/2000/svg" viewBox="0 0 422 313.09"><defs><style>.g{fill:#c8e9fc;}.h,.i,.j,.k,.l{stroke:#6366f1;stroke-width:2px;}.h,.j,.k{fill:none;}.i,.j,.k{stroke-linecap:round;stroke-linejoin:round;}.i,.l{fill:#fff;}.k{stroke-dasharray:0 0 1 10;}</style></defs><g id="a"/><g id="b"><g id="c"><path class="g" d="M416.85,176.56c-.4-8.87-6.46-16.51-15.03-18.16,7.16-2.59,12.84-9.54,12.49-17.42-.27-6.08-3.22-11.58-7.8-14.98,5.24-3.34,8.94-9.12,8.65-15.52-.45-10.02-8.13-18.5-18.5-18.5h-33.21c1.72-2.77,2.69-5.99,2.54-9.38-.45-10.02-8.13-18.5-18.5-18.5H98.45c-9.68,0-18.95,8.51-18.5,18.5,.15,3.4,1.15,6.61,2.79,9.38H44.28c-9.68,0-18.95,8.51-18.5,18.5,.45,10.02,8.13,18.5,18.5,18.5h7.18c-2.91,3.26-4.7,7.47-4.5,11.99,.34,7.57,4.81,14.26,11.45,17.08H25.65c-9.68,0-18.95,8.51-18.5,18.5,.45,10.02,8.13,18.5,18.5,18.5h51.23c-3.9,3.42-6.44,8.34-6.21,13.69,.45,10.02,8.13,18.5,18.5,18.5H361.93c9.68,0,18.95-8.51,18.5-18.5-.24-5.37-2.57-10.27-6.25-13.69h24.18c9.68,0,18.95-8.51,18.5-18.5Z"/><g><path class="l" d="M359.63,135.44v-37.63l-30.49-2.7c-2.11-8.36-5.41-16.24-9.73-23.45l19.66-23.48-26.61-26.61-23.48,19.66c-7.21-4.31-15.09-7.62-23.45-9.73l-2.7-30.49h-37.63l-2.7,30.49c-8.36,2.11-16.24,5.41-23.45,9.73l-23.48-19.66-26.61,26.61,19.66,23.48c-4.31,7.21-7.62,15.09-9.73,23.45l-30.49,2.7v37.63l30.49,2.7c2.11,8.36,5.41,16.24,9.73,23.45l-19.66,23.48,26.61,26.61,23.48-19.66c7.21,4.31,15.09,7.62,23.45,9.73l2.7,30.49h37.63l2.7-30.49c8.36-2.11,16.24-5.41,23.45-9.73l23.48,19.66,26.61-26.61-19.66-23.48c4.31-7.21,7.62-15.09,9.73-23.45l30.49-2.7Z"/><circle class="l" cx="244.01" cy="116.62" r="30.43"/><circle class="k" cx="244.01" cy="116.62" r="62.81"/></g><path id="d" class="j" d="M21,312.09H403"/><path id="e" class="j" d="M414,312.09h7"/><path id="f" class="j" d="M1,312.09h7"/><g><rect class="l" x="117.94" y="80.24" width="111.25" height="104.45"/><line class="i" x1="136.75" y1="149.35" x2="160.36" y2="149.35"/><line class="i" x1="136.75" y1="165.88" x2="178.37" y2="165.88"/><polygon class="l" points="189.18 111.45 173.57 100.65 157.96 111.45 157.96 80.24 189.18 80.24 189.18 111.45"/><rect class="l" x="65.12" y="184.69" width="111.25" height="104.45"/><line class="i" x1="83.92" y1="253.8" x2="107.54" y2="253.8"/><line class="i" x1="83.92" y1="270.33" x2="125.55" y2="270.33"/><polygon class="l" points="136.35 215.91 120.74 205.1 105.14 215.91 105.14 184.69 136.35 184.69 136.35 215.91"/><rect class="l" x="176.37" y="184.69" width="111.25" height="104.45"/><line class="i" x1="195.18" y1="253.8" x2="218.79" y2="253.8"/><line class="i" x1="195.18" y1="270.33" x2="236.8" y2="270.33"/><polygon class="l" points="247.61 215.91 232 205.1 216.39 215.91 216.39 184.69 247.61 184.69 247.61 215.91"/></g><rect class="g" x="65.12" y="277.45" width="111.25" height="11.7"/><rect class="h" x="65.12" y="184.69" width="111.25" height="104.45"/><rect class="g" x="176.37" y="277.45" width="111.25" height="11.7"/><rect class="h" x="176.37" y="184.69" width="111.25" height="104.45"/><rect class="g" x="117.94" y="172.99" width="111.25" height="11.7"/><rect class="h" x="117.94" y="80.24" width="111.25" height="104.45"/></g></g></svg>