<?xml version="1.0" encoding="UTF-8"?><svg xmlns="http://www.w3.org/2000/svg" viewBox="0 0 16.67 13.84"><defs><style>.e{fill:#121212;}</style></defs><g id="a"/><g id="b"><g id="c"><path id="d" class="e" d="M10.07,9.68h-3.48l-1.04-2.08H2.14v-.18L4.49,2.04h7.68l2.3,5.37v.18h-3.37l-1.02,2.08Zm6.59-1.74c0-.46-.09-.91-.27-1.33L13.81,.65c-.08-.19-.22-.35-.4-.46-.17-.11-.36-.19-.57-.19H3.82c-.21,0-.41,.07-.57,.19-.18,.1-.31,.27-.4,.46L.27,6.58c-.18,.43-.27,.89-.27,1.35v5.21c.01,.39,.31,.69,.7,.7H15.97c.39-.01,.69-.31,.7-.7V7.94h0Z" vector-effect="non-scaling-stroke"/></g></g></svg>