<?xml version="1.0" encoding="utf-8"?>
<!-- Generator: Adobe Illustrator 26.2.1, SVG Export Plug-In . SVG Version: 6.00 Build 0)  -->
<svg version="1.1" id="Layer_1" xmlns="http://www.w3.org/2000/svg" xmlns:xlink="http://www.w3.org/1999/xlink" x="0px" y="0px"
	 viewBox="12.2 2.4 175.7 40.2" style="enable-background:new 0 0 200 44.8;" xml:space="preserve">
<style type="text/css">
	.st0{fill:#6B7280;}
</style>
<g id="a">
</g>
<path class="st0" d="M57.9,31h3.4v-4.8c0.5,1,1.6,1.7,3.1,1.7c2.3,0,4.2-1.7,4.2-5.1v-0.1c0-3.4-1.9-5.1-4.2-5.1
	c-1.5,0-2.5,0.8-3.1,1.7v-1.5h-3.4L57.9,31L57.9,31z M63.2,25.3c-1.2,0-2-0.8-2-2.5v-0.1c0-1.7,0.7-2.6,2-2.6s2,0.8,2,2.6v0.1
	C65.1,24.4,64.4,25.3,63.2,25.3z"/>
<path class="st0" d="M72.8,27.9c1.6,0,2.5-0.7,2.9-1.4v1.2h3.3v-6.4c0-2.6-1.7-3.7-4.5-3.7c-2.7,0-4.6,1.2-4.7,3.6H73
	c0.1-0.6,0.4-1.2,1.3-1.2c1.1,0,1.3,0.6,1.3,1.6v0.2h-0.9c-3.3,0-5.3,0.9-5.3,3.2C69.5,27.1,71.1,27.9,72.8,27.9L72.8,27.9z
	 M74,25.6c-0.8,0-1.2-0.4-1.2-0.9c0-0.8,0.6-1.1,2-1.1h0.9v0.6C75.7,25.1,75,25.6,74,25.6z"/>
<path class="st0" d="M85.7,27.9c3.2,0,4.9-1.6,5-4.1h-3c-0.1,1.1-0.8,1.6-1.7,1.6c-1.3,0-2-0.9-2-2.6v-0.1c0-1.7,0.7-2.5,1.9-2.5
	c1,0,1.4,0.5,1.6,1.4h3.2c-0.2-3-2.4-4.1-4.8-4.1c-2.9,0-5.3,1.9-5.3,5.2v0.1C80.5,26.2,82.7,27.9,85.7,27.9L85.7,27.9z"/>
<path class="st0" d="M92,27.7h3.4v-4.3l2.7,4.3h3.8l-3.5-5.5l3.2-4.4h-3.5l-2.7,3.9v-8.3H92L92,27.7L92,27.7z"/>
<path class="st0" d="M105.6,27.9c1.6,0,2.5-0.7,2.9-1.4v1.2h3.3v-6.4c0-2.6-1.7-3.7-4.5-3.7s-4.6,1.2-4.7,3.6h3.2
	c0.1-0.6,0.4-1.2,1.3-1.2c1.1,0,1.3,0.6,1.3,1.6v0.2h-0.9c-3.3,0-5.3,0.9-5.3,3.2C102.2,27.1,103.8,27.9,105.6,27.9L105.6,27.9z
	 M106.7,25.6c-0.8,0-1.2-0.4-1.2-0.9c0-0.8,0.6-1.1,2-1.1h0.9v0.6C108.4,25.1,107.7,25.6,106.7,25.6z"/>
<path class="st0" d="M118.4,31.4c3.5,0,5.5-1.5,5.5-4.5v-9.1h-3.4v1.4c-0.6-1-1.5-1.7-3.1-1.7c-2.3,0-4.2,1.9-4.2,4.8v0.1
	c0,3,1.9,4.8,4.2,4.8c1.5,0,2.6-0.9,3.1-1.8v1.5c0,1.2-0.6,2.1-2.1,2.1c-1.2,0-1.7-0.6-1.8-1.3h-3.4C113.4,30,115,31.4,118.4,31.4z
	 M118.6,24.7c-1.2,0-1.9-0.9-1.9-2.2v-0.1c0-1.4,0.7-2.2,2-2.2s2,0.9,2,2.2v0.1C120.6,23.9,119.8,24.7,118.6,24.7L118.6,24.7z"/>
<path class="st0" d="M130.7,27.9c3,0,4.7-1.3,5-3.5h-3.2c-0.1,0.7-0.6,1.2-1.7,1.2c-1.2,0-2-0.8-2.1-2.1h7v-0.9c0-3.6-2.3-5.1-5-5.1
	c-3,0-5.4,2-5.4,5.2v0.1C125.3,26.1,127.6,27.9,130.7,27.9z M128.8,21.6c0.2-1.2,0.9-1.9,1.9-1.9c1.1,0,1.7,0.7,1.7,1.9H128.8
	L128.8,21.6z"/>
<path class="st0" d="M141.9,27.3c3.2,0,4.9-1.6,5-4.1h-3c-0.1,1.1-0.8,1.6-1.7,1.6c-1.3,0-2-0.9-2-2.6V22c0-1.7,0.7-2.5,1.9-2.5
	c1,0,1.4,0.5,1.6,1.4h3.2c-0.2-3-2.4-4.1-4.8-4.1c-2.9,0-5.3,1.9-5.3,5.2v0.1C136.6,25.5,138.9,27.2,141.9,27.3L141.9,27.3z"/>
<path class="st0" d="M148.3,27h3.4V12.8h-3.4V27z"/>
<path class="st0" d="M158.7,24.7c-1.3,0-2-0.9-2-2.6V22c0-1.7,0.7-2.6,2-2.6c1.3,0,2,0.9,2,2.6v0.1C160.6,23.8,160,24.7,158.7,24.7
	L158.7,24.7z M158.7,27.3c3,0,5.4-1.9,5.4-5.1V22c0-3.1-2.3-5.1-5.4-5.1c-3.1,0-5.4,2-5.4,5.2v0.1C153.3,25.4,155.6,27.3,158.7,27.3
	L158.7,27.3z"/>
<path class="st0" d="M168.8,27.3c1.6,0,2.6-0.7,3.1-1.8V27h3.4v-9.9H172v5.7c0,1.3-0.7,1.9-1.7,1.9c-1,0-1.4-0.6-1.4-1.7v-5.9h-3.4
	v6.5C165.5,26.1,166.9,27.3,168.8,27.3L168.8,27.3z"/>
<path class="st0" d="M181,27.3c1.5,0,2.6-0.8,3.1-1.8V27h3.4V12.8h-3.4v5.8c-0.6-1-1.5-1.7-3-1.7c-2.3,0-4.2,1.8-4.2,5.2v0.1
	C176.9,25.6,178.7,27.3,181,27.3L181,27.3z M182.2,24.7c-1.2,0-1.9-0.8-1.9-2.5V22c0-1.7,0.7-2.6,2-2.6s2,0.9,2,2.6v0.1
	C184.2,23.8,183.4,24.7,182.2,24.7L182.2,24.7z"/>
<path class="st0" d="M45.6,11.3l-13.9-8c-1.1-0.6-2.5-0.6-3.6,0l-13.8,8c-1.1,0.6-1.8,1.8-1.8,3.1v16c0,1.3,0.7,2.5,1.8,3.1l13.8,8
	c1.1,0.6,2.5,0.6,3.6,0l13.9-8c1.1-0.6,1.8-1.8,1.8-3.1v-16C47.4,13.1,46.7,11.9,45.6,11.3z M31.6,31.5c-0.3,0.9-0.8,1.5-1.7,1.7
	c-0.6,0.2-1.1,0.1-1.6-0.2c-3.2-1.8-6.4-3.7-9.5-5.5c-0.7-0.4-1-0.9-1-1.7c0-0.7,0-1.3,0-2c0,0,0,0,0,0h0c0-1,0-2,0.2-2.9
	c0.3-1.9,1.9-3.1,3.7-3c1.8,0.1,3.2,1.5,3.4,3.5c0,0.3,0,0.6,0.1,0.8c0.1,0.2,0.5,0.1,0.8,0.2c2.1,0.5,3.4,2.4,3.1,4.6
	c0,0.3,0,0.4,0.3,0.5C31.2,27.9,32.1,29.7,31.6,31.5z M36.8,28.7c-0.5,1.2-1.9,1.8-3,1.2c-0.2-0.1-0.3-0.3-0.4-0.5
	c-0.3-1.3-1-2.4-2.1-3.1c-0.3-0.2-0.4-0.4-0.4-0.7c-0.3-2.3-1.6-3.9-3.6-4.8c-0.3-0.1-0.4-0.3-0.5-0.6c-0.4-1.6-1.3-2.8-2.7-3.6
	c-0.1-0.1-0.2-0.1-0.3-0.2l0,0c0.2-0.3,0.4-0.6,0.7-0.8c1.8-1.6,4.6-1,5.6,1.2c0.2,0.6,0.3,1.2,0.4,1.8c0,0.3,0.1,0.4,0.4,0.4
	c2.3,0.3,3.8,2.2,3.6,4.6c0,0.3,0,0.4,0.3,0.6C36.6,24.9,37.6,26.9,36.8,28.7z M42.1,25.7c-0.5,1.2-1.9,1.8-3,1.2
	c-0.2-0.1-0.3-0.3-0.4-0.5c-0.3-1.3-1.1-2.4-2.1-3.1c-0.3-0.2-0.4-0.4-0.4-0.7c-0.3-2.3-1.6-3.9-3.6-4.8c-0.3-0.1-0.4-0.3-0.5-0.6
	c-0.4-1.6-1.3-2.8-2.7-3.6c-0.1-0.1-0.2-0.1-0.3-0.2l0,0c0.2-0.3,0.4-0.6,0.7-0.8c1.8-1.6,4.6-1,5.6,1.2c0.2,0.6,0.3,1.2,0.4,1.8
	c0,0.3,0.1,0.4,0.4,0.4c2.3,0.3,3.8,2.2,3.6,4.6c0,0.3,0,0.4,0.3,0.6C41.9,21.8,42.8,23.8,42.1,25.7z"/>
</svg>
