<?xml version="1.0" encoding="UTF-8"?><svg xmlns="http://www.w3.org/2000/svg" viewBox="0 0 200 44.82"><defs><style>.d{fill:#fff;}.e{fill:#6366f1;}</style></defs><g id="a"/><g id="b"><g id="c"><path d="M51.88,32.25h3.87v-5.45c.56,1.12,1.8,1.93,3.5,1.93,2.66,0,4.8-1.95,4.8-5.84v-.17c0-3.87-2.14-5.86-4.78-5.86-1.71,0-2.88,.91-3.53,1.99v-1.69h-3.87v15.1Zm6.01-6.49c-1.41,0-2.25-.97-2.25-2.9v-.17c0-1.9,.84-2.92,2.25-2.92s2.23,.95,2.23,2.94v.17c0,1.86-.78,2.88-2.23,2.88Z"/><path d="M68.96,28.72c1.82,0,2.81-.76,3.35-1.58v1.32h3.76v-7.33c0-3.01-1.99-4.28-5.11-4.28s-5.24,1.34-5.41,4.07h3.63c.09-.71,.48-1.34,1.54-1.34,1.23,0,1.49,.71,1.49,1.8v.26h-1.08c-3.76,0-6.01,1.04-6.01,3.7,0,2.4,1.8,3.4,3.83,3.4Zm1.34-2.62c-.91,0-1.34-.41-1.34-1.06,0-.93,.69-1.23,2.25-1.23h1.02v.69c0,.97-.82,1.6-1.93,1.6Z"/><path d="M83.63,28.72c3.66,0,5.58-1.86,5.69-4.72h-3.48c-.13,1.23-.89,1.88-1.97,1.88-1.47,0-2.23-1.02-2.23-2.99v-.17c0-1.9,.8-2.88,2.16-2.88,1.12,0,1.64,.58,1.82,1.64h3.63c-.22-3.44-2.77-4.65-5.54-4.65-3.33,0-6.04,2.16-6.04,5.93v.17c0,3.81,2.57,5.78,5.95,5.78Z"/><path d="M90.9,28.46h3.87v-4.95l3.05,4.95h4.33l-4-6.23,3.7-5.08h-4.02l-3.05,4.48V12.17h-3.87V28.46Z"/><path d="M106.36,28.72c1.82,0,2.81-.76,3.35-1.58v1.32h3.76v-7.33c0-3.01-1.99-4.28-5.11-4.28s-5.24,1.34-5.41,4.07h3.63c.09-.71,.48-1.34,1.54-1.34,1.23,0,1.49,.71,1.49,1.8v.26h-1.08c-3.76,0-6.01,1.04-6.01,3.7,0,2.4,1.8,3.4,3.83,3.4Zm1.34-2.62c-.91,0-1.34-.41-1.34-1.06,0-.93,.69-1.23,2.25-1.23h1.02v.69c0,.97-.82,1.6-1.93,1.6Z"/><path d="M120.98,32.66c4.05,0,6.27-1.77,6.27-5.15v-10.36h-3.87v1.6c-.65-1.15-1.71-1.9-3.5-1.9-2.66,0-4.8,2.12-4.8,5.45v.17c0,3.48,2.16,5.43,4.8,5.43,1.69,0,2.92-1,3.5-2.08v1.73c0,1.41-.69,2.38-2.4,2.38-1.41,0-1.9-.65-2.08-1.47h-3.85c.3,2.57,2.08,4.2,5.93,4.2Zm.26-7.61c-1.38,0-2.21-1-2.21-2.55v-.17c0-1.56,.78-2.57,2.23-2.57s2.23,1,2.23,2.55v.15c0,1.6-.87,2.6-2.25,2.6Z"/><path d="M135.08,28.72c3.42,0,5.39-1.45,5.73-4h-3.63c-.15,.76-.69,1.34-1.97,1.34-1.38,0-2.25-.87-2.36-2.36h7.96v-1.02c0-4.07-2.66-5.84-5.75-5.84-3.42,0-6.12,2.29-6.12,5.93v.17c0,3.7,2.6,5.78,6.14,5.78Zm-2.18-7.2c.19-1.36,1-2.12,2.16-2.12,1.25,0,1.93,.76,1.99,2.12h-4.15Z"/><path class="e" d="M147.84,27.95c3.66,0,5.58-1.86,5.69-4.72h-3.48c-.13,1.23-.89,1.88-1.97,1.88-1.47,0-2.23-1.02-2.23-2.99v-.17c0-1.9,.8-2.88,2.16-2.88,1.12,0,1.64,.58,1.82,1.64h3.63c-.22-3.44-2.77-4.65-5.54-4.65-3.33,0-6.04,2.16-6.04,5.93v.17c0,3.81,2.57,5.78,5.95,5.78Z"/><path class="e" d="M155.22,27.69h3.85V11.4h-3.85V27.69Z"/><path class="e" d="M167.07,25.07c-1.49,0-2.25-1.06-2.25-3.01v-.17c0-1.9,.8-2.92,2.25-2.92s2.23,1.06,2.23,2.96v.17c0,1.88-.78,2.96-2.23,2.96Zm-.02,2.88c3.48,0,6.19-2.21,6.19-5.88v-.17c0-3.59-2.68-5.82-6.17-5.82s-6.21,2.29-6.21,5.93v.17c0,3.66,2.7,5.78,6.19,5.78Z"/><path class="e" d="M178.65,27.95c1.88,0,2.99-.84,3.59-2.01v1.75h3.87v-11.31h-3.87v6.51c0,1.45-.76,2.14-1.93,2.14-1.1,0-1.6-.63-1.6-1.9v-6.75h-3.87v7.38c0,2.86,1.62,4.2,3.81,4.2Z"/><path class="e" d="M192.6,27.95c1.71,0,2.96-.93,3.53-2.1v1.84h3.87V11.4h-3.87v6.58c-.65-1.15-1.71-1.9-3.48-1.9-2.68,0-4.8,2.06-4.8,5.91v.17c0,3.92,2.14,5.8,4.76,5.8Zm1.36-2.96c-1.34,0-2.18-.97-2.18-2.88v-.17c0-1.97,.78-2.94,2.23-2.94s2.23,1.02,2.23,2.92v.17c0,1.93-.87,2.9-2.27,2.9Z"/><path class="e" d="M17.89,.55c1.28-.74,2.86-.74,4.13,0l15.83,9.14c1.28,.74,2.07,2.1,2.07,3.58V31.55c0,1.48-.79,2.84-2.07,3.58l-15.83,9.14c-1.28,.74-2.86,.74-4.13,0L2.07,35.13c-1.28-.74-2.07-2.1-2.07-3.58V13.27c0-1.48,.79-2.84,2.07-3.58L17.89,.55Z"/><path class="d" d="M6.01,23.98c.05-1.13,0-2.26,.19-3.37,.38-2.21,2.14-3.57,4.24-3.47,2.09,.12,3.71,1.76,3.92,3.95,.03,.32-.05,.74,.12,.94,.15,.19,.58,.14,.87,.22,2.38,.56,3.88,2.77,3.54,5.2-.05,.31,.03,.44,.34,.55,2.09,.72,3.18,2.75,2.62,4.79-.29,1.01-.92,1.68-1.95,1.98-.63,.19-1.23,.12-1.81-.22-3.64-2.1-7.27-4.22-10.91-6.31-.79-.44-1.18-1.08-1.13-1.98,.03-.75,0-1.5,0-2.26,0,0-.02-.02-.03-.02Z"/><path class="d" d="M12.86,15.57c.27-.32,.5-.65,.79-.92,2-1.85,5.28-1.15,6.36,1.37,.27,.65,.34,1.4,.46,2.1,.05,.31,.1,.46,.44,.51,2.67,.32,4.39,2.55,4.07,5.22-.05,.38,.05,.51,.39,.63,2.19,.75,3.27,3.06,2.43,5.13-.55,1.33-2.19,2.02-3.39,1.39-.19-.1-.38-.36-.43-.56-.38-1.5-1.2-2.7-2.45-3.59-.31-.22-.43-.44-.5-.82-.39-2.58-1.8-4.41-4.17-5.47-.32-.14-.48-.32-.56-.65-.46-1.78-1.49-3.15-3.08-4.07-.12-.07-.21-.14-.38-.26Z"/><path class="d" d="M18.89,12.08c.27-.32,.5-.65,.79-.92,2-1.85,5.28-1.15,6.36,1.37,.27,.65,.34,1.4,.46,2.1,.05,.31,.1,.46,.44,.51,2.67,.32,4.39,2.55,4.07,5.22-.05,.38,.05,.51,.39,.63,2.19,.75,3.27,3.06,2.43,5.13-.55,1.33-2.19,2.02-3.39,1.39-.19-.1-.38-.36-.43-.56-.38-1.5-1.2-2.7-2.45-3.59-.31-.22-.43-.44-.5-.82-.39-2.58-1.8-4.41-4.17-5.47-.32-.14-.48-.32-.56-.65-.46-1.78-1.49-3.15-3.08-4.07-.12-.07-.21-.14-.38-.26Z"/></g></g></svg>