<svg width="201" height="30" viewBox="0 0 201 30" fill="none" xmlns="http://www.w3.org/2000/svg">
<path d="M30.1183 15.7196C30.1212 14.4974 29.7461 13.3043 29.0444 12.3037C28.3427 11.303 27.3488 10.5438 26.1988 10.13C26.3035 9.59664 26.3563 9.05435 26.3564 8.51078C26.3574 6.71154 25.7879 4.95831 24.7296 3.50317C23.6714 2.04804 22.179 0.965937 20.467 0.412457C18.755 -0.141024 16.9116 -0.137376 15.2018 0.422875C13.4921 0.983126 12.004 2.07112 10.9515 3.53044C10.175 2.92874 9.22364 2.59648 8.24141 2.58399C7.25918 2.5715 6.29963 2.87946 5.50812 3.46122C4.71662 4.04298 4.13626 4.86685 3.85498 5.80802C3.57369 6.7492 3.60679 7.75641 3.94927 8.67708C2.79659 9.09723 1.80021 9.8603 1.09417 10.8637C0.388131 11.867 0.00629394 13.0625 2.01823e-05 14.2894C-0.00317831 15.5157 0.373868 16.7129 1.07925 17.7162C1.78463 18.7194 2.78365 19.4792 3.93877 19.8912C3.83652 20.4243 3.78436 20.9658 3.78297 21.5087C3.78125 23.3058 4.35032 25.0571 5.40812 26.51C6.46592 27.9628 7.95779 29.0422 9.66862 29.5925C11.3795 30.1428 13.2208 30.1356 14.9273 29.5718C16.6337 29.008 18.117 27.9169 19.1634 26.4558C19.9375 27.059 20.8873 27.3932 21.8687 27.4079C22.85 27.4225 23.8093 27.1167 24.6012 26.5369C25.393 25.9571 25.9742 25.1348 26.2565 24.1949C26.5388 23.2549 26.5069 22.2485 26.1656 21.3284C27.3189 20.9089 28.3159 20.1461 29.0223 19.1426C29.7288 18.1392 30.1107 16.9433 30.1166 15.7161" fill="white"/>
<path d="M11.8407 12.9224L18.4316 15.9317L25.0837 10.1058C25.1795 9.62508 25.227 9.13599 25.2255 8.64583C25.2251 7.05894 24.7169 5.51382 23.7752 4.23657C22.8335 2.95931 21.5077 2.01696 19.9919 1.54742C18.4761 1.07788 16.8498 1.1058 15.351 1.62709C13.8521 2.14837 12.5595 3.13566 11.6622 4.44449L10.5541 10.1758L11.8407 12.9224Z" fill="#1C1E23"/>
<path d="M5.01884 19.9019C4.92165 20.3901 4.87298 20.8868 4.87354 21.3846C4.87357 22.9781 5.38439 24.5296 6.33101 25.8115C7.27764 27.0933 8.61023 28.038 10.1332 28.5068C11.6562 28.9756 13.2893 28.9439 14.7929 28.4163C16.2965 27.8887 17.5915 26.8931 18.4876 25.5754L19.5852 19.8564L18.12 17.0555L11.5046 14.041L5.01884 19.9019Z" fill="#1C1E23"/>
<path d="M4.9786 8.49693L9.49503 9.56302L10.4841 4.42688C9.86979 3.96107 9.12114 3.70679 8.35022 3.70209C7.5793 3.6974 6.8276 3.94255 6.20767 4.40084C5.58775 4.85914 5.13295 5.50591 4.91138 6.24432C4.68981 6.98273 4.7134 7.77304 4.9786 8.49693Z" fill="#1C1E23"/>
<path d="M4.58652 9.57178C3.59557 9.90617 2.73346 10.5411 2.1201 11.3882C1.50673 12.2353 1.17261 13.2525 1.16419 14.2983C1.16347 15.309 1.47042 16.296 2.04421 17.1281C2.618 17.9602 3.43147 18.5979 4.37645 18.9565L10.7135 13.2287L9.54935 10.7429L4.58652 9.57178Z" fill="#1C1E23"/>
<path d="M19.6465 25.5754C20.2598 26.0388 21.0065 26.2915 21.7753 26.2955C22.544 26.2996 23.2934 26.055 23.9116 25.5981C24.5298 25.1412 24.9836 24.4965 25.2053 23.7605C25.4269 23.0244 25.4045 22.2364 25.1415 21.5141L20.6285 20.4637L19.6465 25.5754Z" fill="#1C1E23"/>
<path d="M20.5638 19.2751L25.5319 20.4357C26.5234 20.1022 27.3861 19.4676 27.9996 18.6203C28.6131 17.773 28.9468 16.7553 28.9542 15.7092C28.9533 14.7006 28.6457 13.7161 28.0723 12.8863C27.4989 12.0566 26.6868 11.4207 25.7437 11.0632L19.2456 16.7526L20.5638 19.2751Z" fill="#1C1E23"/>
<path d="M42.1114 20.0782L42.7136 20.0169L42.7556 21.2423C41.4156 21.4447 40.0634 21.5558 38.7083 21.5749C37.2145 21.5749 36.156 21.1425 35.5328 20.2777C34.9096 19.413 34.5986 18.0674 34.5997 16.241C34.5997 12.6033 36.0457 10.7839 38.9376 10.7827C40.3381 10.7827 41.3826 11.1737 42.0711 11.9556C42.7597 12.7375 43.1051 13.9629 43.1074 15.6318L43.0252 16.8151H36.177C36.177 17.9635 36.3847 18.8143 36.8002 19.3675C37.2156 19.9206 37.938 20.1972 38.9674 20.1972C39.999 20.2007 41.047 20.161 42.1114 20.0782ZM41.5512 15.5757C41.5512 14.3025 41.3475 13.4033 40.9402 12.8781C40.533 12.353 39.8689 12.0898 38.9481 12.0886C38.0273 12.0886 37.3353 12.3652 36.872 12.9184C36.4086 13.4716 36.17 14.3574 36.156 15.5757H41.5512Z" fill="white"/>
<path d="M45.2781 21.4926V7.83826H46.8343V21.4926H45.2781Z" fill="white"/>
<path d="M56.6358 14.1228V19.357C56.6358 19.8822 57.9277 19.8541 57.9277 19.8541L57.8489 21.2301C56.7548 21.2301 55.8498 21.3211 55.3071 20.7942C54.1319 21.3161 52.859 21.5817 51.5732 21.5732C50.6197 21.5732 49.8932 21.303 49.3937 20.7627C48.8942 20.2224 48.6451 19.4457 48.6462 18.4327C48.6462 17.422 48.9024 16.6781 49.4147 16.2007C49.9271 15.7234 50.7294 15.4317 51.8218 15.3255L55.0795 15.0156V14.1228C55.0795 13.4226 54.9278 12.9173 54.6244 12.6068C54.4581 12.4508 54.262 12.33 54.0478 12.2518C53.8335 12.1735 53.6057 12.1395 53.378 12.1517H49.2887V10.781H53.2747C54.4511 10.781 55.3054 11.0512 55.8375 11.5915C56.3697 12.1319 56.6358 12.9756 56.6358 14.1228ZM50.241 18.3557C50.241 19.6289 50.7662 20.2655 51.8165 20.2655C52.764 20.2644 53.7046 20.1029 54.5981 19.7876L55.0743 19.6213V16.1972L52.0091 16.4878C51.3859 16.5438 50.936 16.7236 50.6594 17.027C50.3828 17.3304 50.2433 17.7733 50.241 18.3557Z" fill="white"/>
<path d="M62.7119 12.1727C61.2029 12.1727 60.4485 12.6979 60.4485 13.7482C60.4485 14.2337 60.6235 14.5763 60.9736 14.7758C61.3237 14.9754 62.1121 15.1831 63.3386 15.399C64.571 15.6149 65.4428 15.916 65.954 16.3023C66.4651 16.6886 66.7213 17.4145 66.7224 18.48C66.7224 19.5467 66.3799 20.3286 65.6949 20.8258C65.0098 21.3229 64.0102 21.5721 62.6962 21.5732C61.8384 21.5732 58.9745 21.2546 58.9745 21.2546L59.0585 19.9067C60.704 20.0643 61.8927 20.1815 62.6962 20.1815C63.4997 20.1815 64.1106 20.0538 64.5325 19.7982C64.9544 19.5426 65.1645 19.1137 65.1645 18.5115C65.1645 17.9093 64.9894 17.5014 64.6253 17.2861C64.2612 17.0708 63.4769 16.8677 62.2603 16.6734C61.0436 16.4791 60.1771 16.1955 59.666 15.8227C59.1548 15.4498 58.8975 14.7566 58.8975 13.7465C58.8975 12.7364 59.2476 11.9959 59.967 11.5058C60.6865 11.0156 61.5688 10.7793 62.6331 10.7793C63.4769 10.7793 66.4056 10.9946 66.4056 10.9946V12.3513C64.8599 12.283 63.596 12.1727 62.7119 12.1727Z" fill="white"/>
<path d="M74.2236 12.3373H70.9238V17.2984C70.9238 18.4876 71.0102 19.2689 71.1829 19.6424C71.358 20.017 71.7676 20.2026 72.4171 20.2026L74.2639 20.0783L74.3689 21.3649C73.6696 21.4942 72.9616 21.5708 72.2508 21.5942C71.1724 21.5942 70.4255 21.3311 70.01 20.8047C69.5946 20.2784 69.3874 19.2753 69.3886 17.7955V12.3373H67.9216V10.9894H69.3956V7.81384H70.9308V10.9894H74.2236V12.3373Z" fill="white"/>
<path d="M76.3872 9.66412V7.85754H77.9435V9.66412H76.3872ZM76.3872 21.4926V10.9893H77.9435V21.4926H76.3872Z" fill="white"/>
<path d="M84.685 10.781C85.4621 10.8142 86.2363 10.8978 87.0027 11.0313L87.4998 11.0926L87.4386 12.3583C86.6253 12.2552 85.8073 12.1933 84.9878 12.1727C83.8114 12.1727 83.0126 12.4528 82.5913 13.013C82.17 13.5731 81.9588 14.6106 81.9576 16.1255C81.9576 17.6426 82.1548 18.6976 82.5493 19.2905C82.9437 19.8833 83.7665 20.1809 85.0176 20.1833L87.4683 19.9977L87.5314 21.2844C86.5773 21.446 85.6135 21.543 84.6464 21.5749C83.0289 21.5749 81.9121 21.1595 81.2959 20.3286C80.6797 19.4976 80.3716 18.0972 80.3716 16.1272C80.3716 14.1561 80.7036 12.7726 81.3676 11.9766C82.0317 11.1807 83.1375 10.7822 84.685 10.781Z" fill="white"/>
<path d="M102.041 13.1057L101.254 13.3146C101.128 12.9246 100.95 12.5881 100.718 12.305C100.486 12.0218 100.193 11.8037 99.8404 11.6505C99.4923 11.4926 99.0745 11.4137 98.5871 11.4137C97.8026 11.4137 97.1597 11.6087 96.6584 11.9986C96.1618 12.3885 95.9134 12.8968 95.9134 13.5234C95.9134 14.034 96.0828 14.4564 96.4217 14.7907C96.7605 15.1202 97.2781 15.3709 97.9744 15.5426L99.6176 15.9534C100.462 16.1623 101.098 16.5012 101.525 16.97C101.952 17.4342 102.166 18.0121 102.166 18.7037C102.166 19.2932 102.006 19.8154 101.686 20.2703C101.365 20.7252 100.922 21.0803 100.356 21.3356C99.794 21.5909 99.1395 21.7186 98.3921 21.7186C97.3942 21.7186 96.5749 21.4865 95.9343 21.0223C95.2937 20.5535 94.8829 19.8827 94.7019 19.0101L95.5165 18.8012C95.6697 19.4975 95.9877 20.029 96.4704 20.3957C96.9578 20.7577 97.5961 20.9387 98.3852 20.9387C99.2578 20.9387 99.9611 20.7322 100.495 20.3191C101.033 19.9059 101.303 19.3768 101.303 18.7316C101.303 18.2395 101.145 17.8241 100.829 17.4852C100.513 17.1464 100.035 16.898 99.3948 16.7402L97.6889 16.3225C96.8162 16.1089 96.1618 15.7678 95.7254 15.2989C95.2891 14.8255 95.0709 14.2429 95.0709 13.5513C95.0709 12.9757 95.2218 12.4698 95.5235 12.0334C95.8252 11.5971 96.2407 11.2559 96.7698 11.0099C97.299 10.7639 97.9048 10.6409 98.5871 10.6409C99.4923 10.6409 100.23 10.8544 100.801 11.2814C101.372 11.7085 101.785 12.3166 102.041 13.1057Z" fill="white"/>
<path d="M108.786 21.7186C107.821 21.7186 106.981 21.4795 106.266 21.0014C105.551 20.5233 104.999 19.8688 104.609 19.0379C104.219 18.207 104.024 17.2601 104.024 16.1971C104.024 15.1295 104.219 14.1779 104.609 13.3424C105.003 12.5069 105.544 11.8477 106.231 11.365C106.918 10.8822 107.703 10.6409 108.585 10.6409C109.183 10.6409 109.75 10.7616 110.283 11.0029C110.822 11.2397 111.295 11.5832 111.704 12.0334C112.117 12.4837 112.44 13.0268 112.672 13.6627C112.908 14.2986 113.027 15.0135 113.027 15.8072V16.3364H104.56V15.5635H112.177C112.177 14.7883 112.019 14.0897 111.704 13.4677C111.388 12.8457 110.959 12.3514 110.416 11.9847C109.873 11.618 109.262 11.4346 108.585 11.4346C107.874 11.4346 107.241 11.6342 106.684 12.0334C106.131 12.428 105.693 12.9618 105.368 13.6348C105.047 14.3079 104.88 15.0599 104.866 15.8908V16.2389C104.866 17.1301 105.022 17.9309 105.333 18.641C105.649 19.3466 106.099 19.9059 106.684 20.3191C107.269 20.7275 107.969 20.9318 108.786 20.9318C109.371 20.9318 109.87 20.8343 110.283 20.6394C110.701 20.4398 111.042 20.1984 111.307 19.9152C111.572 19.6321 111.771 19.3582 111.906 19.0936L112.679 19.4069C112.516 19.7644 112.263 20.1218 111.92 20.4792C111.581 20.832 111.149 21.1267 110.625 21.3635C110.105 21.6002 109.492 21.7186 108.786 21.7186Z" fill="white"/>
<path d="M119.471 21.7186C118.562 21.7186 117.761 21.4795 117.069 21.0014C116.378 20.5187 115.837 19.8595 115.447 19.024C115.062 18.1885 114.869 17.2415 114.869 16.1832C114.869 15.1249 115.064 14.1779 115.454 13.3424C115.844 12.5069 116.385 11.8477 117.076 11.365C117.768 10.8822 118.564 10.6409 119.464 10.6409C120.142 10.6409 120.76 10.7801 121.317 11.0586C121.878 11.3371 122.342 11.7247 122.709 12.2214C123.08 12.7181 123.317 13.2937 123.419 13.9482H122.556C122.417 13.224 122.069 12.6253 121.511 12.1518C120.959 11.6737 120.279 11.4346 119.471 11.4346C118.747 11.4346 118.102 11.6389 117.536 12.0473C116.969 12.4512 116.524 13.0105 116.199 13.7254C115.874 14.4356 115.712 15.2502 115.712 16.1693C115.712 17.0744 115.869 17.8868 116.185 18.6062C116.501 19.3211 116.942 19.8874 117.508 20.3051C118.074 20.7229 118.729 20.9318 119.471 20.9318C119.996 20.9318 120.474 20.8273 120.906 20.6185C121.342 20.4096 121.706 20.1125 121.999 19.7272C122.291 19.342 122.484 18.8917 122.577 18.3765H123.44C123.338 19.0356 123.106 19.6158 122.744 20.1171C122.382 20.6185 121.92 21.0107 121.358 21.2938C120.797 21.577 120.168 21.7186 119.471 21.7186Z" fill="white"/>
<path d="M132.698 17.7011V10.801H133.547V21.4958H132.698V19.762H132.628C132.378 20.3144 131.971 20.7647 131.41 21.1128C130.853 21.461 130.194 21.635 129.432 21.635C128.731 21.635 128.112 21.4818 127.573 21.1755C127.035 20.8691 126.612 20.4351 126.306 19.8735C126 19.3071 125.846 18.6341 125.846 17.8543V10.801H126.696V17.8194C126.696 18.7107 126.965 19.4325 127.504 19.9849C128.047 20.5326 128.748 20.8065 129.606 20.8065C130.163 20.8065 130.676 20.6811 131.145 20.4305C131.614 20.1798 131.99 19.8224 132.273 19.3582C132.556 18.8894 132.698 18.337 132.698 17.7011Z" fill="white"/>
<path d="M136.577 21.4958V10.801H137.405V12.4721H137.482C137.714 11.9243 138.106 11.4857 138.659 11.1561C139.211 10.8219 139.84 10.6548 140.545 10.6548C140.62 10.6548 140.694 10.6548 140.768 10.6548C140.843 10.6548 140.912 10.6571 140.977 10.6618V11.5182C140.921 11.5135 140.854 11.5066 140.775 11.4973C140.701 11.4834 140.608 11.4764 140.497 11.4764C139.903 11.4764 139.373 11.6041 138.909 11.8594C138.45 12.1147 138.088 12.4674 137.823 12.9177C137.558 13.3633 137.426 13.8739 137.426 14.4495V21.4958H136.577Z" fill="white"/>
<path d="M142.811 21.4958V10.801H143.653V21.4958H142.811ZM143.236 8.90716C143.05 8.90716 142.887 8.84217 142.748 8.7122C142.614 8.58223 142.546 8.42441 142.546 8.23874C142.546 8.05306 142.614 7.89524 142.748 7.76527C142.883 7.6353 143.045 7.57031 143.236 7.57031C143.421 7.57031 143.581 7.6353 143.716 7.76527C143.855 7.89524 143.925 8.05306 143.925 8.23874C143.925 8.42441 143.858 8.58223 143.723 8.7122C143.588 8.84217 143.426 8.90716 143.236 8.90716Z" fill="white"/>
<path d="M150.502 10.801V11.56H145.83V10.801H150.502ZM147.41 8.23874H148.253V18.9683C148.253 19.4046 148.336 19.762 148.504 20.0406C148.675 20.3144 148.898 20.5187 149.172 20.6533C149.45 20.7832 149.748 20.8482 150.063 20.8482C150.216 20.8482 150.349 20.8366 150.46 20.8134C150.576 20.7902 150.685 20.76 150.787 20.7229L150.996 21.4958C150.866 21.5422 150.722 21.5816 150.564 21.6141C150.407 21.6513 150.221 21.6698 150.007 21.6698C149.562 21.6698 149.139 21.57 148.74 21.3704C148.346 21.1708 148.025 20.8807 147.779 20.5001C147.533 20.1195 147.41 19.6599 147.41 19.1215V8.23874Z" fill="white"/>
<path d="M153.845 25.5063C153.631 25.5063 153.42 25.4831 153.211 25.4367C153.002 25.3903 152.814 25.3299 152.647 25.2556L152.898 24.5106C153.334 24.6777 153.729 24.7381 154.081 24.6917C154.439 24.6452 154.754 24.4828 155.028 24.2043C155.302 23.9258 155.534 23.5173 155.725 22.9788L156.212 21.642L152.292 10.801H153.204L156.602 20.4026H156.671L160.069 10.801H160.981L156.47 23.313C156.298 23.7958 156.082 24.1996 155.822 24.5246C155.562 24.8495 155.265 25.0932 154.931 25.2556C154.601 25.4227 154.239 25.5063 153.845 25.5063Z" fill="white"/>
<path d="M169.096 7.23608V21.4957H168.246V7.23608H169.096Z" fill="white"/>
<path d="M174.955 21.7255C174.338 21.7255 173.772 21.6025 173.257 21.3565C172.746 21.1105 172.335 20.7507 172.024 20.2773C171.718 19.8038 171.565 19.2282 171.565 18.5505C171.565 18.1049 171.644 17.7127 171.801 17.3738C171.959 17.035 172.203 16.7425 172.532 16.4965C172.862 16.2505 173.284 16.0486 173.8 15.8908C174.315 15.7283 174.93 15.603 175.645 15.5148C176.188 15.4498 176.673 15.3871 177.1 15.3268C177.527 15.2618 177.861 15.162 178.103 15.0274C178.349 14.8928 178.472 14.6885 178.472 14.4147V13.969C178.472 13.1892 178.226 12.5695 177.734 12.11C177.242 11.6505 176.564 11.4207 175.701 11.4207C174.935 11.4207 174.289 11.5901 173.765 11.929C173.245 12.2632 172.881 12.6949 172.672 13.224L171.871 12.9246C172.075 12.414 172.37 11.9893 172.755 11.6505C173.145 11.3116 173.591 11.0586 174.092 10.8915C174.598 10.7244 175.127 10.6409 175.68 10.6409C176.158 10.6409 176.613 10.7082 177.044 10.8428C177.481 10.9774 177.868 11.1816 178.207 11.4555C178.551 11.7294 178.822 12.0798 179.022 12.5069C179.221 12.9293 179.321 13.4352 179.321 14.0247V21.4957H178.472V19.5671H178.409C178.223 19.9663 177.968 20.3307 177.643 20.6602C177.323 20.9852 176.935 21.2451 176.48 21.44C176.03 21.6304 175.522 21.7255 174.955 21.7255ZM175.039 20.9387C175.707 20.9387 176.299 20.7763 176.815 20.4513C177.334 20.1218 177.741 19.6715 178.033 19.1006C178.325 18.5296 178.472 17.8821 178.472 17.158V15.5844C178.365 15.6772 178.209 15.7608 178.005 15.8351C177.806 15.9047 177.578 15.9673 177.323 16.023C177.072 16.0741 176.808 16.1205 176.529 16.1623C176.255 16.1994 175.988 16.2342 175.728 16.2667C174.949 16.3596 174.313 16.5035 173.821 16.6984C173.333 16.8887 172.976 17.1394 172.748 17.4504C172.526 17.7614 172.414 18.1374 172.414 18.5784C172.414 19.3071 172.665 19.8827 173.166 20.3051C173.667 20.7275 174.292 20.9387 175.039 20.9387Z" fill="white"/>
<path d="M182.692 21.4957V7.23608H183.534V13.1892H183.618C183.785 12.7297 184.022 12.3073 184.328 11.922C184.634 11.5367 185.015 11.228 185.47 10.996C185.925 10.7592 186.456 10.6409 187.064 10.6409C187.923 10.6409 188.673 10.8799 189.313 11.358C189.954 11.8315 190.451 12.486 190.803 13.3215C191.156 14.1524 191.332 15.104 191.332 16.1762C191.332 17.2578 191.156 18.2163 190.803 19.0518C190.451 19.8827 189.956 20.5349 189.32 21.0084C188.684 21.4818 187.935 21.7186 187.071 21.7186C186.463 21.7186 185.932 21.6025 185.477 21.3704C185.022 21.1337 184.641 20.8227 184.335 20.4374C184.029 20.0475 183.79 19.6228 183.618 19.1632H183.52V21.4957H182.692ZM183.527 16.1693C183.527 17.0791 183.664 17.8937 183.938 18.6132C184.217 19.328 184.616 19.8943 185.136 20.3121C185.656 20.7252 186.278 20.9318 187.002 20.9318C187.735 20.9318 188.362 20.7229 188.882 20.3051C189.402 19.8827 189.798 19.3118 190.072 18.5923C190.351 17.8728 190.49 17.0651 190.49 16.1693C190.49 15.2734 190.351 14.468 190.072 13.7532C189.798 13.0384 189.402 12.4744 188.882 12.0613C188.362 11.6435 187.735 11.4346 187.002 11.4346C186.278 11.4346 185.656 11.6412 185.136 12.0543C184.616 12.4628 184.217 13.0244 183.938 13.7393C183.664 14.4495 183.527 15.2595 183.527 16.1693Z" fill="white"/>
<path d="M200.569 13.1057L199.782 13.3145C199.657 12.9246 199.478 12.5881 199.246 12.3049C199.014 12.0218 198.722 11.8036 198.369 11.6505C198.021 11.4926 197.603 11.4137 197.116 11.4137C196.331 11.4137 195.688 11.6087 195.187 11.9986C194.69 12.3885 194.442 12.8968 194.442 13.5234C194.442 14.034 194.611 14.4564 194.95 14.7906C195.289 15.1202 195.807 15.3709 196.503 15.5426L198.146 15.9534C198.991 16.1623 199.627 16.5012 200.054 16.97C200.481 17.4342 200.695 18.0121 200.695 18.7037C200.695 19.2932 200.534 19.8154 200.214 20.2703C199.894 20.7252 199.451 21.0803 198.884 21.3356C198.323 21.5909 197.668 21.7186 196.921 21.7186C195.923 21.7186 195.104 21.4865 194.463 21.0223C193.822 20.5535 193.412 19.8827 193.231 19.0101L194.045 18.8012C194.198 19.4974 194.516 20.0289 194.999 20.3956C195.486 20.7577 196.125 20.9387 196.914 20.9387C197.786 20.9387 198.49 20.7322 199.024 20.319C199.562 19.9059 199.831 19.3768 199.831 18.7315C199.831 18.2395 199.673 17.8241 199.358 17.4852C199.042 17.1464 198.564 16.898 197.923 16.7402L196.218 16.3224C195.345 16.1089 194.69 15.7677 194.254 15.2989C193.818 14.8255 193.6 14.2429 193.6 13.5513C193.6 12.9757 193.75 12.4697 194.052 12.0334C194.354 11.5971 194.769 11.2559 195.298 11.0099C195.828 10.7639 196.433 10.6409 197.116 10.6409C198.021 10.6409 198.759 10.8544 199.33 11.2814C199.901 11.7085 200.314 12.3166 200.569 13.1057Z" fill="white"/>
</svg>
