<?xml version="1.0" encoding="UTF-8"?>
<svg width="407px" height="118px" viewBox="0 0 407 118" version="1.1" xmlns="http://www.w3.org/2000/svg" xmlns:xlink="http://www.w3.org/1999/xlink">
    <title>Group 8</title>
    <defs>
        <linearGradient x1="100.000166%" y1="49.9991511%" x2="-0.000325626095%" y2="49.9991511%" id="linearGradient-1">
            <stop stop-color="#CAFBE9" offset="0%"></stop>
            <stop stop-color="#C8E9FF" offset="100%"></stop>
        </linearGradient>
    </defs>
    <g id="Round-Three-Design" stroke="none" stroke-width="1" fill="none" fill-rule="evenodd">
        <g id="CADO-Homepage-R3" transform="translate(-1101, -5822)">
            <g id="Group-8" transform="translate(1101, 5822)">
                <path d="M123.387687,0 C112.079417,0 102.322845,6.63057479 97.7697778,16.2227495 L97.7697778,16.2227495 L28.3557013,16.2227495 C12.6941715,16.2227495 0,28.9469759 0,44.6455862 L0,44.6455862 L0,46.4651591 C0,62.159508 12.6941715,74.892257 28.3557013,74.892257 L28.3557013,74.892257 L152.249285,74.892257 C157.291243,82.7713912 166.099791,88 176.132693,88 L176.132693,88 L347.644299,88 C363.305828,88 376,75.2715123 376,59.5771633 L376,59.5771633 L376,57.7533291 C376,42.0589802 363.305828,29.3304925 347.644299,29.3304925 L347.644299,29.3304925 L287.170558,29.3304925 L287.170558,28.4228367 C287.170558,12.7242264 274.476386,0 258.814857,0 L258.814857,0 L123.387687,0 Z" id="Fill-6" fill="url(#linearGradient-1)"></path>
                <path d="M376.644299,58.0014043 L316.170558,58.0014043 L316.170558,57.0998499 C316.170558,41.5838458 303.476386,29 287.814857,29 L152.383436,29 C141.079417,29 131.327096,35.5552273 126.769778,45.0384001 L57.3557013,45.0384001 C41.6941715,45.0384001 29,57.6222459 29,73.13825 L29,74.9413588 C29,90.4573628 41.6941715,103.041209 57.3557013,103.041209 L181.249285,103.041209 C186.291243,110.830807 195.099791,116 205.132693,116 L376.644299,116 C392.305828,116 405,103.420367 405,87.9001501 L405,86.1012542 C405,70.5810372 392.305828,58.0014043 376.644299,58.0014043 Z" id="Stroke-9" stroke="#56BD9A" stroke-width="3.1875"></path>
            </g>
        </g>
    </g>
</svg>