<?xml version="1.0" encoding="UTF-8"?>
<svg width="25px" height="24px" viewBox="0 0 25 24" version="1.1" xmlns="http://www.w3.org/2000/svg" xmlns:xlink="http://www.w3.org/1999/xlink">
    <title>github-mark</title>
    <g id="Round-Three-Design" stroke="none" stroke-width="1" fill="none" fill-rule="evenodd">
        <g id="CADO-Homepage-R3" transform="translate(-315, -6761)" fill="#24292F">
            <g id="Group-4" transform="translate(200, 6761)">
                <g id="github-mark" transform="translate(115.4312, 0)">
                    <path d="M12.1794395,0 C5.44452407,0 0,5.499977 0,12.3041986 C0,17.7431758 3.48849422,22.3471566 8.32796037,23.9766497 C8.93301829,24.0991492 9.15464849,23.7119008 9.15464849,23.3861522 C9.15464849,23.1009034 9.13470426,22.1231575 9.13470426,21.1044118 C5.74667907,21.8379087 5.04115212,19.6376679 5.04115212,19.6376679 C4.49667478,18.2116738 3.68993089,17.8451754 3.68993089,17.8451754 C2.58103199,17.0914285 3.770705,17.0914285 3.770705,17.0914285 C5.00076507,17.1729282 5.64621004,18.3544233 5.64621004,18.3544233 C6.73491541,20.2284154 8.48925929,19.6989176 9.19503554,19.372919 C9.29575388,18.5784223 9.61860102,18.0284246 9.96139238,17.7229259 C7.25919922,17.4376771 4.41614998,16.3784315 4.41614998,11.6522013 C4.41614998,10.3077069 4.89979743,9.2077115 5.66615427,8.35221508 C5.5452424,8.04671635 5.12167693,6.78347163 5.78731543,5.0927287 C5.78731543,5.0927287 6.81568952,4.76673007 9.13445496,6.35572342 C10.1272009,6.0863902 11.1510037,5.9493787 12.1794395,5.94822513 C13.2078136,5.94822513 14.2561319,6.09097453 15.2241747,6.35572342 C17.5431894,4.76673007 18.5715635,5.0927287 18.5715635,5.0927287 C19.237202,6.78347163 18.8133873,8.04671635 18.6924754,8.35221508 C19.4790258,9.2077115 19.942729,10.3077069 19.942729,11.6522013 C19.942729,16.3784315 17.0996797,17.4171772 14.3772931,17.7229259 C14.8210521,18.1099243 15.2039812,18.8431712 15.2039812,20.0044164 C15.2039812,21.6544095 15.1840369,22.9786539 15.1840369,23.3859022 C15.1840369,23.7119008 15.4059164,24.0991492 16.0107251,23.9768997 C20.8501912,22.3469066 24.3387399,17.7431758 24.3387399,12.3041986 C24.3586297,5.499977 18.8941614,0 12.1794395,0 Z" id="Path"></path>
                </g>
            </g>
        </g>
    </g>
</svg>