<svg width="50" height="50" viewBox="0 0 50 50" fill="none" xmlns="http://www.w3.org/2000/svg">
<path d="M25 9.88745C22.8875 9.88745 21.175 11.6 21.175 13.7125C21.175 15.825 22.8875 17.5375 25 17.5375C27.1125 17.5375 28.825 15.825 28.825 13.7125C28.825 11.6 27.1125 9.88745 25 9.88745Z" fill="url(#paint0_linear_1_691)"/>
<path d="M13.875 14.3375C12.375 14.3375 11.1625 15.55 11.1625 17.05C11.1625 18.55 12.375 19.7625 13.875 19.7625C15.375 19.7625 16.5875 18.55 16.5875 17.05C16.5875 15.55 15.375 14.3375 13.875 14.3375Z" fill="url(#paint1_linear_1_691)"/>
<path d="M36.125 19.7625C37.625 19.7625 38.8375 18.55 38.8375 17.05C38.8375 15.55 37.625 14.3375 36.125 14.3375C34.625 14.3375 33.4125 15.55 33.4125 17.05C33.4125 18.55 34.625 19.7625 36.125 19.7625Z" fill="url(#paint2_linear_1_691)"/>
<path d="M30.075 13.7125C30.075 10.9125 27.8 8.63745 25 8.63745C22.2 8.63745 19.925 10.9125 19.925 13.7125C19.925 15.725 21.1125 17.4625 22.8125 18.275C23.5 18.0125 24.225 17.8625 25 17.8625C25.775 17.8625 26.5 18.025 27.1875 18.275C28.8875 17.45 30.075 15.725 30.075 13.7125ZM25 17.5375C22.8875 17.5375 21.175 15.825 21.175 13.7125C21.175 11.6 22.8875 9.88745 25 9.88745C27.1125 9.88745 28.825 11.6 28.825 13.7125C28.825 15.825 27.1125 17.5375 25 17.5375Z" fill="#56BD9A"/>
<path d="M22.8125 18.275C20.475 19.1625 18.8125 21.4 18.8125 24.05V27.3875C18.8125 27.55 18.875 27.7125 19 27.825C19.1125 27.9375 19.275 28.0125 19.4375 28.0125H21.1125L22.1625 36.375C22.2 36.6875 22.4625 36.9251 22.7875 36.9251H27.2375C27.55 36.9251 27.8125 36.6875 27.8625 36.375L28.9125 28.0125H30.5875C30.75 28.0125 30.9125 27.95 31.025 27.825C31.1375 27.7125 31.2125 27.55 31.2125 27.3875V24.05C31.2125 21.4 29.55 19.1625 27.2125 18.275C26.525 18.0125 25.8 17.8625 25.025 17.8625C24.25 17.8625 23.525 18.025 22.8375 18.275H22.8125ZM28.4875 20.55C29.3875 21.45 29.9375 22.675 29.9375 24.0375V26.75H28.3375C28.025 26.75 27.7625 26.9875 27.7125 27.3L26.6625 35.6625H23.3125L22.2625 27.3C22.225 26.9875 21.9625 26.75 21.6375 26.75H20.0375V24.0375C20.0375 22.675 20.5875 21.4375 21.4875 20.55C22.3875 19.65 23.6125 19.1 24.975 19.1C26.3375 19.1 27.575 19.65 28.4625 20.55H28.4875Z" fill="#56BD9A"/>
<path d="M17.8375 17.05C17.8375 14.8625 16.0625 13.0875 13.875 13.0875C11.6875 13.0875 9.91251 14.8625 9.91251 17.05C9.91251 18.5 10.6875 19.75 11.85 20.4375C12.5 20.2125 13.1875 20.0875 13.8875 20.0875C14.5375 20.0875 15.2125 20.1875 15.8625 20.4125C15.8875 20.4125 15.9 20.4375 15.9125 20.4375C17.0625 19.75 17.85 18.5 17.85 17.05H17.8375ZM13.875 19.7625C12.375 19.7625 11.1625 18.55 11.1625 17.05C11.1625 15.55 12.375 14.3375 13.875 14.3375C15.375 14.3375 16.5875 15.55 16.5875 17.05C16.5875 18.55 15.375 19.7625 13.875 19.7625Z" fill="#56BD9A"/>
<path d="M13.875 20.0875C13.175 20.0875 12.4875 20.2125 11.8375 20.4375C10.0875 21.05 8.63749 22.4125 7.99999 24.3C7.78749 24.9375 7.67499 25.6 7.67499 26.275V27.3875C7.67499 27.55 7.73749 27.7125 7.86249 27.825C7.97499 27.9375 8.13749 28.0125 8.29999 28.0125H9.99999L11.025 34.1625C11.075 34.4625 11.3375 34.6875 11.6375 34.6875H16.0875C16.3875 34.6875 16.65 34.4625 16.7 34.1625L17.2625 30.8125C17.325 30.475 17.0875 30.15 16.75 30.0875C16.4125 30.025 16.0875 30.2625 16.025 30.6L15.55 33.425H12.1625L11.1375 27.275C11.0875 26.975 10.825 26.75 10.525 26.75H8.92499V26.2625C8.92499 25.725 9.01249 25.2 9.18749 24.6875C9.88749 22.625 11.8125 21.325 13.875 21.3125C14.4 21.3125 14.925 21.4 15.45 21.575C15.775 21.6875 16.1375 21.5125 16.2375 21.1875C16.3375 20.875 16.1875 20.55 15.9 20.425C15.8875 20.425 15.8625 20.4 15.85 20.4C15.2 20.175 14.525 20.075 13.875 20.075V20.0875Z" fill="#56BD9A"/>
<path d="M36.125 20.0875C36.825 20.0875 37.5125 20.2125 38.1625 20.4375C39.3125 19.75 40.1 18.4875 40.1 17.05C40.1 14.8625 38.325 13.0875 36.1375 13.0875C33.95 13.0875 32.175 14.8625 32.175 17.05C32.175 18.4875 32.95 19.75 34.1125 20.4375C34.125 20.4375 34.15 20.4125 34.1625 20.4125C34.8125 20.1875 35.4875 20.0875 36.1375 20.0875H36.125ZM33.4125 17.05C33.4125 15.55 34.625 14.3375 36.125 14.3375C37.625 14.3375 38.8375 15.55 38.8375 17.05C38.8375 18.55 37.625 19.7625 36.125 19.7625C34.625 19.7625 33.4125 18.55 33.4125 17.05Z" fill="#56BD9A"/>
<path d="M42.325 26.275C42.325 25.6 42.2125 24.9375 42 24.3C41.3625 22.4125 39.9125 21.05 38.1625 20.4375C37.5125 20.2125 36.825 20.0875 36.125 20.0875C35.475 20.0875 34.8 20.1875 34.15 20.4125C34.125 20.4125 34.1125 20.4375 34.1 20.4375C33.8125 20.5625 33.65 20.8875 33.7625 21.2C33.875 21.525 34.225 21.7 34.55 21.5875C35.075 21.4125 35.6 21.325 36.125 21.325C38.1875 21.325 40.1125 22.625 40.8125 24.7C40.9875 25.2125 41.075 25.7375 41.075 26.275V26.7625H39.475C39.175 26.7625 38.9125 26.9875 38.8625 27.2875L37.8375 33.4375H34.45L33.975 30.6125C33.9125 30.275 33.6 30.0375 33.25 30.1C32.9125 30.1625 32.675 30.475 32.7375 30.825L33.3 34.175C33.35 34.475 33.6125 34.7 33.9125 34.7H38.3625C38.6625 34.7 38.925 34.475 38.975 34.175L40 28.025H41.7C41.8625 28.025 42.025 27.9625 42.1375 27.8375C42.25 27.7125 42.325 27.5625 42.325 27.4V26.2875V26.275Z" fill="#56BD9A"/>
<path d="M41.7875 38.525C42.0875 38.2375 42.3125 37.8625 42.3125 37.4C42.3125 37.05 42.0375 36.775 41.6875 36.775C41.3375 36.775 41.0625 37.05 41.0625 37.4C41.0625 37.4 41.0625 37.475 40.9125 37.625C40.6625 37.8875 40.0125 38.2375 39.075 38.5375C36.275 39.4625 30.9875 40.1125 24.9875 40.1125C20.4125 40.1125 16.2625 39.7375 13.3 39.15C11.825 38.85 10.6375 38.5 9.86251 38.1375C9.47501 37.9625 9.20001 37.775 9.06251 37.625C8.91251 37.475 8.91251 37.4125 8.91251 37.4C8.91251 37.05 8.63751 36.775 8.28751 36.775C7.93751 36.775 7.66251 37.05 7.66251 37.4C7.66251 37.85 7.90001 38.2375 8.18751 38.525C8.71251 39.025 9.48751 39.3875 10.5125 39.725C13.5625 40.725 18.8875 41.3625 24.9875 41.3625C29.6375 41.3625 33.8375 40.9875 36.9125 40.375C38.45 40.0625 39.7125 39.7 40.6375 39.2625C41.1 39.0375 41.475 38.8125 41.775 38.5125L41.7875 38.525Z" fill="#56BD9A"/>
<defs>
<linearGradient id="paint0_linear_1_691" x1="21.843" y1="12.5635" x2="30.743" y2="12.5635" gradientUnits="userSpaceOnUse">
<stop stop-color="#C9EAFF"/>
<stop offset="1" stop-color="#CAFBEA"/>
</linearGradient>
<linearGradient id="paint1_linear_1_691" x1="11.5073" y1="16.1883" x2="18.1823" y2="16.1883" gradientUnits="userSpaceOnUse">
<stop stop-color="#C9EAFF"/>
<stop offset="1" stop-color="#CAFBEA"/>
</linearGradient>
<linearGradient id="paint2_linear_1_691" x1="33.7698" y1="16.1883" x2="40.4448" y2="16.1883" gradientUnits="userSpaceOnUse">
<stop stop-color="#C9EAFF"/>
<stop offset="1" stop-color="#CAFBEA"/>
</linearGradient>
</defs>
</svg>
