<svg width="50" height="50" viewBox="0 0 50 50" fill="none" xmlns="http://www.w3.org/2000/svg">
<path d="M35.4145 11.1682L22.8325 23.7415L26.2519 27.1633L38.8339 14.59L35.4145 11.1682Z" fill="url(#paint0_linear_1_785)"/>
<path d="M38.204 8.36852L36.2949 10.2777L39.7155 13.6983L41.6247 11.7892L38.204 8.36852Z" fill="url(#paint1_linear_1_785)"/>
<path d="M25.15 27.85L22.1625 24.85L19.9125 30.0875L25.15 27.85Z" fill="url(#paint2_linear_1_785)"/>
<path d="M37.0375 40.975V24.2375C37.0375 23.8875 36.7625 23.6125 36.4125 23.6125C36.0625 23.6125 35.7875 23.8875 35.7875 24.2375V40.975C35.7875 41.475 35.3875 41.875 34.8875 41.875H9.025C8.525 41.875 8.125 41.475 8.125 40.975V12.0625C8.125 11.5625 8.525 11.1625 9.025 11.1625H28.8125C29.1625 11.1625 29.4375 10.8875 29.4375 10.5375C29.4375 10.1875 29.1625 9.91248 28.8125 9.91248H9.025C7.8375 9.91248 6.875 10.875 6.875 12.0625V40.975C6.875 42.1625 7.8375 43.125 9.025 43.125H34.9C36.0875 43.125 37.05 42.1625 37.05 40.975H37.0375Z" fill="#56BD9A"/>
<path d="M25.8125 28.5L25.1625 27.8501L19.9125 30.1L22.1625 24.85L21.5125 24.2001C21.2625 23.9501 21.2625 23.5625 21.5125 23.3125C21.7625 23.0625 22.15 23.0625 22.4 23.3125L22.8375 23.75L35.4125 11.175L34.9625 10.725C34.725 10.4875 34.725 10.1125 34.95 9.86255L21.5125 23.3L21.375 23.5L18.15 31.0375C18.05 31.275 18.1 31.55 18.2875 31.725C18.4625 31.9 18.7375 31.9625 18.975 31.8625L26.475 28.65C26.25 28.7375 26 28.6875 25.8125 28.5125V28.5Z" fill="#56BD9A"/>
<path d="M38.6375 7.0625C38.3875 6.8125 38 6.8125 37.75 7.0625L34.9875 9.825C35.2375 9.6 35.6125 9.6 35.85 9.8375L36.3 10.2875L38.2 8.3875L41.625 11.8125L39.725 13.7125L40.1625 14.15C40.4125 14.4 40.4125 14.7875 40.1625 15.0375C39.9125 15.2875 39.525 15.2875 39.275 15.0375L38.8375 14.6L26.2625 27.175L26.7125 27.625C26.95 27.8625 26.95 28.25 26.7125 28.5L42.95 12.2625C43.2 12.0125 43.2 11.625 42.95 11.375L38.65 7.075L38.6375 7.0625Z" fill="#56BD9A"/>
<path d="M34.9625 10.7251L35.4125 11.1751L38.8375 14.6001L39.275 15.0376C39.525 15.2876 39.9125 15.2876 40.1625 15.0376C40.4125 14.7876 40.4125 14.4001 40.1625 14.1501L39.725 13.7126L36.3 10.2876L35.85 9.83756C35.6125 9.60006 35.2375 9.60006 34.9875 9.82506C34.9875 9.82506 34.975 9.82506 34.9625 9.83756C34.95 9.85006 34.9625 9.85006 34.95 9.86256C34.725 10.1126 34.725 10.4876 34.9625 10.7251Z" fill="#56BD9A"/>
<path d="M26.7 27.6125L26.25 27.1625L22.825 23.7375L22.3875 23.3C22.1375 23.05 21.75 23.05 21.5 23.3C21.25 23.55 21.25 23.9376 21.5 24.1876L22.15 24.8376L25.15 27.8376L25.8 28.4876C25.975 28.6626 26.2375 28.7125 26.4625 28.625C26.55 28.6 26.625 28.5501 26.6875 28.4876C26.6875 28.4876 26.6875 28.4876 26.6875 28.4751C26.925 28.2251 26.925 27.85 26.6875 27.6L26.7 27.6125Z" fill="#56BD9A"/>
<defs>
<linearGradient id="paint0_linear_1_785" x1="19.1747" y1="16.4323" x2="42.9497" y2="16.4323" gradientUnits="userSpaceOnUse">
<stop stop-color="#C9EAFF"/>
<stop offset="1" stop-color="#CAFBEA"/>
</linearGradient>
<linearGradient id="paint1_linear_1_785" x1="2356.79" y1="8.30186" x2="2380.56" y2="8.30186" gradientUnits="userSpaceOnUse">
<stop stop-color="#C9EAFF"/>
<stop offset="1" stop-color="#CAFBEA"/>
</linearGradient>
<linearGradient id="paint2_linear_1_785" x1="2356.93" y1="24.7447" x2="2380.7" y2="24.7447" gradientUnits="userSpaceOnUse">
<stop stop-color="#C9EAFF"/>
<stop offset="1" stop-color="#CAFBEA"/>
</linearGradient>
</defs>
</svg>
