<svg width="50" height="50" viewBox="0 0 50 50" fill="none" xmlns="http://www.w3.org/2000/svg">
<path d="M30.8875 20.925C30.8875 20.6625 30.7875 20.4125 30.6 20.225L25.8375 15.325C25.65 15.1375 25.3875 15.025 25.125 15.025H10.15C9.6875 15.025 9.3125 15.4 9.3125 15.8625V42.275C9.3125 42.7375 9.6875 43.1125 10.15 43.1125H30.0375C30.5 43.1125 30.875 42.7375 30.875 42.275V20.925H30.8875ZM13.6375 20.15H21.175C21.525 20.15 21.8 20.425 21.8 20.775C21.8 21.125 21.525 21.4 21.175 21.4H13.6375C13.2875 21.4 13.0125 21.125 13.0125 20.775C13.0125 20.425 13.2875 20.15 13.6375 20.15ZM26.5625 38.35H13.6375C13.2875 38.35 13.0125 38.075 13.0125 37.725C13.0125 37.375 13.2875 37.1 13.6375 37.1H26.5625C26.9125 37.1 27.1875 37.375 27.1875 37.725C27.1875 38.075 26.9125 38.35 26.5625 38.35ZM26.5625 34.1125H13.6375C13.2875 34.1125 13.0125 33.8375 13.0125 33.4875C13.0125 33.1375 13.2875 32.8625 13.6375 32.8625H26.5625C26.9125 32.8625 27.1875 33.1375 27.1875 33.4875C27.1875 33.8375 26.9125 34.1125 26.5625 34.1125ZM26.5625 29.875H13.6375C13.2875 29.875 13.0125 29.6 13.0125 29.25C13.0125 28.9 13.2875 28.625 13.6375 28.625H26.5625C26.9125 28.625 27.1875 28.9 27.1875 29.25C27.1875 29.6 26.9125 29.875 26.5625 29.875ZM26.5625 25.6375H13.6375C13.2875 25.6375 13.0125 25.3625 13.0125 25.0125C13.0125 24.6625 13.2875 24.3875 13.6375 24.3875H26.5625C26.9125 24.3875 27.1875 24.6625 27.1875 25.0125C27.1875 25.3625 26.9125 25.6375 26.5625 25.6375Z" fill="url(#paint0_linear_1_680)"/>
<path d="M8.0625 15.875V42.2875C8.0625 43.4375 9 44.375 10.15 44.375H30.0375C31.1875 44.375 32.125 43.4375 32.125 42.2875V36.225H31.5C31.15 36.225 30.875 35.95 30.875 35.6V42.2875C30.875 42.75 30.5 43.125 30.0375 43.125H10.15C9.6875 43.125 9.3125 42.75 9.3125 42.2875V15.875C9.3125 15.4125 9.6875 15.0375 10.15 15.0375H18.4625C18.1125 15.0375 17.8375 14.7625 17.8375 14.4125V13.7875H10.15C9 13.7875 8.0625 14.725 8.0625 15.875Z" fill="#56BD9A"/>
<path d="M31.5125 34.975H32.1375V20.9375C32.1375 20.35 31.9125 19.7875 31.5 19.3625L26.7375 14.4625C26.3125 14.025 25.7375 13.7875 25.125 13.7875H19.1V14.4125C19.1 14.7625 18.825 15.0375 18.475 15.0375H25.125C25.4 15.0375 25.65 15.15 25.8375 15.3375L30.6 20.2375C30.7875 20.425 30.8875 20.675 30.8875 20.9375V35.6125C30.8875 35.2625 31.1625 34.9875 31.5125 34.9875V34.975Z" fill="#56BD9A"/>
<path d="M18.475 15.025C18.825 15.025 19.1 14.75 19.1 14.4V7.71245C19.1 7.24995 19.475 6.87495 19.9375 6.87495H34.9125C35.1875 6.87495 35.4375 6.98745 35.625 7.17495L40.3875 12.075C40.575 12.2625 40.675 12.5125 40.675 12.775V34.1249C40.675 34.5874 40.3 34.9625 39.8375 34.9625H31.5125C31.1625 34.9625 30.8875 35.2375 30.8875 35.5875C30.8875 35.9375 31.1625 36.2125 31.5125 36.2125H39.8375C40.9875 36.2125 41.925 35.2749 41.925 34.1249V12.7875C41.925 12.2 41.7 11.6375 41.2875 11.2125L36.525 6.31245C36.1 5.87495 35.525 5.63745 34.9125 5.63745H19.9375C18.7875 5.63745 17.85 6.57495 17.85 7.72495V14.4125C17.85 14.7625 18.125 15.0375 18.475 15.0375V15.025Z" fill="#56BD9A"/>
<path d="M13.6375 21.4H21.175C21.525 21.4 21.8 21.125 21.8 20.775C21.8 20.425 21.525 20.15 21.175 20.15H13.6375C13.2875 20.15 13.0125 20.425 13.0125 20.775C13.0125 21.125 13.2875 21.4 13.6375 21.4Z" fill="#56BD9A"/>
<path d="M26.5625 24.3875H13.6375C13.2875 24.3875 13.0125 24.6625 13.0125 25.0125C13.0125 25.3625 13.2875 25.6375 13.6375 25.6375H26.5625C26.9125 25.6375 27.1875 25.3625 27.1875 25.0125C27.1875 24.6625 26.9125 24.3875 26.5625 24.3875Z" fill="#56BD9A"/>
<path d="M26.5625 28.625H13.6375C13.2875 28.625 13.0125 28.9 13.0125 29.25C13.0125 29.6 13.2875 29.875 13.6375 29.875H26.5625C26.9125 29.875 27.1875 29.6 27.1875 29.25C27.1875 28.9 26.9125 28.625 26.5625 28.625Z" fill="#56BD9A"/>
<path d="M26.5625 32.8625H13.6375C13.2875 32.8625 13.0125 33.1375 13.0125 33.4875C13.0125 33.8375 13.2875 34.1125 13.6375 34.1125H26.5625C26.9125 34.1125 27.1875 33.8375 27.1875 33.4875C27.1875 33.1375 26.9125 32.8625 26.5625 32.8625Z" fill="#56BD9A"/>
<path d="M26.5625 37.1H13.6375C13.2875 37.1 13.0125 37.375 13.0125 37.725C13.0125 38.075 13.2875 38.35 13.6375 38.35H26.5625C26.9125 38.35 27.1875 38.075 27.1875 37.725C27.1875 37.375 26.9125 37.1 26.5625 37.1Z" fill="#56BD9A"/>
<defs>
<linearGradient id="paint0_linear_1_680" x1="8.979" y1="28.772" x2="31.804" y2="28.772" gradientUnits="userSpaceOnUse">
<stop stop-color="#C9EAFF"/>
<stop offset="1" stop-color="#CAFBEA"/>
</linearGradient>
</defs>
</svg>
