<svg width="50" height="50" viewBox="0 0 50 50" fill="none" xmlns="http://www.w3.org/2000/svg">
<path d="M42.05 9.375H42.0125C36.0375 9.5625 30.65 10.725 27.8 12.3C26.85 12.8125 26.2 13.375 25.8875 13.8875C25.7125 14.175 25.6375 14.4375 25.6375 14.6875V22.8H31.6875C32.825 22.8 33.7625 21.875 33.7625 20.725V16.175L31.8 18.1375C31.55 18.3875 31.1625 18.3875 30.9125 18.1375C30.6625 17.8875 30.6625 17.5 30.9125 17.25L33.9375 14.225C34.05 14.1125 34.2125 14.0375 34.375 14.0375C34.5375 14.0375 34.7 14.1 34.8125 14.225L37.8375 17.25C38.0875 17.5 38.0875 17.8875 37.8375 18.1375C37.5875 18.3875 37.2 18.3875 36.95 18.1375L34.9875 16.175V20.725C34.9875 22.5625 33.5 24.05 31.6625 24.05H18.3C17.1625 24.05 16.225 24.975 16.225 26.125V27.775C17.4625 28.0625 18.3875 29.1625 18.3875 30.4875C18.3875 32.025 17.1375 33.275 15.6 33.275C14.0625 33.275 12.8125 32.025 12.8125 30.4875C12.8125 29.1625 13.7375 28.05 14.975 27.775V26.125C14.975 24.2875 16.4625 22.8 18.3 22.8H24.35V14.6875C24.35 14.4375 24.275 14.175 24.1 13.8875C23.925 13.6 23.6375 13.2875 23.2375 12.9875C22.45 12.375 21.25 11.775 19.7375 11.2625C16.725 10.225 12.525 9.525 7.9625 9.375H7.925C7.65 9.375 7.375 9.4875 7.175 9.675C6.9625 9.875 6.85 10.1625 6.85 10.45V35.1625C6.85 35.7375 7.3375 36.225 7.925 36.2375C11.575 36.35 15 36.8 17.8375 37.5125C20.6875 38.225 22.9375 39.175 24.3125 40.375C24.3125 40.375 24.3375 40.375 24.35 40.4V27.225C24.35 26.875 24.625 26.6 24.975 26.6C25.325 26.6 25.6 26.875 25.6 27.225V40.4C25.6 40.4 25.625 40.4 25.6375 40.375C27 39.175 29.2625 38.2375 32.1125 37.5125C34.9625 36.8 38.3875 36.35 42.025 36.2375C42.6125 36.225 43.1 35.725 43.1 35.1625V10.45C43.1 10.1625 42.9875 9.875 42.775 9.675C42.575 9.475 42.3 9.375 42.025 9.375H42.05ZM13 14.825C12.75 14.575 12.75 14.1875 13 13.9375C13.25 13.6875 13.6375 13.6875 13.8875 13.9375L15.6375 15.6875L17.3875 13.9375C17.6375 13.6875 18.025 13.6875 18.275 13.9375C18.525 14.1875 18.525 14.575 18.275 14.825L16.525 16.575L18.275 18.325C18.525 18.575 18.525 18.9625 18.275 19.2125C18.025 19.4625 17.6375 19.4625 17.3875 19.2125L15.6375 17.4625L13.8875 19.2125C13.6375 19.4625 13.25 19.4625 13 19.2125C12.75 18.9625 12.75 18.575 13 18.325L14.75 16.575L13 14.825ZM37 32.2875C37.25 32.5375 37.25 32.925 37 33.175C36.75 33.425 36.3625 33.425 36.1125 33.175L34.3625 31.425L32.6125 33.175C32.3625 33.425 31.975 33.425 31.725 33.175C31.475 32.925 31.475 32.5375 31.725 32.2875L33.475 30.5375L31.725 28.7875C31.475 28.5375 31.475 28.15 31.725 27.9C31.975 27.65 32.3625 27.65 32.6125 27.9L34.3625 29.65L36.1125 27.9C36.3625 27.65 36.75 27.65 37 27.9C37.25 28.15 37.25 28.5375 37 28.7875L35.25 30.5375L37 32.2875Z" fill="url(#paint0_linear_1_666)"/>
<path d="M42.05 8.12505H41.975C37.3125 8.27505 33.0125 8.98755 29.8375 10.075C28.25 10.625 26.9375 11.2625 25.975 12C25.5875 12.3 25.2625 12.6375 25 12.9875C24.5 12.3125 23.75 11.725 22.8 11.2C19.625 9.46255 14.15 8.31255 8.025 8.11255H7.95C7.35 8.11255 6.7625 8.35005 6.325 8.76255C5.875 9.20005 5.6125 9.80005 5.6125 10.4375V35.1501C5.6125 36.4251 6.65 37.4375 7.9 37.475C11.4625 37.5875 14.8125 38.0375 17.55 38.7125C20.2875 39.3875 22.4125 40.3251 23.5 41.3001C23.925 41.6751 24.4625 41.8626 24.9875 41.8626C25.5125 41.8626 26.05 41.6751 26.475 41.3001C27.55 40.3376 29.6875 39.4 32.425 38.725C35.1625 38.0375 38.5125 37.5875 42.075 37.4875C43.325 37.45 44.3625 36.4375 44.3625 35.1625V10.45C44.3625 9.82505 44.1125 9.21255 43.65 8.77505C43.2125 8.35005 42.6375 8.11255 42.025 8.11255L42.05 8.12505ZM43.125 35.1625C43.125 35.7375 42.6375 36.225 42.05 36.2375C38.4 36.35 34.975 36.8 32.1375 37.5125C29.2875 38.225 27.0375 39.175 25.6625 40.375C25.6625 40.375 25.6375 40.3875 25.625 40.4V40.8875C25.625 41.2375 25.35 41.5125 25 41.5125C24.65 41.5125 24.375 41.2375 24.375 40.8875V40.4C24.375 40.4 24.35 40.4 24.3375 40.375C22.975 39.175 20.7125 38.2375 17.8625 37.5125C15.0125 36.8 11.5875 36.35 7.95 36.2375C7.3625 36.225 6.875 35.725 6.875 35.1625V10.45C6.875 10.1625 6.9875 9.87505 7.2 9.67505C7.4 9.47505 7.675 9.37505 7.95 9.37505H7.9875C12.55 9.51255 16.75 10.225 19.7625 11.2625C21.2625 11.775 22.475 12.375 23.2625 12.9875C23.6625 13.3 23.95 13.6 24.125 13.8875C24.3 14.175 24.375 14.4375 24.375 14.6875C24.375 14.3375 24.65 14.0625 25 14.0625C25.35 14.0625 25.625 14.3375 25.625 14.6875C25.625 14.4375 25.7 14.175 25.875 13.8875C26.1875 13.3875 26.8375 12.825 27.7875 12.3C30.6375 10.725 36.025 9.55005 42 9.37505H42.0375C42.3125 9.37505 42.5875 9.48755 42.7875 9.67505C43 9.87505 43.1125 10.1625 43.1125 10.45V35.1625H43.125Z" fill="#56BD9A"/>
<path d="M25 26.6C24.65 26.6 24.375 26.875 24.375 27.225V40.8875C24.375 41.2375 24.65 41.5125 25 41.5125C25.35 41.5125 25.625 41.2375 25.625 40.8875V27.225C25.625 26.875 25.35 26.6 25 26.6Z" fill="#56BD9A"/>
<path d="M24.375 22.8H25.625V14.6875C25.625 14.3375 25.35 14.0625 25 14.0625C24.65 14.0625 24.375 14.3375 24.375 14.6875V22.8Z" fill="#56BD9A"/>
<path d="M15.625 28.95C16.475 28.95 17.1625 29.6375 17.1625 30.4875C17.1625 31.3375 16.475 32.025 15.625 32.025C14.775 32.025 14.0875 31.3375 14.0875 30.4875C14.0875 29.6375 14.775 28.95 15.625 28.95C15.275 28.95 15 28.675 15 28.325V27.775C13.7625 28.0625 12.8375 29.1625 12.8375 30.4875C12.8375 32.025 14.0875 33.275 15.625 33.275C17.1625 33.275 18.4125 32.025 18.4125 30.4875C18.4125 29.1625 17.4875 28.05 16.25 27.775V28.325C16.25 28.675 15.975 28.95 15.625 28.95Z" fill="#56BD9A"/>
<path d="M18.325 22.8C16.4875 22.8 15 24.2875 15 26.125V28.325C15 28.675 15.275 28.95 15.625 28.95C15.975 28.95 16.25 28.675 16.25 28.325V26.125C16.25 24.9875 17.175 24.05 18.325 24.05H31.6875C33.525 24.05 35.0125 22.5625 35.0125 20.725V16.175L34.3875 15.55L33.7625 16.175V20.725C33.7625 21.8625 32.8375 22.8 31.6875 22.8H18.325Z" fill="#56BD9A"/>
<path d="M35 16.175L36.9625 18.1375C37.2125 18.3875 37.6 18.3875 37.85 18.1375C38.1 17.8875 38.1 17.5 37.85 17.25L34.825 14.225C34.7125 14.1125 34.55 14.0375 34.3875 14.0375C34.225 14.0375 34.0625 14.1 33.95 14.225L30.925 17.25C30.675 17.5 30.675 17.8875 30.925 18.1375C31.175 18.3875 31.5625 18.3875 31.8125 18.1375L33.775 16.175L34.4 15.55L35.025 16.175H35Z" fill="#56BD9A"/>
<path d="M31.75 32.2875C31.5 32.5375 31.5 32.925 31.75 33.175C32 33.425 32.3875 33.425 32.6375 33.175L34.3875 31.425L33.5 30.5375L31.75 32.2875Z" fill="#56BD9A"/>
<path d="M37 27.9125C36.75 27.6625 36.3625 27.6625 36.1125 27.9125L34.3625 29.6625L35.25 30.55L37 28.8C37.25 28.55 37.25 28.1625 37 27.9125Z" fill="#56BD9A"/>
<path d="M32.625 27.9125C32.375 27.6625 31.9875 27.6625 31.7375 27.9125C31.4875 28.1625 31.4875 28.55 31.7375 28.8L33.4875 30.55L34.375 31.4375L36.125 33.1875C36.375 33.4375 36.7625 33.4375 37.0125 33.1875C37.2625 32.9375 37.2625 32.55 37.0125 32.3L35.2625 30.55L34.375 29.6625L32.625 27.9125Z" fill="#56BD9A"/>
<path d="M13 19.2C13.25 19.45 13.6375 19.45 13.8875 19.2L15.6375 17.45L14.75 16.5625L13 18.3125C12.75 18.5625 12.75 18.95 13 19.2Z" fill="#56BD9A"/>
<path d="M18.25 14.825C18.5 14.575 18.5 14.1875 18.25 13.9375C18 13.6875 17.6125 13.6875 17.3625 13.9375L15.6125 15.6875L16.5 16.575L18.25 14.825Z" fill="#56BD9A"/>
<path d="M17.375 19.2C17.625 19.45 18.0125 19.45 18.2625 19.2C18.5125 18.95 18.5125 18.5625 18.2625 18.3125L16.5125 16.5625L15.625 15.675L13.875 13.925C13.625 13.675 13.2375 13.675 12.9875 13.925C12.7375 14.175 12.7375 14.5625 12.9875 14.8125L14.7375 16.5625L15.625 17.45L17.375 19.2Z" fill="#56BD9A"/>
<defs>
<linearGradient id="paint0_linear_1_666" x1="6.25" y1="24.75" x2="43.75" y2="24.75" gradientUnits="userSpaceOnUse">
<stop stop-color="#C9EAFF"/>
<stop offset="1" stop-color="#CAFBEA"/>
</linearGradient>
</defs>
</svg>
