<svg width="50" height="50" viewBox="0 0 50 50" fill="none" xmlns="http://www.w3.org/2000/svg">
<path d="M5.9125 20.1C5.875 20.1875 5.8625 20.2625 5.8625 20.35C5.8625 20.2375 5.9 20.1375 5.95 20.05C5.95 20.0625 5.925 20.0875 5.9125 20.1Z" fill="#56BD9A"/>
<path d="M21.55 20.1C21.55 20.1 21.525 20.0625 21.5125 20.05C21.5625 20.1375 21.6 20.2375 21.6 20.35C21.6 20.2625 21.5875 20.1875 21.55 20.1Z" fill="#56BD9A"/>
<path d="M19.4375 20.35L13.725 22.8875L8.01251 20.35L7.10001 20.75V21.3L13.1 23.9625V23.5625C13.1 23.2125 13.375 22.9375 13.725 22.9375C14.075 22.9375 14.35 23.2125 14.35 23.5625V23.9625L20.35 21.3V20.75L19.4375 20.35Z" fill="#56BD9A"/>
<path d="M13.475 16.5625L6.225 19.7875C6.225 19.7875 6.2125 19.8 6.2 19.8125C6.1125 19.85 6.05 19.9125 6 19.9875C5.9875 20.0125 5.9625 20.025 5.95 20.05C5.9 20.1375 5.8625 20.2375 5.8625 20.35V28.4C5.8625 28.65 6.0125 28.875 6.2375 28.975L13.4875 32.2C13.2625 32.1 13.1125 31.8875 13.1125 31.625V30.6625L7.1125 28V20.7625L8.025 20.3625L13.7375 17.825L19.45 20.3625L20.3625 20.7625V25.9875C20.3625 26.3375 20.6375 26.6125 20.9875 26.6125C21.3375 26.6125 21.6125 26.3375 21.6125 25.9875V20.35C21.6125 20.2375 21.575 20.1375 21.525 20.05C21.5125 20.025 21.5 20 21.475 19.9875C21.425 19.9125 21.35 19.85 21.275 19.8125C21.275 19.8125 21.2625 19.8 21.25 19.7875L14 16.5625C13.8375 16.4875 13.65 16.4875 13.4875 16.5625H13.475Z" fill="#56BD9A"/>
<path d="M13.975 32.1999L17.225 30.7499C17.5375 30.6124 17.6875 30.2374 17.5375 29.9249C17.4 29.6124 17.025 29.4624 16.7125 29.6124L14.3375 30.6624V31.6249C14.3375 31.8874 14.1875 32.0999 13.9625 32.1999H13.975Z" fill="#56BD9A"/>
<path d="M13.725 22.95C13.375 22.95 13.1 23.225 13.1 23.575V31.6249C13.1 31.8874 13.25 32.1 13.475 32.2C13.55 32.2375 13.6375 32.2499 13.725 32.2499C13.8125 32.2499 13.9 32.225 13.975 32.2C14.2 32.1 14.35 31.8874 14.35 31.6249V23.575C14.35 23.225 14.075 22.95 13.725 22.95Z" fill="#56BD9A"/>
<path d="M44.0875 20.1C44.0875 20.1 44.0625 20.0625 44.05 20.05C44.1 20.1375 44.1375 20.2375 44.1375 20.35C44.1375 20.2625 44.125 20.1875 44.0875 20.1Z" fill="#56BD9A"/>
<path d="M28.45 20.1C28.4125 20.1875 28.4 20.2625 28.4 20.35C28.4 20.2375 28.4375 20.1375 28.4875 20.05C28.4875 20.0625 28.4625 20.0875 28.45 20.1Z" fill="#56BD9A"/>
<path d="M36.275 22.95C36.625 22.95 36.9 23.225 36.9 23.575V23.975L42.9 21.3125V20.7625L41.9875 20.3625L36.275 22.9L30.5625 20.3625L29.65 20.7625V21.3125L35.65 23.975V23.575C35.65 23.225 35.925 22.95 36.275 22.95Z" fill="#56BD9A"/>
<path d="M44.15 28.4V20.35C44.15 20.2375 44.1125 20.1375 44.0625 20.05C44.05 20.025 44.0375 20 44.0125 19.9875C43.9625 19.9125 43.8875 19.85 43.8125 19.8125C43.8125 19.8125 43.8 19.8 43.7875 19.7875L36.5375 16.5625C36.375 16.4875 36.1875 16.4875 36.025 16.5625L28.775 19.7875C28.775 19.7875 28.7625 19.8 28.75 19.8125C28.6625 19.85 28.6 19.9125 28.55 19.9875C28.5375 20.0125 28.5125 20.025 28.5 20.05C28.45 20.1375 28.4125 20.2375 28.4125 20.35V25.9875C28.4125 26.3375 28.6875 26.6125 29.0375 26.6125C29.3875 26.6125 29.6625 26.3375 29.6625 25.9875V20.7625L30.575 20.3625L36.2875 17.825L42 20.3625L42.9125 20.7625V28L36.9125 30.6625V31.625C36.9125 31.8875 36.7625 32.1 36.5375 32.2L43.7875 28.975C44.0125 28.875 44.1625 28.65 44.1625 28.4H44.15Z" fill="#56BD9A"/>
<path d="M35.65 31.6249V30.6624L33.275 29.6124C32.9625 29.4749 32.5875 29.6124 32.45 29.9249C32.3125 30.2374 32.45 30.6124 32.7625 30.7499L36.0125 32.1999C35.7875 32.0999 35.6375 31.8874 35.6375 31.6249H35.65Z" fill="#56BD9A"/>
<path d="M36.9 31.6249V23.575C36.9 23.225 36.625 22.95 36.275 22.95C35.925 22.95 35.65 23.225 35.65 23.575V31.6249C35.65 31.8874 35.8 32.1 36.025 32.2C36.1 32.2375 36.1875 32.2499 36.275 32.2499C36.3625 32.2499 36.45 32.225 36.525 32.2C36.75 32.1 36.9 31.8874 36.9 31.6249Z" fill="#56BD9A"/>
<path d="M24.75 21.725C24.825 21.7625 24.9125 21.775 25 21.775C25.0875 21.775 25.175 21.75 25.25 21.725C25.0875 21.8 24.9125 21.8 24.75 21.725Z" fill="#56BD9A"/>
<path d="M24.75 13.675L24.375 13.5125V20.2L25 20.4749L25.625 20.2V13.5125L25.25 13.675C25.0875 13.75 24.9 13.75 24.7375 13.675H24.75Z" fill="#56BD9A"/>
<path d="M17.1875 9.62495C17.15 9.71245 17.1375 9.78745 17.1375 9.87495C17.1375 9.76245 17.175 9.66245 17.225 9.57495C17.225 9.58745 17.2 9.61245 17.1875 9.62495Z" fill="#56BD9A"/>
<path d="M32.8125 9.62495C32.8125 9.62495 32.7875 9.58745 32.775 9.57495C32.825 9.66245 32.8625 9.76245 32.8625 9.87495C32.8625 9.78745 32.85 9.71245 32.8125 9.62495Z" fill="#56BD9A"/>
<path d="M30.7125 9.88745L25 12.425L19.2875 9.88745L18.375 10.2875V10.8375L24.375 13.5L24.75 13.6625C24.9125 13.7375 25.1 13.7375 25.2625 13.6625L25.6375 13.5L31.6375 10.8375V10.2875L30.725 9.88745H30.7125Z" fill="#56BD9A"/>
<path d="M32.25 16.55C32.6 16.55 32.875 16.275 32.875 15.925V9.88745C32.875 9.77495 32.8375 9.67495 32.7875 9.58745C32.775 9.56245 32.7625 9.53745 32.7375 9.52495C32.6875 9.44995 32.6125 9.38745 32.5375 9.34995C32.5375 9.34995 32.525 9.33745 32.5125 9.32495L25.2625 6.09995C25.1 6.02495 24.9125 6.02495 24.75 6.09995L17.5 9.32495C17.5 9.32495 17.4875 9.33745 17.475 9.34995C17.3875 9.38745 17.325 9.44995 17.275 9.52495C17.2625 9.54995 17.2375 9.56245 17.225 9.58745C17.175 9.67495 17.1375 9.77495 17.1375 9.88745V15.925C17.1375 16.275 17.4125 16.55 17.7625 16.55C18.1125 16.55 18.3875 16.275 18.3875 15.925V10.2875L19.3 9.88745L25.0125 7.34995L30.725 9.88745L31.6375 10.2875V15.925C31.6375 16.275 31.9125 16.55 32.2625 16.55H32.25Z" fill="#56BD9A"/>
<path d="M24.375 20.1999L23.625 19.8624C23.3125 19.7249 22.9375 19.8624 22.8 20.1749C22.6625 20.4874 22.8 20.8624 23.1125 20.9999L24.7375 21.7249C24.9 21.7999 25.075 21.7999 25.2375 21.7249L26.8625 20.9999C27.175 20.8624 27.325 20.4874 27.175 20.1749C27.0375 19.8624 26.6625 19.7124 26.35 19.8624L25.6 20.1999L24.975 20.4749L24.35 20.1999H24.375Z" fill="#56BD9A"/>
<path d="M29.1125 30.25C28.075 29.2125 26.65 28.575 25.075 28.575C23.5 28.575 22.075 29.2125 21.0375 30.25C20 31.2875 19.3625 32.7125 19.3625 34.2875C19.3625 35.8625 20 37.2875 21.0375 38.325C22.075 39.3625 23.5 40 25.075 40C26.65 40 28.075 39.3625 29.1125 38.325C30.15 37.2875 30.7875 35.8625 30.7875 34.2875C30.7875 32.7125 30.15 31.2875 29.1125 30.25Z" fill="url(#paint0_linear_1_757)"/>
<path d="M25.075 27.325C21.225 27.325 18.1125 30.4375 18.1125 34.2875C18.1125 38.1375 21.225 41.25 25.075 41.25C26.825 41.25 28.4125 40.5999 29.6375 39.5374L29.3125 39.2249C29.0625 38.9874 29.05 38.5875 29.3 38.3375C29.5375 38.0875 29.9375 38.075 30.1875 38.325L30.525 38.6375C31.475 37.45 32.05 35.9375 32.05 34.2875C32.05 30.4375 28.9375 27.325 25.0875 27.325H25.075ZM29.1125 38.325C28.075 39.3625 26.65 40 25.075 40C23.5 40 22.075 39.3625 21.0375 38.325C20 37.2875 19.3625 35.8625 19.3625 34.2875C19.3625 32.7125 20 31.2875 21.0375 30.25C22.075 29.2125 23.5 28.575 25.075 28.575C26.65 28.575 28.075 29.2125 29.1125 30.25C30.15 31.2875 30.7875 32.7125 30.7875 34.2875C30.7875 35.8625 30.15 37.2875 29.1125 38.325Z" fill="#56BD9A"/>
<path d="M29.3 38.3375C29.0625 38.5875 29.075 38.9875 29.3125 39.225L29.6375 39.5375L34.075 43.7875C34.325 44.025 34.725 44.0125 34.9625 43.775C35.2 43.525 35.1875 43.125 34.95 42.8875L30.525 38.6375L30.1875 38.325C29.9375 38.0875 29.5375 38.1 29.3 38.3375Z" fill="#56BD9A"/>
<defs>
<linearGradient id="paint0_linear_1_757" x1="18.0675" y1="35.1485" x2="30.7425" y2="35.1485" gradientUnits="userSpaceOnUse">
<stop stop-color="#C9EAFF"/>
<stop offset="1" stop-color="#CAFBEA"/>
</linearGradient>
</defs>
</svg>
