<svg width="80" height="80" viewBox="0 0 80 80" fill="none" xmlns="http://www.w3.org/2000/svg">
<path d="M56.96 35.34C56.4 35.34 55.96 34.9 55.96 34.34V24.64C55.96 24.3 55.82 23.98 55.6 23.74L47.22 15.36C46.98 15.12 46.66 15 46.32 15H16.26C15.56 15 15 15.56 15 16.26V63.74C15 64.44 15.56 65 16.26 65H41.12C41.68 65 42.12 65.44 42.12 66C42.12 66 42.12 66.04 42.12 66.06H54.7C55.94 66.06 56.96 65.04 56.96 63.8V61.12C55.32 62.06 53.4 62.62 51.36 62.62C45.16 62.62 40.12 57.58 40.12 51.38C40.12 45.18 45.16 40.14 51.36 40.14C53.4 40.14 55.3 40.7 56.96 41.64V35.36V35.34ZM23.04 24.3H38.86C39.42 24.3 39.86 24.74 39.86 25.3C39.86 25.86 39.42 26.3 38.86 26.3H23.04C22.48 26.3 22.04 25.86 22.04 25.3C22.04 24.74 22.48 24.3 23.04 24.3ZM32.08 53.44H23.04C22.48 53.44 22.04 53 22.04 52.44C22.04 51.88 22.48 51.44 23.04 51.44H32.08C32.64 51.44 33.08 51.88 33.08 52.44C33.08 53 32.64 53.44 32.08 53.44ZM32.08 46.66H23.04C22.48 46.66 22.04 46.22 22.04 45.66C22.04 45.1 22.48 44.66 23.04 44.66H32.08C32.64 44.66 33.08 45.1 33.08 45.66C33.08 46.22 32.64 46.66 32.08 46.66ZM36.6 39.86H23.04C22.48 39.86 22.04 39.42 22.04 38.86C22.04 38.3 22.48 37.86 23.04 37.86H36.6C37.16 37.86 37.6 38.3 37.6 38.86C37.6 39.42 37.16 39.86 36.6 39.86ZM44.52 33.08H23.04C22.48 33.08 22.04 32.64 22.04 32.08C22.04 31.52 22.48 31.08 23.04 31.08H44.52C45.08 31.08 45.52 31.52 45.52 32.08C45.52 32.64 45.08 33.08 44.52 33.08Z" fill="url(#paint0_linear_71_6)"/>
<path d="M40.1406 51.36C40.1406 57.56 45.1806 62.6 51.3806 62.6C53.4206 62.6 55.3206 62.04 56.9806 61.1C57.5606 60.78 58.1006 60.4 58.6006 59.98L57.9806 59.36C57.5806 58.96 57.5806 58.34 57.9806 57.94C58.3806 57.54 59.0006 57.54 59.4006 57.94L60.0206 58.56C61.6606 56.6 62.6406 54.1 62.6406 51.36C62.6406 47.2 60.3606 43.56 57.0006 41.62C55.3606 40.68 53.4406 40.12 51.4006 40.12C45.2006 40.12 40.1606 45.16 40.1606 51.36H40.1406ZM57.9006 44.84C59.5806 46.52 60.6006 48.82 60.6006 51.38C60.6006 53.94 59.5606 56.24 57.9006 57.92C56.2206 59.6 53.9206 60.62 51.3606 60.62C48.8006 60.62 46.5006 59.58 44.8206 57.92C43.1406 56.24 42.1206 53.94 42.1206 51.38C42.1206 48.82 43.1606 46.52 44.8206 44.84C46.5006 43.16 48.8006 42.14 51.3606 42.14C53.9206 42.14 56.2206 43.18 57.9006 44.84Z" fill="#56BD9A"/>
<path d="M57.9406 57.94C57.5406 58.34 57.5406 58.96 57.9406 59.36L58.5606 59.98L65.2806 66.7C65.6806 67.1 66.3006 67.1 66.7006 66.7C67.1006 66.3 67.1006 65.68 66.7006 65.28L59.9806 58.56L59.3606 57.94C58.9606 57.54 58.3406 57.54 57.9406 57.94Z" fill="#56BD9A"/>
<path d="M44.5191 31.08H23.0391C22.4791 31.08 22.0391 31.52 22.0391 32.08C22.0391 32.64 22.4791 33.08 23.0391 33.08H44.5191C45.0791 33.08 45.5191 32.64 45.5191 32.08C45.5191 31.52 45.0791 31.08 44.5191 31.08Z" fill="#56BD9A"/>
<path d="M36.5991 37.86H23.0391C22.4791 37.86 22.0391 38.3 22.0391 38.86C22.0391 39.42 22.4791 39.86 23.0391 39.86H36.5991C37.1591 39.86 37.5991 39.42 37.5991 38.86C37.5991 38.3 37.1591 37.86 36.5991 37.86Z" fill="#56BD9A"/>
<path d="M23.0391 26.3H38.8591C39.4191 26.3 39.8591 25.86 39.8591 25.3C39.8591 24.74 39.4191 24.3 38.8591 24.3H23.0391C22.4791 24.3 22.0391 24.74 22.0391 25.3C22.0391 25.86 22.4791 26.3 23.0391 26.3Z" fill="#56BD9A"/>
<path d="M32.0791 44.66H23.0391C22.4791 44.66 22.0391 45.1 22.0391 45.66C22.0391 46.22 22.4791 46.66 23.0391 46.66H32.0791C32.6391 46.66 33.0791 46.22 33.0791 45.66C33.0791 45.1 32.6391 44.66 32.0791 44.66Z" fill="#56BD9A"/>
<path d="M32.0791 51.44H23.0391C22.4791 51.44 22.0391 51.88 22.0391 52.44C22.0391 53 22.4791 53.44 23.0391 53.44H32.0791C32.6391 53.44 33.0791 53 33.0791 52.44C33.0791 51.88 32.6391 51.44 32.0791 51.44Z" fill="#56BD9A"/>
<path d="M41.1395 65H16.2795C15.5795 65 15.0195 64.44 15.0195 63.74V16.26C15.0195 15.56 15.5795 15 16.2795 15H46.3395C46.6795 15 46.9995 15.14 47.2395 15.36L55.6195 23.74C55.8595 23.98 55.9795 24.3 55.9795 24.64V34.34C55.9795 34.9 56.4195 35.34 56.9795 35.34C57.5395 35.34 57.9795 34.9 57.9795 34.34V24.64C57.9795 23.78 57.6395 22.94 57.0195 22.34L48.6395 13.96C48.0195 13.34 47.1995 13 46.3395 13H16.2795C14.4795 13 13.0195 14.46 13.0195 16.26V63.74C13.0195 65.54 14.4795 67 16.2795 67H41.1395C41.6795 67 42.0995 66.58 42.1195 66.06C42.1195 66.06 42.1195 66.02 42.1195 66C42.1195 65.44 41.6795 65 41.1195 65H41.1395Z" fill="#56BD9A"/>
<defs>
<linearGradient id="paint0_linear_71_6" x1="14.6144" y1="39.7592" x2="57.5744" y2="39.7592" gradientUnits="userSpaceOnUse">
<stop stop-color="#C9EAFF"/>
<stop offset="1" stop-color="#CAFBEA"/>
</linearGradient>
</defs>
</svg>
