<svg version="1.2" xmlns="http://www.w3.org/2000/svg" xmlns:xlink="http://www.w3.org/1999/xlink" overflow="visible" preserveAspectRatio="none" viewBox="0 0 24 24" width="25" height="25"><g><path xmlns:default="http://www.w3.org/2000/svg" id="slack" d="M19.13,11.41c-0.16,0-0.33,0.03-0.48,0.08l-1.67,0.58l-1.13-3.29l1.63-0.56c0.3-0.1,0.57-0.29,0.77-0.54  c0.2-0.24,0.31-0.54,0.31-0.85c0-0.38-0.16-0.74-0.44-1c-0.29-0.27-0.67-0.42-1.07-0.41c-0.15,0-0.3,0.02-0.45,0.06l-1.67,0.51  l-0.56-1.63c-0.22-0.61-0.8-1.01-1.45-1c-0.4-0.01-0.79,0.16-1.06,0.45c-0.29,0.28-0.44,0.66-0.44,1.06c0,0.17,0.03,0.33,0.08,0.49  l0.57,1.63l-3.22,1.1L8.28,6.42c-0.1-0.3-0.29-0.57-0.55-0.75C7.48,5.48,7.17,5.38,6.85,5.39c-0.4-0.01-0.78,0.15-1.06,0.44  C5.51,6.11,5.35,6.49,5.35,6.9c0,0.17,0.03,0.33,0.08,0.49l0.55,1.65L4.35,9.59c-0.3,0.1-0.56,0.29-0.74,0.55  c-0.19,0.25-0.29,0.56-0.29,0.88c0,0.38,0.16,0.74,0.43,1c0.28,0.28,0.66,0.43,1.05,0.42c0.17,0,0.34-0.03,0.5-0.08l1.62-0.56  l1.06,3.31l-1.62,0.55c-0.3,0.1-0.56,0.29-0.74,0.55c-0.19,0.25-0.29,0.56-0.29,0.88c-0.01,0.39,0.14,0.77,0.42,1.05  c0.28,0.28,0.66,0.43,1.06,0.42c0.18,0,0.35-0.03,0.52-0.09l1.65-0.55l0.57,1.7c0.1,0.3,0.29,0.57,0.55,0.75  c0.26,0.18,0.56,0.28,0.88,0.28c0.38-0.01,0.74-0.17,1-0.45c0.28-0.28,0.44-0.66,0.44-1.06c0-0.17-0.03-0.33-0.08-0.49l-0.54-1.66  l3.23-1.1l0.57,1.72c0.1,0.31,0.3,0.57,0.56,0.75c0.26,0.18,0.57,0.28,0.89,0.28c0.4,0,0.78-0.16,1.05-0.45  c0.28-0.28,0.44-0.66,0.44-1.06c0-0.17-0.02-0.33-0.07-0.49l-0.59-1.79l1.79-0.61c0.61-0.16,1.03-0.72,1-1.35  c0.01-0.4-0.14-0.78-0.43-1.06c-0.29-0.28-0.68-0.43-1.08-0.42l0,0H19.13z M9.77,10.88l3.21-1.12l1.09,3.28l-3.23,1.09L9.77,10.88z" style="fill: rgb(99, 102, 241);" vector-effect="non-scaling-stroke"/></g></svg>