<?xml version="1.0" encoding="UTF-8"?><svg xmlns="http://www.w3.org/2000/svg" viewBox="0 0 20.26 20.83"><defs><style>.d{fill:#121212;}</style></defs><g id="a"/><g id="b"><g id="c"><path class="d" d="M17.87,11.44c.04-.33,.07-.67,.07-1.02s-.03-.69-.07-1.02l2.2-1.72c.2-.16,.25-.44,.13-.67l-2.08-3.6c-.13-.23-.41-.31-.64-.23l-2.59,1.04c-.54-.42-1.12-.76-1.76-1.02l-.4-2.76c-.03-.25-.25-.44-.51-.44h-4.17c-.26,0-.48,.19-.51,.44l-.4,2.76c-.64,.26-1.22,.61-1.76,1.02l-2.59-1.04c-.24-.09-.51,0-.64,.23L.07,7.01c-.14,.23-.07,.51,.12,.67l2.2,1.72c-.04,.33-.07,.68-.07,1.02s.03,.69,.07,1.02L.2,13.16c-.2,.16-.25,.44-.12,.67l2.08,3.6c.12,.23,.41,.31,.64,.23l2.59-1.04c.54,.42,1.12,.76,1.76,1.02l.4,2.76c.03,.25,.25,.44,.51,.44h4.17c.26,0,.48-.19,.51-.44l.4-2.76c.64-.26,1.22-.61,1.76-1.02l2.59,1.04c.24,.09,.51,0,.64-.23l2.08-3.6c.13-.23,.07-.51-.13-.67l-2.2-1.72Zm-7.74,2.63c-2.01,0-3.65-1.64-3.65-3.65s1.64-3.65,3.65-3.65,3.65,1.64,3.65,3.65-1.64,3.65-3.65,3.65Z" vector-effect="non-scaling-stroke"/></g></g></svg>