<?xml version="1.0" encoding="UTF-8"?><svg xmlns="http://www.w3.org/2000/svg" viewBox="0 0 206.64 172.7"><defs><style>.g{fill:#c8e9fc;}.h{fill:#fff;}.h,.i{stroke:#6366f1;stroke-linecap:round;stroke-linejoin:round;stroke-width:2px;}.i{fill:none;}</style></defs><g id="a"/><g id="b"><g id="c"><g><path id="d" class="i" d="M10.74,171.7H196.87"/><path id="e" class="i" d="M202.23,171.7h3.41"/><path id="f" class="i" d="M1,171.7h3.41"/></g><g><path class="h" d="M88.44,1c-.58,0-1.17,.01-1.75,.04-10.89,.45-20.94,5.12-28.31,13.14-7.38,8.02-11.19,18.43-10.73,29.32l.03,.86c.05,1.11-.58,2.15-1.58,2.64-9.65,4.71-17.17,13.25-20.63,23.41-.27,.79-.88,1.42-1.66,1.72-12.23,4.69-20.07,16.6-19.52,29.66,.72,16.76,14.76,29.78,31.64,29.09,11.56-.49,24.07-.72,39.37-.72,9.73,0,19.49,.09,29.26,.18,9.76,.09,19.54,.18,29.3,.18,15.3,0,27.83-.23,39.43-.72,16.72-.71,29.75-14.9,29.05-31.63-.72-16.74-14.67-29.64-31.64-29.05-2.79,.14-5.44,.62-7.84,1.41-.8,.26-1.66,.15-2.37-.29-.71-.44-1.18-1.18-1.29-2.01-1.9-13.96-13.47-24.96-27.49-26.15-1.4-.12-2.5-1.24-2.58-2.64C127.9,17.88,110.03,1,88.44,1Z"/><path class="g" d="M9.89,118.15c5.74,8.08,15.32,13.18,26.05,12.74,11.56-.49,24.07-.72,39.37-.72,9.73,0,19.49,.09,29.26,.18,9.76,.09,19.54,.18,29.3,.18,15.3,0,27.83-.23,39.43-.72,9.23-.39,17.33-4.89,22.62-11.66H9.89Z"/><path class="i" d="M88.44,1c-.58,0-1.17,.01-1.75,.04-10.89,.45-20.94,5.12-28.31,13.14-7.38,8.02-11.19,18.43-10.73,29.32l.03,.86c.05,1.11-.58,2.15-1.58,2.64-9.65,4.71-17.17,13.25-20.63,23.41-.27,.79-.88,1.42-1.66,1.72-12.23,4.69-20.07,16.6-19.52,29.66,.72,16.76,14.76,29.78,31.64,29.09,11.56-.49,24.07-.72,39.37-.72,9.73,0,19.49,.09,29.26,.18,9.76,.09,19.54,.18,29.3,.18,15.3,0,27.83-.23,39.43-.72,16.72-.71,29.75-14.9,29.05-31.63-.72-16.74-14.67-29.64-31.64-29.05-2.79,.14-5.44,.62-7.84,1.41-.8,.26-1.66,.15-2.37-.29-.71-.44-1.18-1.18-1.29-2.01-1.9-13.96-13.47-24.96-27.49-26.15-1.4-.12-2.5-1.24-2.58-2.64C127.9,17.88,110.03,1,88.44,1Z"/><path class="h" d="M94.65,54.68c-8.72,8.71-22.77,15.84-37.66,18.88,0,.93,.12,6.07,0,29.75-.14,31.59,32.11,47.04,37.11,49.41,4.85-2.08,37.49-17.48,37.63-49.08,.11-23.68-.01-28.82,0-29.75-14.86-3.17-28.44-10.43-37.08-19.21Z"/><g><path class="h" d="M103.29,99.62c-.87,0-1.58-.71-1.58-1.58v-8.78c0-3.7-3.01-6.72-6.72-6.72h-1.25c-3.7,0-6.72,3.01-6.72,6.72v8.78c0,.87-.71,1.58-1.58,1.58s-1.58-.71-1.58-1.58v-8.78c0-5.45,4.43-9.89,9.89-9.89h1.25c5.45,0,9.89,4.43,9.89,9.89v8.78c0,.87-.71,1.58-1.58,1.58Z"/><rect class="h" x="79.43" y="96.21" width="29.85" height="24.76" rx="4.4" ry="4.4"/><path class="h" d="M97.48,106.72c0-1.72-1.39-3.11-3.11-3.11s-3.11,1.39-3.11,3.11c0,1.3,.8,2.41,1.92,2.88v2.8c0,.65,.53,1.18,1.18,1.18s1.18-.53,1.18-1.18v-2.79c1.14-.46,1.94-1.58,1.94-2.88Z"/></g></g></g></g></svg>